<svg xmlns="http://www.w3.org/2000/svg" width="700" height="183.49" viewBox="0 0 700 183.49">
  <g id="グループ_306" data-name="グループ 306" transform="translate(-614 -2115.155)">
    <g id="グループ_233" data-name="グループ 233" transform="translate(141 955.155)">
      <g id="グループ_227" data-name="グループ 227" transform="translate(473 1160)">
        <g id="長方形_216" data-name="長方形 216" fill="#fff" stroke="#000b4d" stroke-linecap="round" stroke-width="4">
          <rect width="700" height="158.813" stroke="none"/>
          <rect x="2" y="2" width="696" height="154.813" fill="none"/>
        </g>
        <rect id="長方形_219" data-name="長方形 219" width="666" height="128.813" transform="translate(17 15)" fill="none"/>
        <g id="パス_377" data-name="パス 377" transform="translate(646.867 106.602)" fill="#000b4d">
          <path d="M 35.31280136108398 35.31280136108398 L 2.414222478866577 35.31280136108398 L 35.31280136108398 2.414222478866577 L 35.31280136108398 35.31280136108398 Z" stroke="none"/>
          <path d="M 34.31280136108398 4.828422546386719 L 4.828422546386719 34.31280136108398 L 34.31280136108398 34.31280136108398 L 34.31280136108398 4.828422546386719 M 36.31280136108398 3.814697265625e-06 L 36.31280136108398 36.31280136108398 L 3.814697265625e-06 36.31280136108398 L 36.31280136108398 3.814697265625e-06 Z" stroke="none" fill="#000b4d"/>
        </g>
        <g id="パス_380" data-name="パス 380" transform="translate(53.313 51.313) rotate(180)" fill="#000b4d">
          <path d="M 35.31280136108398 35.31280136108398 L 2.414222478866577 35.31280136108398 L 35.31280136108398 2.414222478866577 L 35.31280136108398 35.31280136108398 Z" stroke="none"/>
          <path d="M 34.31280136108398 4.828422546386719 L 4.828422546386719 34.31280136108398 L 34.31280136108398 34.31280136108398 L 34.31280136108398 4.828422546386719 M 36.31280136108398 3.814697265625e-06 L 36.31280136108398 36.31280136108398 L 3.814697265625e-06 36.31280136108398 L 36.31280136108398 3.814697265625e-06 Z" stroke="none" fill="#000b4d"/>
        </g>
        <g id="パス_381" data-name="パス 381" transform="translate(53.313 51.313) rotate(180)" fill="#000b4d">
          <path d="M 35.31280136108398 35.31280136108398 L 2.414222478866577 35.31280136108398 L 35.31280136108398 2.414222478866577 L 35.31280136108398 35.31280136108398 Z" stroke="none"/>
          <path d="M 34.31280136108398 4.828422546386719 L 4.828422546386719 34.31280136108398 L 34.31280136108398 34.31280136108398 L 34.31280136108398 4.828422546386719 M 36.31280136108398 3.814697265625e-06 L 36.31280136108398 36.31280136108398 L 3.814697265625e-06 36.31280136108398 L 36.31280136108398 3.814697265625e-06 Z" stroke="none" fill="#000b4d"/>
        </g>
      </g>
      <g id="パス_382" data-name="パス 382" transform="translate(822.422 1292.136) rotate(45)" fill="#000b4d">
        <path d="M 35.31280136108398 35.31280136108398 L 2.414222478866577 35.31280136108398 L 35.31280136108398 2.414222478866577 L 35.31280136108398 35.31280136108398 Z" stroke="none"/>
        <path d="M 34.31280136108398 4.828422546386719 L 4.828422546386719 34.31280136108398 L 34.31280136108398 34.31280136108398 L 34.31280136108398 4.828422546386719 M 36.31280136108398 3.814697265625e-06 L 36.31280136108398 36.31280136108398 L 3.814697265625e-06 36.31280136108398 L 36.31280136108398 3.814697265625e-06 Z" stroke="none" fill="#000b4d"/>
      </g>
      <path id="パス_383" data-name="パス 383" d="M36.313,0V36.313H0Z" transform="translate(822.422 1286.136) rotate(45)" fill="#fff"/>
    </g>
    <path id="パス_533" data-name="パス 533" d="M-19.692-20.556a2.114,2.114,0,0,1,1.044,1.206,2.065,2.065,0,0,1-.072,1.6l-.684,1.656a1.84,1.84,0,0,1-1.116,1.08,1.844,1.844,0,0,1-1.548-.108Q-24.7-16.452-26.1-17.352q-.216-.144-.288.144a1.977,1.977,0,0,1-.684,1.224,1.962,1.962,0,0,1-1.332.5H-43.02a1.962,1.962,0,0,1-1.332-.5,1.977,1.977,0,0,1-.684-1.224q-.072-.288-.288-.144-2.124,1.3-4.068,2.268a1.8,1.8,0,0,1-1.512.054,1.91,1.91,0,0,1-1.116-1.062l-.684-1.656a2.065,2.065,0,0,1-.072-1.6,2.114,2.114,0,0,1,1.044-1.206A47.329,47.329,0,0,0-41.472-27.9a4.913,4.913,0,0,1,3.492-1.44h4.536a4.913,4.913,0,0,1,3.492,1.44A47.329,47.329,0,0,0-19.692-20.556ZM-40.284-20.7h9.144a.121.121,0,0,0,.108-.054q.036-.054-.036-.126a41.918,41.918,0,0,1-4.428-4.1q-.216-.216-.432.036a46.14,46.14,0,0,1-4.428,4.068q-.072.072-.036.126A.121.121,0,0,0-40.284-20.7Zm16.92,7.02a1.97,1.97,0,0,1,1.44.612,1.97,1.97,0,0,1,.612,1.44v1.3a4.829,4.829,0,0,1-1.4,3.564A52.728,52.728,0,0,1-36.756,3.276a2.12,2.12,0,0,1-1.62.144,2.41,2.41,0,0,1-1.332-1.008L-40.716.828A1.742,1.742,0,0,1-40.932-.63,1.739,1.739,0,0,1-40-1.764a51.149,51.149,0,0,0,10.116-6.3.118.118,0,0,0,.036-.144.115.115,0,0,0-.108-.072H-48.06a1.97,1.97,0,0,1-1.44-.612,1.97,1.97,0,0,1-.612-1.44v-1.3a1.97,1.97,0,0,1,.612-1.44,1.97,1.97,0,0,1,1.44-.612ZM1.692-2.88a2.389,2.389,0,0,0,1.944-.666,4.547,4.547,0,0,0,.576-2.61.446.446,0,0,0-.288-.468A4.829,4.829,0,0,0,1.692-7.2,3.349,3.349,0,0,0-.45-6.606,1.912,1.912,0,0,0-1.188-5.04,1.882,1.882,0,0,0-.432-3.456,3.439,3.439,0,0,0,1.692-2.88ZM14.4-24.372a1.894,1.894,0,0,1,1.368.756A1.948,1.948,0,0,1,16.2-22.1l-.216,1.728a1.92,1.92,0,0,1-.774,1.332,1.966,1.966,0,0,1-1.494.4q-1.728-.216-2.7-.252a.286.286,0,0,0-.324.324v9.288a.564.564,0,0,0,.288.5A52.632,52.632,0,0,1,15.336-5.04a2.126,2.126,0,0,1,.648,1.458,2.043,2.043,0,0,1-.54,1.494L14.22-.792a2.049,2.049,0,0,1-1.4.666,1.845,1.845,0,0,1-1.44-.522q-.216-.18-.63-.54t-.558-.5q-.216-.216-.36.036Q7.884,2.52,1.692,2.52A10.541,10.541,0,0,1-5.2.486,6.785,6.785,0,0,1-7.668-5.04a6.853,6.853,0,0,1,2.43-5.49q2.43-2.07,6.93-2.07a9.33,9.33,0,0,1,2.2.252q.324.072.324-.216V-22.788a1.97,1.97,0,0,1,.612-1.44,1.849,1.849,0,0,1,1.44-.576Q10.692-24.732,14.4-24.372ZM-.36-19.08H-4.644a.37.37,0,0,0-.4.324A157.536,157.536,0,0,1-9.828-3.168,2.036,2.036,0,0,1-10.89-2a2.011,2.011,0,0,1-1.6.09l-2.052-.684A1.987,1.987,0,0,1-15.7-3.618a1.992,1.992,0,0,1-.108-1.53q2.628-7.308,4.32-13.644.072-.288-.252-.288h-1.8a1.97,1.97,0,0,1-1.44-.612,1.97,1.97,0,0,1-.612-1.44v-1.656a1.97,1.97,0,0,1,.612-1.44,1.97,1.97,0,0,1,1.44-.612h3.276a.34.34,0,0,0,.36-.288q.36-1.584.54-2.412a2.155,2.155,0,0,1,.882-1.332,2.14,2.14,0,0,1,1.566-.4l2.088.216a1.783,1.783,0,0,1,1.3.792A1.916,1.916,0,0,1-3.2-26.784q-.072.288-.18.828t-.18.828q-.072.288.252.288H-.36a1.97,1.97,0,0,1,1.44.612,1.97,1.97,0,0,1,.612,1.44v1.656a1.97,1.97,0,0,1-.612,1.44A1.97,1.97,0,0,1-.36-19.08Zm39.924,1.8q5.688,0,8.244,2.178T50.364-8.28A8.777,8.777,0,0,1,46.242-.648Q42.12,2.16,34.524,2.16q-3.564,0-7.164-.324A1.914,1.914,0,0,1,25.992,1.1,2.017,2.017,0,0,1,25.524-.4l.18-1.728a1.876,1.876,0,0,1,.72-1.35,2,2,0,0,1,1.476-.45q3.852.324,6.624.324a11.412,11.412,0,0,0,5.94-1.314,3.871,3.871,0,0,0,2.16-3.366q0-3.24-4.14-3.24-2.916,0-8.28,2.808a5.55,5.55,0,0,1-3.816.576L24.3-8.6a1.948,1.948,0,0,1-1.314-.846,1.994,1.994,0,0,1-.342-1.53q.576-3.348,1.152-7.164a2.145,2.145,0,0,1,.81-1.386,2.11,2.11,0,0,1,1.53-.45l2.556.18a1.914,1.914,0,0,1,1.368.738,1.9,1.9,0,0,1,.432,1.494q-.072.612-.234,1.71t-.234,1.6v.036H30.1A18.688,18.688,0,0,1,39.564-17.28ZM29.916-27.5q7.416.756,14.076.864a1.97,1.97,0,0,1,1.44.612,1.97,1.97,0,0,1,.612,1.44v1.656a1.97,1.97,0,0,1-.612,1.44,1.97,1.97,0,0,1-1.44.612q-7.848-.108-14.832-.864a1.855,1.855,0,0,1-1.35-.738,1.929,1.929,0,0,1-.414-1.494l.216-1.728a1.961,1.961,0,0,1,.792-1.35A2.115,2.115,0,0,1,29.916-27.5ZM-165.492,52.44a1.97,1.97,0,0,1,1.44.612,1.97,1.97,0,0,1,.612,1.44v1.476a1.97,1.97,0,0,1-.612,1.44,1.97,1.97,0,0,1-1.44.612h-10.764a.286.286,0,0,0-.324.324v3.2a1.97,1.97,0,0,1-.612,1.44,1.97,1.97,0,0,1-1.44.612h-2.736a1.97,1.97,0,0,1-1.44-.612,1.97,1.97,0,0,1-.612-1.44v-3.2a.286.286,0,0,0-.324-.324h-10.764a1.97,1.97,0,0,1-1.44-.612,1.97,1.97,0,0,1-.612-1.44V54.492a1.97,1.97,0,0,1,.612-1.44,1.97,1.97,0,0,1,1.44-.612h10.764a.286.286,0,0,0,.324-.324V50.784a.286.286,0,0,0-.324-.324h-8.6a1.97,1.97,0,0,1-1.44-.612,1.97,1.97,0,0,1-.612-1.44V33.252a1.97,1.97,0,0,1,.612-1.44,1.97,1.97,0,0,1,1.44-.612h24.7a1.97,1.97,0,0,1,1.44.612,1.97,1.97,0,0,1,.612,1.44V48.408a1.97,1.97,0,0,1-.612,1.44,1.97,1.97,0,0,1-1.44.612h-8.6a.286.286,0,0,0-.324.324v1.332a.286.286,0,0,0,.324.324Zm-22.248-15.7v1.512a.286.286,0,0,0,.324.324h14.832a.286.286,0,0,0,.324-.324V36.744a.286.286,0,0,0-.324-.324h-14.832A.286.286,0,0,0-187.74,36.744Zm.324,8.676h14.832a.286.286,0,0,0,.324-.324V43.584a.286.286,0,0,0-.324-.324h-14.832a.286.286,0,0,0-.324.324V45.1A.286.286,0,0,0-187.416,45.42Zm50.724,9.9h-1.3a1.97,1.97,0,0,1-1.44-.612,1.97,1.97,0,0,1-.612-1.44V34.332a1.97,1.97,0,0,1,.612-1.44,1.97,1.97,0,0,1,1.44-.612h1.3a1.97,1.97,0,0,1,1.44.612,1.97,1.97,0,0,1,.612,1.44V53.268a1.97,1.97,0,0,1-.612,1.44A1.97,1.97,0,0,1-136.692,55.32Zm6.84-24.48a1.97,1.97,0,0,1,1.44.612,1.97,1.97,0,0,1,.612,1.44V56.4q0,1.836-.054,2.88a9.713,9.713,0,0,1-.288,1.944,3.729,3.729,0,0,1-.54,1.3,2.391,2.391,0,0,1-1.008.684,4.763,4.763,0,0,1-1.494.342q-.792.054-2.2.054t-2.808-.072a2.177,2.177,0,0,1-1.494-.666,2.329,2.329,0,0,1-.7-1.494l-.072-1.476a1.831,1.831,0,0,1,.522-1.386,1.714,1.714,0,0,1,1.386-.558l1.908.072q.792,0,.936-.162a2.269,2.269,0,0,0,.144-1.1V32.892a1.97,1.97,0,0,1,.612-1.44,1.97,1.97,0,0,1,1.44-.612Zm-12.96,16.02a1.97,1.97,0,0,1,1.44.612,1.97,1.97,0,0,1,.612,1.44v.216a1.97,1.97,0,0,1-.612,1.44,1.97,1.97,0,0,1-1.44.612h-16.056a1.97,1.97,0,0,1-1.44-.612,1.97,1.97,0,0,1-.612-1.44v-.216a1.97,1.97,0,0,1,.612-1.44,1.97,1.97,0,0,1,1.44-.612h4.5q.288,0,.288-.324v-.288a.255.255,0,0,0-.288-.288h-3.564a1.685,1.685,0,0,1-1.206-.5,1.638,1.638,0,0,1-.522-1.224,1.625,1.625,0,0,1,.5-1.188,1.666,1.666,0,0,1,1.224-.5h3.564q.288,0,.288-.324v-.288a.255.255,0,0,0-.288-.288h-3.384a1.465,1.465,0,0,1-1.1-.468,1.554,1.554,0,0,1-.45-1.116V40.02a.159.159,0,0,0-.18-.18,1.209,1.209,0,0,1-.882-.378,1.209,1.209,0,0,1-.378-.882V34.152a1.97,1.97,0,0,1,.612-1.44,1.97,1.97,0,0,1,1.44-.612h4.32a.255.255,0,0,0,.288-.288,1.81,1.81,0,0,1,.54-1.332,1.81,1.81,0,0,1,1.332-.54h2.736a1.81,1.81,0,0,1,1.332.54,1.81,1.81,0,0,1,.54,1.332.255.255,0,0,0,.288.288h4.32a1.97,1.97,0,0,1,1.44.612,1.97,1.97,0,0,1,.612,1.44V38.58a1.209,1.209,0,0,1-.378.882,1.209,1.209,0,0,1-.882.378.159.159,0,0,0-.18.18v.036a1.554,1.554,0,0,1-.45,1.116,1.465,1.465,0,0,1-1.1.468h-3.348q-.324,0-.324.288v.288a.286.286,0,0,0,.324.324h3.564a1.638,1.638,0,0,1,1.206.486,1.638,1.638,0,0,1,.486,1.206,1.666,1.666,0,0,1-.5,1.224,1.625,1.625,0,0,1-1.188.5h-3.564q-.324,0-.324.288v.288a.286.286,0,0,0,.324.324Zm-10.728-9.324v-.288q0-.288-.324-.288h-1.008a.255.255,0,0,0-.288.288v.288q0,.324.288.324h1.008A.286.286,0,0,0-153.54,37.536Zm5.4,0a.286.286,0,0,0,.324.324h1.008q.288,0,.288-.324v-.288a.255.255,0,0,0-.288-.288h-1.008q-.324,0-.324.288Zm3.888,14.544a1.97,1.97,0,0,1,1.44.612,1.97,1.97,0,0,1,.612,1.44v7.236a1.97,1.97,0,0,1-.612,1.44,1.97,1.97,0,0,1-1.44.612h-3.132a.924.924,0,0,1-.648-.27.877.877,0,0,1-.288-.666.127.127,0,0,0-.144-.144h-4.752a.127.127,0,0,0-.144.144.877.877,0,0,1-.288.666.924.924,0,0,1-.648.27h-3.132a1.97,1.97,0,0,1-1.44-.612,1.97,1.97,0,0,1-.612-1.44V54.132a1.97,1.97,0,0,1,.612-1.44,1.97,1.97,0,0,1,1.44-.612ZM-148.32,57.7V56.688q0-.288-.324-.288h-4.428a.255.255,0,0,0-.288.288V57.7q0,.324.288.324h4.428A.286.286,0,0,0-148.32,57.7ZM-104.76,33a9.615,9.615,0,0,1,7.614,3.222q2.826,3.222,2.826,9.018,0,8.6-4.752,12.744t-15.192,4.5a1.865,1.865,0,0,1-1.458-.558,2.262,2.262,0,0,1-.666-1.458l-.144-2.016a1.935,1.935,0,0,1,.522-1.44,1.919,1.919,0,0,1,1.386-.648q7.452-.252,10.278-2.718t2.826-8.406q0-5.76-3.96-5.76a7.175,7.175,0,0,0-5.364,2.556,11.827,11.827,0,0,0-2.952,6.552,2.385,2.385,0,0,1-.72,1.458,2.043,2.043,0,0,1-1.476.594h-2.376a1.97,1.97,0,0,1-1.44-.612,1.97,1.97,0,0,1-.612-1.44V34.332a1.97,1.97,0,0,1,.612-1.44,1.97,1.97,0,0,1,1.44-.612h2.556a1.97,1.97,0,0,1,1.44.612,1.97,1.97,0,0,1,.612,1.44V37.32l.072-.036A11.7,11.7,0,0,1-104.76,33Zm46.548,11.16a1.97,1.97,0,0,1,1.44.612,1.97,1.97,0,0,1,.612,1.44v2.016a1.97,1.97,0,0,1-.612,1.44,1.97,1.97,0,0,1-1.44.612H-67.32a.352.352,0,0,0-.36.324,13.215,13.215,0,0,1-3.438,7.686,16.108,16.108,0,0,1-7.9,3.834,2.135,2.135,0,0,1-1.6-.27,2.359,2.359,0,0,1-1.026-1.278l-.684-2.052a1.777,1.777,0,0,1,.144-1.476,1.742,1.742,0,0,1,1.188-.9A10.339,10.339,0,0,0-76.716,54.2a6.531,6.531,0,0,0,1.944-3.6q.072-.324-.252-.324H-85.788a1.97,1.97,0,0,1-1.44-.612,1.97,1.97,0,0,1-.612-1.44V46.212a1.97,1.97,0,0,1,.612-1.44,1.97,1.97,0,0,1,1.44-.612h11.124a.286.286,0,0,0,.324-.324V40.308q0-.288-.324-.288-3.492.18-7.164.18a1.97,1.97,0,0,1-1.44-.612,1.97,1.97,0,0,1-.612-1.44V36.132a1.97,1.97,0,0,1,.612-1.44,1.97,1.97,0,0,1,1.44-.612,101.862,101.862,0,0,0,11.214-.558,42.411,42.411,0,0,0,7.83-1.638,2.125,2.125,0,0,1,1.584.108,1.848,1.848,0,0,1,1.008,1.152l.684,2.052a2.01,2.01,0,0,1-.108,1.62A1.958,1.958,0,0,1-60.8,37.86a36.2,36.2,0,0,1-6.228,1.476.34.34,0,0,0-.288.36v4.14A.286.286,0,0,0-67,44.16Zm35.424-8.28a1.97,1.97,0,0,1,1.44.612,1.97,1.97,0,0,1,.612,1.44v2.016a1.97,1.97,0,0,1-.612,1.44,1.97,1.97,0,0,1-1.44.612h-4.824a.286.286,0,0,0-.324.324q-.036,8.352-3.294,12.906T-41.436,61.4a2.135,2.135,0,0,1-1.6-.27,2.359,2.359,0,0,1-1.026-1.278l-.684-2.052a1.732,1.732,0,0,1,.144-1.458,1.753,1.753,0,0,1,1.188-.882q4.572-1.152,6.5-4.086t1.962-9.054A.286.286,0,0,0-35.28,42h-6.588a.463.463,0,0,0-.432.324,28.2,28.2,0,0,1-3.42,5.832,2.2,2.2,0,0,1-1.422.828,2.192,2.192,0,0,1-1.6-.324l-1.944-1.26a1.833,1.833,0,0,1-.846-1.242,1.89,1.89,0,0,1,.306-1.494A30.282,30.282,0,0,0-46.62,33.252a2.456,2.456,0,0,1,.846-1.422,2.165,2.165,0,0,1,1.53-.522l2.556.144a1.961,1.961,0,0,1,1.368.7,1.739,1.739,0,0,1,.432,1.422q-.216,1.368-.36,2.016-.072.288.252.288ZM10.26,39.012a2.224,2.224,0,0,1,1.458.684,1.92,1.92,0,0,1,.558,1.476q-.324,9.972-4.248,14.58T-4.68,61.512a2.14,2.14,0,0,1-1.566-.4,2.169,2.169,0,0,1-.882-1.368l-.288-1.44a1.85,1.85,0,0,1,.306-1.44,1.879,1.879,0,0,1,1.278-.792q6.624-1.008,9.324-4.3t2.952-10.89a1.981,1.981,0,0,1,.648-1.4,1.9,1.9,0,0,1,1.44-.54ZM-4.86,47.04a1.949,1.949,0,0,1-.234,1.566,1.91,1.91,0,0,1-1.242.918l-1.548.36a2.011,2.011,0,0,1-1.548-.27,1.923,1.923,0,0,1-.9-1.242q-.936-3.816-1.44-5.688a1.992,1.992,0,0,1,.216-1.566,1.849,1.849,0,0,1,1.224-.918l1.4-.324a1.9,1.9,0,0,1,1.548.234,2.219,2.219,0,0,1,.972,1.278Q-5.436,44.844-4.86,47.04Zm3.708-8.028a2.111,2.111,0,0,1,1.566.252,1.981,1.981,0,0,1,.954,1.224q1.152,4.32,1.548,5.832a1.949,1.949,0,0,1-.234,1.566A1.91,1.91,0,0,1,1.44,48.8l-1.548.36a2.057,2.057,0,0,1-1.548-.252,2,2,0,0,1-.936-1.224q-.072-.216-1.548-5.868a1.942,1.942,0,0,1,.216-1.548,1.861,1.861,0,0,1,1.224-.9Zm50.724,7.7a1.9,1.9,0,0,1,1.17,1.026,2.011,2.011,0,0,1,.09,1.6l-.864,2.592a1.91,1.91,0,0,1-1.008,1.17,1.965,1.965,0,0,1-1.584.09q-7.236-2.52-14.724-4.464a.151.151,0,0,0-.18.054.31.31,0,0,0-.072.2V60.108a2.091,2.091,0,0,1-2.052,2.052h-3.1A2.091,2.091,0,0,1,25.2,60.108V33.972a2.091,2.091,0,0,1,2.052-2.052h3.1A2.091,2.091,0,0,1,32.4,33.972v7.344a.362.362,0,0,0,.288.4Q41.652,43.944,49.572,46.716ZM76.1,36.6a.286.286,0,0,0-.324.324v1.908q0,.288.324.288H86.148A2.091,2.091,0,0,1,88.2,41.172V44.34a30.73,30.73,0,0,1-3.24,10.08.355.355,0,0,0,.072.468,20.5,20.5,0,0,0,3.024,2.34,2.069,2.069,0,0,1,.954,1.242A1.94,1.94,0,0,1,88.848,60l-.936,1.8a2.043,2.043,0,0,1-1.224,1.026,1.885,1.885,0,0,1-1.584-.162,20.4,20.4,0,0,1-4-2.988q-.216-.252-.432-.036a22.831,22.831,0,0,1-4.968,3.132,2.065,2.065,0,0,1-1.6.072,2.092,2.092,0,0,1-1.206-1.08l-.54-1.152q-.144-.216-.288,0-.576.972-.684,1.116a1.473,1.473,0,0,1-1.224.684,1.543,1.543,0,0,1-1.3-.54l-.108-.144a.243.243,0,0,0-.36.036,1.791,1.791,0,0,1-.756.576L67,62.7a1.984,1.984,0,0,1-1.548.09A1.911,1.911,0,0,1,64.3,61.764q-1.188-2.412-1.836-3.636a.171.171,0,0,0-.162-.054.168.168,0,0,0-.126.09,42.142,42.142,0,0,1-2.2,4.284,1.882,1.882,0,0,1-1.278.9,2,2,0,0,1-1.566-.288l-.864-.54a1.969,1.969,0,0,1-.882-1.26,1.9,1.9,0,0,1,.234-1.512,42.96,42.96,0,0,0,2.52-4.68.2.2,0,0,0-.018-.18q-.054-.108-.126-.108a1.844,1.844,0,0,1-1.836-1.836V33.072a2.091,2.091,0,0,1,2.052-2.052h8.5a2.091,2.091,0,0,1,2.052,2.052V52.728a2.091,2.091,0,0,1-2.052,2.052h-.324a.177.177,0,0,0-.162.09.12.12,0,0,0,.018.162l.972,1.728q.144.216.288,0a16.562,16.562,0,0,0,1.854-5.616,69.945,69.945,0,0,0,.486-9.684V33.252A2.091,2.091,0,0,1,71.892,31.2H87.048A2.091,2.091,0,0,1,89.1,33.252v1.3A2.091,2.091,0,0,1,87.048,36.6ZM61.74,36.2v1.332a.286.286,0,0,0,.324.324h1.188q.288,0,.288-.324V36.2q0-.324-.288-.324H62.064A.286.286,0,0,0,61.74,36.2Zm0,6.12v1.332a.286.286,0,0,0,.324.324h1.188q.288,0,.288-.324V42.324q0-.324-.288-.324H62.064A.286.286,0,0,0,61.74,42.324Zm0,6.12v1.332a.286.286,0,0,0,.324.324h1.188q.288,0,.288-.324V48.444q0-.324-.288-.324H62.064A.286.286,0,0,0,61.74,48.444Zm3.132,6.48a.122.122,0,0,0,.036-.09q0-.054-.072-.054H60.048q-.072,0-.072.036a.1.1,0,0,0,.036.072l2.34,1.044a.7.7,0,0,0,.54,0Zm11.988-.072a.34.34,0,0,0,.108-.5,27.013,27.013,0,0,1-1.4-2.772q-.036-.072-.09-.072t-.054.072A23.85,23.85,0,0,1,74.16,56.4a.106.106,0,0,0,.144.144A16.276,16.276,0,0,0,76.86,54.852ZM79.6,44.34a.257.257,0,0,0-.2.108.217.217,0,0,0-.054.216,23.76,23.76,0,0,0,1.476,4.284.117.117,0,0,0,.216,0,21.652,21.652,0,0,0,1.188-4.284q.072-.324-.252-.324Zm-3.492,0a.286.286,0,0,0-.324.324v.792a.173.173,0,0,0,.108.162.143.143,0,0,0,.18-.018l2.16-1.116a.122.122,0,0,0,.036-.09q0-.054-.072-.054ZM122.508,33a2.091,2.091,0,0,1,2.052,2.052v.756a2.091,2.091,0,0,1-2.052,2.052H111.744a.286.286,0,0,0-.324.324v.432a.286.286,0,0,0,.324.324h8.244a2.091,2.091,0,0,1,2.052,2.052v.4a2.091,2.091,0,0,1-2.052,2.052H96.012a2.091,2.091,0,0,1-2.052-2.052v-.4a2.091,2.091,0,0,1,2.052-2.052h8.244a.286.286,0,0,0,.324-.324v-.432a.286.286,0,0,0-.324-.324H93.492a2.091,2.091,0,0,1-2.052-2.052v-.756A2.091,2.091,0,0,1,93.492,33h10.764a.286.286,0,0,0,.324-.324v-.324a2.091,2.091,0,0,1,2.052-2.052h2.736a2.091,2.091,0,0,1,2.052,2.052v.324a.286.286,0,0,0,.324.324Zm-2.736,19.62a2.091,2.091,0,0,1-2.052-2.052V49.344a.286.286,0,0,0-.324-.324H98.568q-.288,0-.288.324v1.584a2.091,2.091,0,0,1-2.052,2.052H94.212a2.091,2.091,0,0,1-2.052-2.052V46.572a2.091,2.091,0,0,1,2.052-2.052h27.576a2.091,2.091,0,0,1,2.052,2.052v4a2.091,2.091,0,0,1-2.052,2.052Zm-14.508-2.34a1.828,1.828,0,0,1,1.368.738,1.692,1.692,0,0,1,.324,1.458A13.018,13.018,0,0,1,103.41,58.9a19.592,19.592,0,0,1-7.29,4.266,2.308,2.308,0,0,1-1.674-.054,2.464,2.464,0,0,1-1.278-1.134l-.936-1.8a1.687,1.687,0,0,1-.072-1.44A1.735,1.735,0,0,1,93.2,57.732a15.026,15.026,0,0,0,4.7-2.43,7.931,7.931,0,0,0,2.358-3.438,2.651,2.651,0,0,1,1.008-1.332,2.285,2.285,0,0,1,1.548-.432Zm17.28,3.6a2,2,0,0,1,1.386.72,2.054,2.054,0,0,1,.522,1.476q-.108,1.836-.252,2.934a6.347,6.347,0,0,1-.576,1.98,4.585,4.585,0,0,1-.846,1.278,3.272,3.272,0,0,1-1.476.648,10.548,10.548,0,0,1-2.052.288q-.99.036-2.97.036-2.268,0-3.492-.108a14.078,14.078,0,0,1-2.16-.342,1.871,1.871,0,0,1-1.278-.864,4.735,4.735,0,0,1-.486-1.422,13.817,13.817,0,0,1-.144-2.3V52.152a2.091,2.091,0,0,1,2.052-2.052h2.556a2.091,2.091,0,0,1,2.052,2.052V57.12q0,.5.2.612a3.844,3.844,0,0,0,1.242.108q.864,0,1.1-.342a5.38,5.38,0,0,0,.378-1.926,2.025,2.025,0,0,1,.7-1.386,1.871,1.871,0,0,1,1.458-.486ZM157.788,35.7a2.091,2.091,0,0,1,2.052,2.052V53.808a2.091,2.091,0,0,1-2.052,2.052h-2.7a1.537,1.537,0,0,1-1.548-1.548.223.223,0,0,0-.252-.252h-5.544a.286.286,0,0,0-.324.324v7.524a2.091,2.091,0,0,1-2.052,2.052h-2.736a2.091,2.091,0,0,1-2.052-2.052V54.384a.286.286,0,0,0-.324-.324h-5.544a.223.223,0,0,0-.252.252,1.537,1.537,0,0,1-1.548,1.548h-2.7a2.091,2.091,0,0,1-2.052-2.052V37.752a2.091,2.091,0,0,1,2.052-2.052h10.044a.286.286,0,0,0,.324-.324v-3.2a2.091,2.091,0,0,1,2.052-2.052h2.736a2.091,2.091,0,0,1,2.052,2.052v3.2a.286.286,0,0,0,.324.324Zm-23,12.96h5.472a.286.286,0,0,0,.324-.324V41.568q0-.288-.324-.288h-5.472q-.324,0-.324.288v6.768A.286.286,0,0,0,134.784,48.66Zm18.756-.324V41.568q0-.288-.324-.288h-5.472q-.324,0-.324.288v6.768a.286.286,0,0,0,.324.324h5.472A.286.286,0,0,0,153.54,48.336ZM182.3,33.72a1.855,1.855,0,0,1,1.4.612,1.9,1.9,0,0,1,.54,1.44l-.864,13.536a2.224,2.224,0,0,1-.684,1.458,2.043,2.043,0,0,1-1.476.594h-2.376a2.043,2.043,0,0,1-1.476-.594,2.224,2.224,0,0,1-.684-1.458l-.864-13.536a1.9,1.9,0,0,1,.54-1.44,1.855,1.855,0,0,1,1.4-.612Zm-.72,20.52a2.091,2.091,0,0,1,2.052,2.052v1.656A2.091,2.091,0,0,1,181.584,60h-3.1a2.091,2.091,0,0,1-2.052-2.052V56.292a2.091,2.091,0,0,1,2.052-2.052Z" transform="translate(960 2176.321)" fill="#000b4d"/>
  </g>
</svg>
