<svg xmlns="http://www.w3.org/2000/svg" width="1210.381" height="49.097" viewBox="0 0 1210.381 49.097">
  <g id="グループ_338" data-name="グループ 338" transform="translate(4550.934 -1796.74)">
    <path id="パス_347" data-name="パス 347" d="M37.128,36.939h10.3v7.3h-10.3V48.4h18.26v7.557H10.5V48.4H28.709V44.243H19.021v-7.3h9.688v-3.9H18.514V30.7A36.115,36.115,0,0,1,13.7,33.541a28.458,28.458,0,0,0-5.63-6.9c8.166-3.246,16.889-10.55,20.49-17.448l9.029,1.268c.355.051,1.014.2,1.014.812,0,.557-.71.912-1.116,1.116,1.674,2.535,9.029,9.231,20.288,13.44A24.858,24.858,0,0,0,53,33.236a42.04,42.04,0,0,1-5.022-2.384v2.182H37.128Zm3.094-11.057a65.53,65.53,0,0,1-8.014-6.949c-1.115,1.42-2.383,2.993-7.1,6.949Z" transform="translate(-4559 1788.56)" fill="#fff"/>
    <path id="パス_348" data-name="パス 348" d="M69.444,54.944v1.572H60.973v-45.6h45.344v45.6H97.9V54.944ZM97.9,17.969H69.443v29.57H97.9Zm-10.8,10.8h8.217v5.884H93.992A29.489,29.489,0,0,1,96.376,38.1,15.9,15.9,0,0,0,94.55,39.17h2.079v6.594H70.711V39.17H79.08V34.656H72.03V28.772h7.05V26.135H70.813V19.643H96.477v6.492H87.094Zm3.043,5.884H87.094V39.17h2.79A22.943,22.943,0,0,0,87.5,36.279Z" transform="translate(-4559 1788.56)" fill="#fff"/>
    <path id="パス_349" data-name="パス 349" d="M135.235,12.288c.862.2,1.116.355,1.116.761,0,.66-.863.964-1.268,1.065-.406,1.877-.711,3.449-1.268,5.63,5.477,0,11.513,1.37,11.513,13.746,0,7.963-2.688,16.484-5.833,19.476a9.362,9.362,0,0,1-6.34,2.181,37.256,37.256,0,0,1-5.833-.507c.051-.66.1-1.37.1-2.435a32.293,32.293,0,0,0-.761-7.1,12.315,12.315,0,0,0,4.463.913,3.266,3.266,0,0,0,3.044-1.623c2.282-3.8,2.232-10.549,2.232-11.006,0-4.565-1.117-5.478-4.769-5.326C127.931,40.641,122.91,49.923,119,55.1a42.365,42.365,0,0,0-8.571-4.362,65.877,65.877,0,0,0,11.97-21.3,45.51,45.51,0,0,0-8.014,2.739l-2.638-9.029c1.522-.3,3.044-.608,4.514-.912,2.79-.609,5.529-1.218,8.319-1.623A57.978,57.978,0,0,0,126,9.955Zm13.9,2.79c4.92,5.123,9.485,13.9,9.485,18.767,0,1.673,0,5.883-8.978,7.658a25.353,25.353,0,0,0-3.3-7.557c1.065-.2,3.145-.558,3.145-2.13,0-1.065-1.674-6.645-7.3-12.376Z" transform="translate(-4559 1788.56)" fill="#fff"/>
    <path id="パス_350" data-name="パス 350" d="M180.889,21.266c.456.153.76.355.76.761,0,.609-.355.66-1.217.913a35.485,35.485,0,0,0-3.2,8.268c2.992-2.435,8.876-4.717,14.607-4.717,7.3,0,13.441,4.97,13.441,12.781,0,5.478-3.145,16.332-25.512,16.332a35.8,35.8,0,0,1-4.869-.254,42.512,42.512,0,0,0-1.776-9.079,26.4,26.4,0,0,0,7.761.863c2.84,0,15.114,0,15.114-7.557,0-3.145-2.333-4.92-5.63-4.92-1.268,0-8.673,0-16.027,7.76l-7.811-2.587a137.557,137.557,0,0,1,5.478-21.4ZM178.1,9.347a62.378,62.378,0,0,1,17.4,5.985c-1.268,1.978-3.145,5.224-4.565,7.862A50.466,50.466,0,0,0,174.7,16.8Z" transform="translate(-4559 1788.56)" fill="#fff"/>
    <path id="パス_351" data-name="パス 351" d="M247.237,46.474c1.37.659,7.811,3.449,12.833,4.058a23.667,23.667,0,0,0-4.565,6.289,53.6,53.6,0,0,1-15.673-7.659v7.3h-8.014v-7.4a45.465,45.465,0,0,1-15.368,7.963,35.021,35.021,0,0,0-5.173-6.137,40.769,40.769,0,0,0,13.187-4.413H212.545V40.489h19.273V38.765h-13.8V25.932c-.608.558-1.065.964-1.825,1.573-2.892-3.5-3.348-4.058-5.326-5.377a41.77,41.77,0,0,0,10.4-12.933l8.217,1.521c.406.051.71.152.71.558,0,.761-.71.862-1.572.964a13.834,13.834,0,0,1-.812,1.369h4.869a24.356,24.356,0,0,0,1.978-4.26l8.674,1.014c.558.051.913.254.913.761,0,.71-.457.761-1.674.964-.2.3-.761,1.318-.913,1.521H256.62V19.44H240.339v1.674H253.78v4.514H240.339V27.3H253.78v4.514H240.339V33.49h17.093v5.275h-17.6v1.724h19.274v5.985ZM232.275,19.44h-6.441v1.674h6.441Zm0,6.188h-6.441V27.3h6.441Zm-6.442,7.862h6.441V31.816h-6.441Z" transform="translate(-4559 1788.56)" fill="#fff"/>
    <path id="パス_352" data-name="パス 352" d="M292.385,10.919c.3.05.964.1.964.71,0,.558-.559.811-1.015,1.065-.1,1.116-.152,1.724-.2,2.84,2.131.051,11.666.152,13.593.1V23.8c-2.181-.2-5.376-.406-13.745-.406-.051,1.775-.051,2.079,0,4.768a61.658,61.658,0,0,0,12.274-1.674L304.4,34.6a102.894,102.894,0,0,1-12.274,1.268c0,.71.152,3.753.152,4.413,5.833,1.42,11.92,3.854,15.673,6.34a88.543,88.543,0,0,0-5.326,7.2,44.525,44.525,0,0,0-10.4-5.985,6.733,6.733,0,0,1-1.978,5.123c-1.47,1.42-4.514,2.739-9.281,2.739-8.876,0-13.8-4.007-13.8-8.623,0-4.818,5.072-8.217,13.593-8.217h2.688c0-.3-.051-2.231-.051-2.688-5.681,0-6.34,0-8.419-.406-4.667-.963-6.138-2.789-6.138-4.97s1.116-3.8,2.942-5.884l6.644.913a4.249,4.249,0,0,0-1.065,1.979c0,1.014,1.928,1.065,2.384,1.065.1,0,3.094-.153,3.449-.2,0-3.4,0-3.754-.05-5.123a158.911,158.911,0,0,0-16.129,1.167V16.092c2.535-.152,13.745-.406,16.027-.507C283,13.81,282.9,11.527,282.7,9.7ZM280.161,45.1c-.862,0-4.007,0-4.007,1.623,0,1.167,1.725,1.725,3.7,1.725,3.55,0,3.6-1.522,3.6-2.993a14.563,14.563,0,0,0-3.3-.355" transform="translate(-4559 1788.56)" fill="#fff"/>
    <path id="パス_353" data-name="パス 353" d="M350.618,16.042a118.708,118.708,0,0,0-12.275,10.7,12.567,12.567,0,0,1,4.869-.812c8.572,0,14.659,5.833,14.659,13.644,0,9.282-8.37,16.18-19.426,16.18-4.007,0-13.188-1.268-13.188-8.978,0-5.629,5.377-8.115,9.789-8.115,4.819,0,9.637,2.79,11.057,6.746,2.08-1.014,2.841-3.6,2.841-5.427,0-1.37-.508-6.9-8.014-6.9-5.884,0-11.564,2.435-20.085,12.528l-6.34-7c7.05-5.072,16.687-14.658,19.375-18.157a84.762,84.762,0,0,1-12.528,1.623l-1.217-8.724c.963.05,2.029.1,3.7.1,5.072,0,15.216-.609,21.759-3.4ZM334.894,45.409c-1.623,0-1.826.964-1.826,1.42,0,1.775,2.688,2.181,4.109,2.181a9.548,9.548,0,0,0,2.13-.2,4.325,4.325,0,0,0-4.413-3.4" transform="translate(-4559 1788.56)" fill="#fff"/>
    <path id="パス_354" data-name="パス 354" d="M400.736,17.766a6.534,6.534,0,0,0,3.2-.71l5.022,3.8c-.508.913-.609,1.116-1.572,3.094-.508,1.116-2.892,6.9-3.4,8.014C396.323,49.314,384.2,55.451,380.7,57.277a37.639,37.639,0,0,0-7.354-6.847c14.81-5.985,20.593-17.651,23.18-24.244H383.846A70.968,70.968,0,0,1,373.2,38.257a38.355,38.355,0,0,0-7.253-6.137C374.92,24.613,380.7,15.484,382.528,9.6l8.774,3.652c.3.152.761.355.761.811,0,.711-1.015.863-1.42.913-.71,1.421-1.015,1.978-1.42,2.79Z" transform="translate(-4559 1788.56)" fill="#fff"/>
    <path id="パス_355" data-name="パス 355" d="M451.006,24.208a15.218,15.218,0,0,0,4.26-.457l5.123,3.754c-.862,1.521-4.26,8.368-5.021,9.738a42.857,42.857,0,0,1-22.317,19.476,38.306,38.306,0,0,0-6.29-7.405c4.565-1.673,15.521-5.63,20.593-16.687H418.038V24.208Zm3.4-4.261H424.023V11.832H454.4Z" transform="translate(-4559 1788.56)" fill="#fff"/>
    <path id="パス_356" data-name="パス 356" d="M501.783,12.694a8.738,8.738,0,0,0,3.5-.457l6.492,4.565a10.493,10.493,0,0,0-1.623,3.3c-5.275,14.151-9.688,25.31-29.164,35.5a49.033,49.033,0,0,0-7.05-7.557c17.853-6.847,22.976-18.969,25.614-26.577H469.474V12.694Z" transform="translate(-4559 1788.56)" fill="#fff"/>
    <path id="パス_357" data-name="パス 357" d="M541.807,22.94c5.782,2.688,13.8,7.253,18.361,11.463-1.369,1.978-4.159,6.289-5.377,8.166a67.553,67.553,0,0,0-15.57-10.652V55.756h-9.789V10.463l9.636.3c.66,0,1.167,0,1.167.609,0,.507-.609.862-1.014,1.065V27.048Z" transform="translate(-4559 1788.56)" fill="#fff"/>
    <path id="パス_358" data-name="パス 358" d="M609.88,24.461a1.341,1.341,0,0,1,.609.964.819.819,0,0,1-.913.71,4.587,4.587,0,0,1-1.319-.254c-8.876,5.377-20.085,8.268-25.664,9.181v7.05c0,3.652,1.319,3.652,8.419,3.652,4.971,0,15.572-.254,20.136-1.015a55.83,55.83,0,0,0-1.42,9.333c-3.2.1-6.8.2-10.042.2-17.8,0-18.767-.305-20.542-.812-4.261-1.217-6.289-3.55-6.289-10.4V11.223l9.839.558c.66.051,1.167.051,1.167.66s-.659.913-1.268,1.217V26.439c8.774-1.927,16.332-5.325,19.578-8.267Zm-4.159-12.375A46.265,46.265,0,0,1,611,17.208c-.2.2-3.043,2.891-3.4,3.3a58.921,58.921,0,0,0-5.326-5.123Zm4.717-3.906a51.914,51.914,0,0,1,5.072,4.971,31.873,31.873,0,0,0-3.449,3.347,38.121,38.121,0,0,0-5.173-5.021Z" transform="translate(-4559 1788.56)" fill="#fff"/>
    <rect id="長方形_182" data-name="長方形 182" width="44.126" height="9.13" transform="translate(-3939.527 1817.231)" fill="#fff"/>
    <path id="パス_359" data-name="パス 359" d="M686.836,13.506c.76.051,1.268.1,1.268.71s-.558.863-1.116,1.065v11.26a33.99,33.99,0,0,1-11.869,26.375,28.322,28.322,0,0,0-7.456-6.138,26.907,26.907,0,0,0,7.609-8.926c2.079-4.159,2.18-10.3,2.18-11.665V13.1ZM700.175,13c.558.051,1.116.051,1.116.659,0,.406-.2.558-1.116,1.167V38.613c4.514-3.246,9.079-8.673,12.122-13.187a31.463,31.463,0,0,0,4.717,8.267c-4.818,7.4-12.933,13.644-17.4,17.092a36.107,36.107,0,0,0-2.739,2.537l-6.34-4.058a26.58,26.58,0,0,0,.254-3.195V12.543Z" transform="translate(-4559 1788.56)" fill="#fff"/>
    <path id="パス_360" data-name="パス 360" d="M732.846,52.459V26.693h-7.66V19.288c5.731-.862,8.116-2.536,9.84-7.608h8.318V52.459Z" transform="translate(-4559 1788.56)" fill="#fff"/>
    <path id="パス_361" data-name="パス 361" d="M787.17,14.825c5.325,5.63,5.478,15.419,5.478,17.65,0,7.456-2.029,21.1-17.144,21.1-13.44,0-17.193-10.448-17.193-22.165,0-6.593,1.774-20.846,17.193-20.846,1.979,0,7.912.305,11.666,4.261M775.5,19.136c-5.478,0-6.645,6.9-6.645,12.934,0,5.985,1.167,12.984,6.645,12.984S782.1,38,782.1,32.07c0-6.188-1.217-12.934-6.594-12.934" transform="translate(-4559 1788.56)" fill="#fff"/>
    <path id="パス_362" data-name="パス 362" d="M825.671,14.825c5.325,5.63,5.478,15.419,5.478,17.65,0,7.456-2.029,21.1-17.144,21.1-13.44,0-17.194-10.448-17.194-22.165,0-6.593,1.775-20.846,17.194-20.846,1.979,0,7.913.305,11.666,4.261m-11.666,4.311c-5.478,0-6.645,6.9-6.645,12.934,0,5.985,1.167,12.984,6.645,12.984S820.6,38,820.6,32.07c0-6.188-1.217-12.934-6.594-12.934" transform="translate(-4559 1788.56)" fill="#fff"/>
    <path id="パス_363" data-name="パス 363" d="M854.637,38a25.054,25.054,0,0,0-3.449,6.086c-.71-.913-1.218-1.572-2.333-3.246V56.567h-7.963V43.989a31.657,31.657,0,0,1-2.536,4.615,38.5,38.5,0,0,0-4.869-6.847,36.874,36.874,0,0,0,7.049-12.731h-5.325v-7.3h5.681V19.186a31.266,31.266,0,0,1-3.6.406c-1.167-3.449-1.674-4.666-3.246-6.695A47.064,47.064,0,0,0,850.63,9.55l3.9,5.782a1.73,1.73,0,0,1,.406,1.014c0,.3-.253.507-.761.507a2.883,2.883,0,0,1-1.268-.405c-1.065.3-1.826.558-4.057,1.115v4.16h4.412V18.578h9.941V17.259a60.79,60.79,0,0,1-6.846.2,23.486,23.486,0,0,0-2.486-6.391c.863.051,1.876.1,3.3.1a80.433,80.433,0,0,0,18.565-2.029l3.753,5.681a1.232,1.232,0,0,1,.253.76c0,.355-.2.609-.71.609a2.079,2.079,0,0,1-1.319-.558c-2.231.406-4.261.71-6.543.964v1.978h10.6v6.188h-10.6v1.623H880.4V41.351h-9.232v1.42h9.485v5.275h-9.485v1.522h10.8V55.6H851.7V49.568h11.513V48.046h-9.18V42.771h9.18v-1.42h-8.571Zm0-11.615h8.571V24.766h-9.84v4.26h-4.513v.71a40.7,40.7,0,0,0,5.782,7.406Zm6.543,5.833h2.231V30.6H861.18Zm2.231,3.144H861.18v1.927h2.231Zm7.659-3.144H873.4V30.6H871.07Zm2.333,3.144H871.07v1.927H873.4Z" transform="translate(-4559 1788.56)" fill="#fff"/>
    <path id="パス_364" data-name="パス 364" d="M908.761,14.469a27.471,27.471,0,0,1-2.586,4.362h2.384v5.935h-4.464a19.231,19.231,0,0,0,5.63,3.6,22.061,22.061,0,0,0-4.463,4.869,27.593,27.593,0,0,1-4.565-4.362v4.26h-6.746V29.077a31.542,31.542,0,0,1-5.072,5.427,28.9,28.9,0,0,0-4.767-4.565,28.646,28.646,0,0,0,6.339-5.173h-4.462V18.831h2.738a50.975,50.975,0,0,0-3.753-5.934l5.376-3.246a31.661,31.661,0,0,1,3.6,5.174V9.55L900.8,9.8c.659,0,.964.1.964.507,0,.457-.405.761-1.065,1.116v4.311a28.782,28.782,0,0,0,2.688-5.528l5.376,1.826V10.868H932.8v6.746h-8.42c-.4.862-.913,1.826-1.064,2.08h8.52V46.778h-5.376a27.851,27.851,0,0,0,7.608,4.413,22.569,22.569,0,0,0-4.971,5.833,35.235,35.235,0,0,1-9.383-6.848,37.376,37.376,0,0,1-8.064,6.493,23.762,23.762,0,0,0-4.768-4.514,23.156,23.156,0,0,0-3.348,3.854,25.143,25.143,0,0,1-5.934-6.035c-1.876,2.891-3.652,4.565-7.1,7.05a24.508,24.508,0,0,0-6.289-4.92,15.541,15.541,0,0,0,8.115-8.369h-6.339V37.142h7.353v-3.5l7.71.456c.812.051,1.167.051,1.167.558,0,.3-.457.558-1.269,1.116v1.37h7.609v6.593h-7.153a33.164,33.164,0,0,0,7.507,6.086,27.3,27.3,0,0,0,3.855-3.043h-2.84V19.694h5.225a19.92,19.92,0,0,0,.912-2.08h-7.3ZM893.951,16.9a22.573,22.573,0,0,0-3.3,1.927h3.3Zm6.746,1.927h3.3c-1.825-.913-2.536-1.217-3.3-1.572ZM922.76,46.778h-5.376l2.738,2.029Zm1.369-21.251h-6.593v2.029h6.593ZM917.536,34.2h6.593V32.07h-6.593Zm0,6.644h6.593V38.663h-6.593Z" transform="translate(-4559 1788.56)" fill="#fff"/>
    <path id="パス_365" data-name="パス 365" d="M959.945,11.984c.507.1.964.254.964.812,0,.659-.71.811-1.015.811-.507,2.333-.811,3.652-1.369,5.985,6.492,0,11.665,2.384,11.665,14.81,0,.609,0,11.92-4.361,17.651-1.37,1.826-3.4,3.246-8.116,3.246a15.426,15.426,0,0,1-4.818-.507,43.577,43.577,0,0,0-.964-9.383,20.046,20.046,0,0,0,4.666.811,2.819,2.819,0,0,0,2.638-1.319c1.927-3.347,2.079-9.941,2.079-10.8,0-5.579-1.369-6.137-5.021-6.086a97.962,97.962,0,0,1-11.919,27.439,38.34,38.34,0,0,0-8.268-4.717,84.994,84.994,0,0,0,11.007-21.1,44.464,44.464,0,0,0-7.4,2.739l-2.638-9.181c3.348-.558,3.753-.608,4.615-.811,1.015-.2,6.543-1.42,7.71-1.674a58.51,58.51,0,0,0,1.268-10.8Zm15.216,7.05a46.564,46.564,0,0,0-4.058-5.123l4.058-2.586a34.09,34.09,0,0,1,4.514,5.63c-1.573.963-2.232,1.369-4.007,2.637,1.927,2.08,8.47,10.8,8.47,16.18,0,3.246-1.521,6.188-8.977,7.608a33.654,33.654,0,0,0-3.246-7.709c1.42-.1,2.891-.457,2.891-1.928,0-1.927-1.978-6.289-6.138-11.412Zm5.528-10.5a29.51,29.51,0,0,1,4.464,5.579c-.356.254-.508.355-2.08,1.421-.355.2-1.42.913-2.079,1.42a27.578,27.578,0,0,0-4.413-5.985Z" transform="translate(-4559 1788.56)" fill="#fff"/>
    <path id="パス_366" data-name="パス 366" d="M989.419,25.476l-.152.1a17.518,17.518,0,0,0-3.855-6.441,34.5,34.5,0,0,0,10.6-10.4l8.166,1.115c.4.051.862.254.862.71a.88.88,0,0,1-.558.812,40.029,40.029,0,0,0,7.608,5.224,26.8,26.8,0,0,0-4.21,5.579h1.877v2.384a54.567,54.567,0,0,0,5.021-15.469L1023,10.463c.405.051.863.1.863.659,0,.66-.661.863-1.269,1.015-.2,1.014-.456,2.13-.862,3.7h10.905l2.485,2.536a99.675,99.675,0,0,1-3.6,15.47,24.165,24.165,0,0,0-6.442-2.435c-.05.558-.05.964-.2,2.08,1.826,6.847,5.986,12.579,11.007,17.448a30.21,30.21,0,0,0-6.289,6.137,36.1,36.1,0,0,1-7.71-12.173,34.8,34.8,0,0,1-9.079,12.173,15.943,15.943,0,0,0-3.8-3.5,35.794,35.794,0,0,0-4.311,1.674,30.125,30.125,0,0,0-.913-3.043,107.139,107.139,0,0,1-13.8,3.7c-.152.406-.456,1.065-.963,1.065-.3,0-.61-.152-.762-.811l-2.079-7.811a27.438,27.438,0,0,0,3.246-.457Zm7.2-3.3V19.643c-1.623,1.522-2.231,2.08-2.789,2.536Zm.406,7.05h5.274V27.353h-5.274Zm5.275,4.413h-5.274v2.029h5.274Zm-5.275,13.187c1.319-.3,2.79-.659,4.311-1.116a28.168,28.168,0,0,0-1.825-3.144l3.3-1.42h-5.783Zm5.376-27.845c-1.014-.964-2.383-2.384-2.637-2.688-.406.456-.913,1.065-2.333,2.536Zm4.109,3.2a25.772,25.772,0,0,1-2.891-2.13,2.8,2.8,0,0,1-.406.3v1.826Zm3.246,18.97h-3.145a39.183,39.183,0,0,1,3.753,6.8,19.55,19.55,0,0,0,6.29-11.209c.406-1.927.406-2.638.609-8.927-1.218,2.536-2.182,4.21-2.892,5.427a17.255,17.255,0,0,0-4.615-2.84Zm15.622-15.47a2.468,2.468,0,0,1,.659.051c.153-.558.507-2.131.609-2.536h-7.355c-.456,1.116-.71,1.673-.964,2.333Z" transform="translate(-4559 1788.56)" fill="#fff"/>
    <path id="パス_367" data-name="パス 367" d="M1081.584,24.461c.558.2.812.3.812.761,0,.71-.863.913-1.117,1.014a62.705,62.705,0,0,1-2.18,9.485,44.658,44.658,0,0,1,6.746,4.413,75.8,75.8,0,0,0-5.072,8.267,39.365,39.365,0,0,0-5.225-4.159c-1.115,1.877-5.071,8.724-10.955,12.528a38.273,38.273,0,0,0-7.3-5.985c3.8-1.319,8.572-6.644,10.855-10.854a53.441,53.441,0,0,0-7.964-3.246c-4.209,9.991-8.065,15.571-13.694,15.571-4.413,0-8.47-3.7-8.47-9.231,0-8.014,7.506-14.963,17.143-14.608,1.065-2.536,1.166-2.789,2.942-7.811a68.206,68.206,0,0,1-10.753,1.928l-1.776-9.282c5.783.2,13.442-.406,19.224-2.841l5.579,4.616a78.411,78.411,0,0,0-6.9,14.151,44.533,44.533,0,0,1,7.71,2.638,52.434,52.434,0,0,0,1.369-10.8Zm-35.91,18.513c0,.456.152,1.319.913,1.319,1.471,0,4.464-6.34,4.92-7.659-1.674.051-5.833,2.688-5.833,6.34" transform="translate(-4559 1788.56)" fill="#fff"/>
    <path id="パス_368" data-name="パス 368" d="M1133.883,24.056c-.405,5.123-1.674,11.057-6.238,18.868a30.854,30.854,0,0,0,8.469,6.644c-2.738,2.232-4.615,4.514-5.426,7.253a33.763,33.763,0,0,1-8.065-7.05,45.977,45.977,0,0,1-9.028,6.9,16.512,16.512,0,0,0-4.565-5.275c-1.521,4.058-4.97,4.768-10.093,5.021a17.4,17.4,0,0,0-1.522-6.187,30.5,30.5,0,0,1-2.992,6.035,20.192,20.192,0,0,0-7.151-4.412c5.477-8.065,5.73-18.057,5.984-28.454h-4.412v-7.3h7.151V9.449l8.724.3c.456,0,1.116,0,1.116.761,0,.608-.558.913-1.116,1.166v4.413h7.3v4.768a39.306,39.306,0,0,0,3.753-11.869l8.572,1.978c.507.1.913.3.913.761,0,.659-.609.812-1.472,1.065-.4,1.319-.659,2.13-1.166,3.551h12.985v7.709ZM1101.017,34a60.927,60.927,0,0,1-2.74,13.8,12.649,12.649,0,0,0,1.674.152c1.674,0,2.993-.71,3.145-13.948Zm.354-10.6-.051,3.246h7.2A30.253,30.253,0,0,0,1110.7,23.4Zm12.934,9.282c-.3.4-.456.608-1.065,1.369a16.284,16.284,0,0,0-2.283-2.181c-.456,11.158-.557,14.2-1.267,17.245a31.322,31.322,0,0,0,8.115-6.442,50.066,50.066,0,0,1-3.5-9.991m5.326-8.623a41.925,41.925,0,0,0,3.094,10.854,34.956,34.956,0,0,0,2.941-10.854Z" transform="translate(-4559 1788.56)" fill="#fff"/>
    <path id="パス_369" data-name="パス 369" d="M1164.118,42.061V18.781h4.515c.507-1.218.558-1.37.761-1.978h-6.9V10.818h23.89V16.8h-9.333c-.151.456-.608,1.521-.812,1.978h8.927v23.28h-4.209a26.506,26.506,0,0,0,6.086,3.145,20.855,20.855,0,0,0-3.246,3.753c.964-.1,1.775-.152,3.905-.3-.76,1.217-1.775,2.992-2.434,7.456-3.7.2-21,.051-24.65-.2-5.173-.305-9.485-1.522-13.745-5.732a44.742,44.742,0,0,1-2.232,6.594,26.9,26.9,0,0,0-6.543-2.84,32.724,32.724,0,0,0,3.348-16.028l6.543.71c.406.051.963.1.963.761,0,.507-.608.71-1.116.862-.1,1.065-.151,1.573-.2,2.334a15.7,15.7,0,0,0,1.876,1.876V36.533h-9.991V30.5h23.28v6.036h-6.087v2.333h5.58V44.8h-5.58v3.7a35.235,35.235,0,0,0,8.369.811,20.26,20.26,0,0,0-4.21-3.347,37.679,37.679,0,0,0,6.087-3.906Zm-2.839-12.984h-20.8V10.818h20.8Zm-7.2-12.832h-6.34V18.02h6.34Zm-6.339,7.811h6.34V22.331h-6.34ZM1173.7,43.989a.836.836,0,0,1,.456.76c0,.609-.71.609-1.623.609a59.585,59.585,0,0,1-5.123,4.007c3.5.051,10.5-.152,13.391-.254a33.921,33.921,0,0,1-6.189-4.818l2.435-2.232h-6.035Zm4.007-20.187h-6.188v1.623h6.188Zm-6.188,7.354h6.188V29.533h-6.188Zm0,5.732h6.188V35.265h-6.188Z" transform="translate(-4559 1788.56)" fill="#fff"/>
    <path id="パス_370" data-name="パス 370" d="M1218.447,11.68V23.4l-2.081,15.013h-5.376L1208.911,23.4V11.68Zm-9.435,31.5h9.333v9.282h-9.333Z" transform="translate(-4559 1788.56)" fill="#fff"/>
  </g>
</svg>
