<?xml version="1.0" encoding="UTF-8" standalone="no"?>
<!DOCTYPE svg PUBLIC "-//W3C//DTD SVG 1.1//EN" "http://www.w3.org/Graphics/SVG/1.1/DTD/svg11.dtd">
<svg width="100%" height="100%" viewBox="0 0 1211 50" version="1.1" xmlns="http://www.w3.org/2000/svg" xmlns:xlink="http://www.w3.org/1999/xlink" xml:space="preserve" xmlns:serif="http://www.serif.com/" style="fill-rule:evenodd;clip-rule:evenodd;stroke-linejoin:round;stroke-miterlimit:2;">
    <g id="グループ_338" transform="matrix(1,0,0,1,4550.934,-1796.74)">
        <g id="パス_347" transform="matrix(1,0,0,1,-4559,1788.56)">
            <path d="M37.128,36.939L47.428,36.939L47.428,44.239L37.128,44.239L37.128,48.4L55.388,48.4L55.388,55.957L10.5,55.957L10.5,48.4L28.709,48.4L28.709,44.243L19.021,44.243L19.021,36.943L28.709,36.943L28.709,33.043L18.514,33.043L18.514,30.7C16.985,31.77 15.376,32.72 13.7,33.541C12.197,30.96 10.297,28.631 8.07,26.641C16.236,23.395 24.959,16.091 28.56,9.193L37.589,10.461C37.944,10.512 38.603,10.661 38.603,11.273C38.603,11.83 37.893,12.185 37.487,12.389C39.161,14.924 46.516,21.62 57.775,25.829C55.755,27.994 54.138,30.502 53,33.236C51.275,32.553 49.598,31.757 47.978,30.852L47.978,33.034L37.128,33.034L37.128,36.939ZM40.222,25.882C37.367,23.786 34.687,21.462 32.208,18.933C31.093,20.353 29.825,21.926 25.108,25.882L40.222,25.882Z" style="fill:white;fill-rule:nonzero;"/>
        </g>
        <g id="パス_348" transform="matrix(1,0,0,1,-4559,1788.56)">
            <path d="M69.444,54.944L69.444,56.516L60.973,56.516L60.973,10.916L106.317,10.916L106.317,56.516L97.9,56.516L97.9,54.944L69.444,54.944ZM97.9,17.969L69.443,17.969L69.443,47.539L97.9,47.539L97.9,17.969ZM87.1,28.769L95.317,28.769L95.317,34.653L93.992,34.653C94.867,35.744 95.664,36.896 96.376,38.1C95.744,38.416 95.134,38.773 94.55,39.17L96.629,39.17L96.629,45.764L70.711,45.764L70.711,39.17L79.08,39.17L79.08,34.656L72.03,34.656L72.03,28.772L79.08,28.772L79.08,26.135L70.813,26.135L70.813,19.643L96.477,19.643L96.477,26.135L87.094,26.135L87.1,28.769ZM90.143,34.653L87.094,34.653L87.094,39.17L89.884,39.17C89.169,38.143 88.372,37.176 87.5,36.279L90.143,34.653Z" style="fill:white;fill-rule:nonzero;"/>
        </g>
        <g id="パス_349" transform="matrix(1,0,0,1,-4559,1788.56)">
            <path d="M135.235,12.288C136.097,12.488 136.351,12.643 136.351,13.049C136.351,13.709 135.488,14.013 135.083,14.114C134.677,15.991 134.372,17.563 133.815,19.744C139.292,19.744 145.328,21.114 145.328,33.49C145.328,41.453 142.64,49.974 139.495,52.966C137.724,54.45 135.464,55.228 133.155,55.147C131.2,55.131 129.25,54.962 127.322,54.64C127.373,53.98 127.422,53.27 127.422,52.205C127.432,49.817 127.176,47.436 126.661,45.105C128.079,45.684 129.593,45.994 131.124,46.018C132.363,46.101 133.546,45.47 134.168,44.395C136.45,40.595 136.4,33.846 136.4,33.389C136.4,28.824 135.283,27.911 131.631,28.063C127.931,40.641 122.91,49.923 119,55.1C116.318,53.325 113.442,51.862 110.429,50.738C115.712,44.447 119.772,37.222 122.399,29.438C119.648,30.1 116.965,31.017 114.385,32.177L111.747,23.148C113.269,22.848 114.791,22.54 116.261,22.236C119.051,21.627 121.79,21.018 124.58,20.613C125.382,17.112 125.858,13.544 126,9.955L135.235,12.288ZM149.135,15.078C154.055,20.201 158.62,28.978 158.62,33.845C158.62,35.518 158.62,39.728 149.642,41.503C148.962,38.821 147.847,36.268 146.342,33.946C147.407,33.746 149.487,33.388 149.487,31.816C149.487,30.751 147.813,25.171 142.187,19.44L149.135,15.078Z" style="fill:white;fill-rule:nonzero;"/>
        </g>
        <g id="パス_350" transform="matrix(1,0,0,1,-4559,1788.56)">
            <path d="M180.889,21.266C181.345,21.419 181.649,21.621 181.649,22.027C181.649,22.636 181.294,22.687 180.432,22.94C179.024,25.551 177.949,28.329 177.232,31.208C180.224,28.773 186.108,26.491 191.839,26.491C199.139,26.491 205.28,31.461 205.28,39.272C205.28,44.75 202.135,55.604 179.768,55.604C178.141,55.63 176.514,55.545 174.899,55.35C174.639,52.268 174.043,49.224 173.123,46.271C175.653,46.942 178.269,47.233 180.884,47.134C183.724,47.134 195.998,47.134 195.998,39.577C195.998,36.432 193.665,34.657 190.368,34.657C189.1,34.657 181.695,34.657 174.341,42.417L166.53,39.83C167.779,32.561 169.611,25.405 172.008,18.43L180.889,21.266ZM178.1,9.347C184.164,10.471 190.028,12.488 195.5,15.332C194.232,17.31 192.355,20.556 190.935,23.194C185.936,20.136 180.442,17.973 174.7,16.8L178.1,9.347Z" style="fill:white;fill-rule:nonzero;"/>
        </g>
        <g id="パス_351" transform="matrix(1,0,0,1,-4559,1788.56)">
            <path d="M247.237,46.474C248.607,47.133 255.048,49.923 260.07,50.532C258.212,52.362 256.67,54.487 255.505,56.821C249.898,55.141 244.603,52.554 239.832,49.162L239.832,56.462L231.818,56.462L231.818,49.062C227.253,52.676 222.035,55.379 216.45,57.025C214.967,54.788 213.231,52.729 211.277,50.888C215.893,50.183 220.354,48.69 224.464,46.475L212.545,46.475L212.545,40.489L231.818,40.489L231.818,38.765L218.018,38.765L218.018,25.932C217.41,26.49 216.953,26.896 216.193,27.505C213.301,24.005 212.845,23.447 210.867,22.128C215.164,18.556 218.7,14.158 221.267,9.195L229.484,10.716C229.89,10.767 230.194,10.868 230.194,11.274C230.194,12.035 229.484,12.136 228.622,12.238C228.378,12.71 228.107,13.167 227.81,13.607L232.679,13.607C233.474,12.254 234.136,10.827 234.657,9.347L243.331,10.361C243.889,10.412 244.244,10.615 244.244,11.122C244.244,11.832 243.787,11.883 242.57,12.086C242.37,12.386 241.809,13.404 241.657,13.607L256.62,13.607L256.62,19.44L240.339,19.44L240.339,21.114L253.78,21.114L253.78,25.628L240.339,25.628L240.339,27.3L253.78,27.3L253.78,31.814L240.339,31.814L240.339,33.49L257.432,33.49L257.432,38.765L239.832,38.765L239.832,40.489L259.106,40.489L259.106,46.474L247.237,46.474ZM232.275,19.44L225.834,19.44L225.834,21.114L232.275,21.114L232.275,19.44ZM232.275,25.628L225.834,25.628L225.834,27.3L232.275,27.3L232.275,25.628ZM225.833,33.49L232.274,33.49L232.274,31.816L225.833,31.816L225.833,33.49Z" style="fill:white;fill-rule:nonzero;"/>
        </g>
        <g id="パス_352" transform="matrix(1,0,0,1,-4559,1788.56)">
            <path d="M292.385,10.919C292.685,10.969 293.349,11.019 293.349,11.629C293.349,12.187 292.79,12.44 292.334,12.694C292.234,13.81 292.182,14.418 292.134,15.534C294.265,15.585 303.8,15.686 305.727,15.634L305.727,23.8C303.546,23.6 300.351,23.394 291.982,23.394C291.931,25.169 291.931,25.473 291.982,28.162C296.119,28.017 300.231,27.457 304.256,26.488L304.4,34.6C300.338,35.268 296.239,35.691 292.126,35.868C292.126,36.578 292.278,39.621 292.278,40.281C298.111,41.701 304.198,44.135 307.951,46.621C306.055,48.93 304.278,51.333 302.625,53.821C299.444,51.366 295.946,49.353 292.225,47.836C292.324,49.746 291.604,51.611 290.247,52.959C288.777,54.379 285.733,55.698 280.966,55.698C272.09,55.698 267.166,51.691 267.166,47.075C267.166,42.257 272.238,38.858 280.759,38.858L283.447,38.858C283.447,38.558 283.396,36.627 283.396,36.17C277.715,36.17 277.056,36.17 274.977,35.764C270.31,34.801 268.839,32.975 268.839,30.794C268.839,28.613 269.955,26.994 271.781,24.91L278.425,25.823C277.899,26.375 277.531,27.059 277.36,27.802C277.36,28.816 279.288,28.867 279.744,28.867C279.844,28.867 282.838,28.714 283.193,28.667C283.193,25.267 283.193,24.913 283.143,23.544C277.75,23.659 272.367,24.049 267.014,24.711L267.014,16.092C269.549,15.94 280.759,15.686 283.041,15.585C283,13.81 282.9,11.527 282.7,9.7L292.385,10.919ZM280.161,45.1C279.299,45.1 276.154,45.1 276.154,46.723C276.154,47.89 277.879,48.448 279.854,48.448C283.404,48.448 283.454,46.926 283.454,45.455C282.371,45.211 281.264,45.092 280.154,45.1" style="fill:white;fill-rule:nonzero;"/>
        </g>
        <g id="パス_353" transform="matrix(1,0,0,1,-4559,1788.56)">
            <path d="M350.618,16.042C346.286,19.323 342.185,22.899 338.343,26.742C339.896,26.152 341.551,25.876 343.212,25.93C351.784,25.93 357.871,31.763 357.871,39.574C357.871,48.856 349.501,55.754 338.445,55.754C334.438,55.754 325.257,54.486 325.257,46.776C325.257,41.147 330.634,38.661 335.046,38.661C339.865,38.661 344.683,41.451 346.103,45.407C348.183,44.393 348.944,41.807 348.944,39.98C348.944,38.61 348.436,33.08 340.93,33.08C335.046,33.08 329.366,35.515 320.845,45.608L314.505,38.608C321.555,33.536 331.192,23.95 333.88,20.451C329.75,21.303 325.563,21.845 321.352,22.074L320.135,13.35C321.098,13.4 322.164,13.45 323.835,13.45C328.907,13.45 339.051,12.841 345.594,10.05L350.618,16.042ZM334.894,45.409C333.271,45.409 333.068,46.373 333.068,46.829C333.068,48.604 335.756,49.01 337.177,49.01C337.892,49.023 338.607,48.956 339.307,48.81C338.861,46.763 336.988,45.319 334.894,45.41" style="fill:white;fill-rule:nonzero;"/>
        </g>
        <g id="パス_354" transform="matrix(1,0,0,1,-4559,1788.56)">
            <path d="M400.736,17.766C401.846,17.805 402.947,17.561 403.936,17.056L408.958,20.856C408.45,21.769 408.349,21.972 407.386,23.95C406.878,25.066 404.494,30.85 403.986,31.964C396.323,49.314 384.2,55.451 380.7,57.277C378.566,54.676 376.092,52.373 373.346,50.43C388.156,44.445 393.939,32.779 396.526,26.186L383.846,26.186C380.767,30.6 377.195,34.65 373.2,38.257C371.046,35.919 368.61,33.857 365.947,32.12C374.92,24.613 380.7,15.484 382.528,9.6L391.302,13.252C391.602,13.404 392.063,13.607 392.063,14.063C392.063,14.774 391.048,14.926 390.643,14.976C389.933,16.397 389.628,16.954 389.223,17.766L400.736,17.766Z" style="fill:white;fill-rule:nonzero;"/>
        </g>
        <g id="パス_355" transform="matrix(1,0,0,1,-4559,1788.56)">
            <path d="M451.006,24.208C452.44,24.257 453.875,24.103 455.266,23.751L460.389,27.505C459.527,29.026 456.129,35.873 455.368,37.243C450.481,46.179 442.566,53.087 433.051,56.719C431.277,53.994 429.163,51.505 426.761,49.314C431.326,47.641 442.282,43.684 447.354,32.627L418.038,32.627L418.038,24.208L451.006,24.208ZM454.406,19.947L424.023,19.947L424.023,11.832L454.4,11.832L454.406,19.947Z" style="fill:white;fill-rule:nonzero;"/>
        </g>
        <g id="パス_356" transform="matrix(1,0,0,1,-4559,1788.56)">
            <path d="M501.783,12.694C502.969,12.781 504.16,12.626 505.283,12.237L511.775,16.802C511.044,17.798 510.495,18.915 510.152,20.102C504.877,34.253 500.464,45.412 480.988,55.602C478.911,52.842 476.548,50.309 473.938,48.045C491.791,41.198 496.914,29.076 499.552,21.468L469.474,21.468L469.474,12.694L501.783,12.694Z" style="fill:white;fill-rule:nonzero;"/>
        </g>
        <g id="パス_357" transform="matrix(1,0,0,1,-4559,1788.56)">
            <path d="M541.807,22.94C547.589,25.628 555.607,30.193 560.168,34.403C558.799,36.381 556.009,40.692 554.791,42.569C550.125,38.308 544.884,34.722 539.221,31.917L539.221,55.756L529.432,55.756L529.432,10.463L539.068,10.763C539.728,10.763 540.235,10.763 540.235,11.372C540.235,11.879 539.626,12.234 539.221,12.437L539.221,27.048L541.807,22.94Z" style="fill:white;fill-rule:nonzero;"/>
        </g>
        <g id="パス_358" transform="matrix(1,0,0,1,-4559,1788.56)">
            <path d="M609.88,24.461C610.216,24.676 610.44,25.029 610.489,25.425C610.433,25.87 610.021,26.19 609.576,26.135C609.126,26.116 608.682,26.03 608.257,25.881C599.381,31.258 588.172,34.149 582.593,35.062L582.593,42.112C582.593,45.764 583.912,45.764 591.012,45.764C595.983,45.764 606.584,45.51 611.148,44.749C610.412,47.814 609.937,50.936 609.728,54.082C606.528,54.182 602.928,54.282 599.686,54.282C581.886,54.282 580.919,53.977 579.144,53.47C574.883,52.253 572.855,49.92 572.855,43.07L572.855,11.223L582.694,11.781C583.354,11.832 583.861,11.832 583.861,12.441C583.861,13.05 583.202,13.354 582.593,13.658L582.593,26.439C591.367,24.512 598.925,21.114 602.171,18.172L609.88,24.461ZM605.721,12.086C607.614,13.651 609.379,15.363 611,17.208C610.8,17.408 607.957,20.099 607.6,20.508C605.934,18.691 604.155,16.98 602.274,15.385L605.721,12.086ZM610.438,8.18C612.24,9.719 613.935,11.38 615.51,13.151C614.278,14.178 613.125,15.297 612.061,16.498C610.499,14.665 608.767,12.983 606.888,11.477L610.438,8.18Z" style="fill:white;fill-rule:nonzero;"/>
        </g>
        <g id="長方形_182" transform="matrix(1,0,0,1,-3939.527,1817.231)">
            <rect x="0" y="0" width="44.126" height="9.13" style="fill:white;"/>
        </g>
        <g id="パス_359" transform="matrix(1,0,0,1,-4559,1788.56)">
            <path d="M686.836,13.506C687.596,13.557 688.104,13.606 688.104,14.216C688.104,14.826 687.546,15.079 686.988,15.281L686.988,26.541C687.156,36.655 682.8,46.334 675.119,52.916C673.003,50.458 670.481,48.382 667.663,46.778C670.825,44.398 673.423,41.351 675.272,37.852C677.351,33.693 677.452,27.552 677.452,26.187L677.452,13.1L686.836,13.506ZM700.175,13C700.733,13.051 701.291,13.051 701.291,13.659C701.291,14.065 701.091,14.217 700.175,14.826L700.175,38.613C704.689,35.367 709.254,29.94 712.297,25.426C713.441,28.405 715.032,31.193 717.014,33.693C712.196,41.093 704.081,47.337 699.614,50.785C698.658,51.583 697.744,52.43 696.875,53.322L690.535,49.264C690.684,48.205 690.769,47.138 690.789,46.069L690.789,12.543L700.175,13Z" style="fill:white;fill-rule:nonzero;"/>
        </g>
        <g id="パス_360" transform="matrix(1.059566,0,0,1.059566,-4603.196543,1787.308743)">
            <path d="M732.846,52.459L732.846,26.693L725.186,26.693L725.186,19.288C730.917,18.426 733.302,16.752 735.026,11.68L743.344,11.68L743.344,52.459L732.846,52.459Z" style="fill:white;fill-rule:nonzero;"/>
        </g>
        <g id="パス_361" transform="matrix(1.059566,0,0,1.059566,-4611.673073,1787.308743)">
            <path d="M787.17,14.825C792.495,20.455 792.648,30.244 792.648,32.475C792.648,39.931 790.619,53.575 775.504,53.575C762.064,53.575 758.311,43.127 758.311,31.41C758.311,24.817 760.085,10.564 775.504,10.564C777.483,10.564 783.416,10.869 787.17,14.825M775.5,19.136C770.022,19.136 768.855,26.036 768.855,32.07C768.855,38.055 770.022,45.054 775.5,45.054C780.978,45.054 782.1,38 782.1,32.07C782.1,25.882 780.883,19.136 775.506,19.136" style="fill:white;fill-rule:nonzero;"/>
        </g>
        <g id="パス_362" transform="matrix(1.059566,0,0,1.059566,-4610.613507,1787.308743)">
            <path d="M825.671,14.825C830.996,20.455 831.149,30.244 831.149,32.475C831.149,39.931 829.12,53.575 814.005,53.575C800.565,53.575 796.811,43.127 796.811,31.41C796.811,24.817 798.586,10.564 814.005,10.564C815.984,10.564 821.918,10.869 825.671,14.825M814.005,19.136C808.527,19.136 807.36,26.036 807.36,32.07C807.36,38.055 808.527,45.054 814.005,45.054C819.483,45.054 820.6,38 820.6,32.07C820.6,25.882 819.383,19.136 814.006,19.136" style="fill:white;fill-rule:nonzero;"/>
        </g>
        <g id="パス_363" transform="matrix(1,0,0,1,-4559,1788.56)">
            <path d="M854.637,38C853.208,39.857 852.047,41.906 851.188,44.086C850.478,43.173 849.97,42.514 848.855,40.84L848.855,56.567L840.892,56.567L840.892,43.989C840.176,45.595 839.328,47.139 838.356,48.604C836.988,46.151 835.355,43.855 833.487,41.757C836.659,38.024 839.055,33.696 840.536,29.026L835.211,29.026L835.211,21.726L840.892,21.726L840.892,19.186C839.701,19.391 838.499,19.526 837.292,19.592C836.125,16.143 835.618,14.926 834.046,12.897C839.731,12.792 845.35,11.658 850.63,9.55L854.53,15.332C854.771,15.617 854.914,15.973 854.936,16.346C854.936,16.646 854.683,16.853 854.175,16.853C853.727,16.819 853.292,16.68 852.907,16.448C851.842,16.748 851.081,17.006 848.85,17.563L848.85,21.723L853.262,21.723L853.262,18.578L863.203,18.578L863.203,17.259C860.927,17.454 858.641,17.521 856.357,17.459C855.845,15.219 855.008,13.065 853.871,11.068C854.734,11.119 855.747,11.168 857.171,11.168C863.417,11.215 869.647,10.534 875.736,9.139L879.489,14.82C879.656,15.038 879.745,15.306 879.742,15.58C879.742,15.935 879.542,16.189 879.032,16.189C878.54,16.165 878.073,15.967 877.713,15.631C875.482,16.037 873.452,16.341 871.17,16.595L871.17,18.573L881.77,18.573L881.77,24.761L871.17,24.761L871.17,26.384L880.4,26.384L880.4,41.351L871.168,41.351L871.168,42.771L880.653,42.771L880.653,48.046L871.168,48.046L871.168,49.568L881.968,49.568L881.968,55.6L851.7,55.6L851.7,49.568L863.213,49.568L863.213,48.046L854.033,48.046L854.033,42.771L863.213,42.771L863.213,41.351L854.642,41.351L854.637,38ZM854.637,26.385L863.208,26.385L863.208,24.766L853.368,24.766L853.368,29.026L848.855,29.026L848.855,29.736C850.49,32.42 852.43,34.905 854.637,37.142L854.637,26.385ZM861.18,32.218L863.411,32.218L863.411,30.6L861.18,30.6L861.18,32.218ZM863.411,35.362L861.18,35.362L861.18,37.289L863.411,37.289L863.411,35.362ZM871.07,32.218L873.4,32.218L873.4,30.6L871.07,30.6L871.07,32.218ZM873.403,35.362L871.07,35.362L871.07,37.289L873.4,37.289L873.403,35.362Z" style="fill:white;fill-rule:nonzero;"/>
        </g>
        <g id="パス_364" transform="matrix(1,0,0,1,-4559,1788.56)">
            <path d="M908.761,14.469C908.035,16 907.17,17.46 906.175,18.831L908.559,18.831L908.559,24.766L904.095,24.766C905.747,26.285 907.653,27.504 909.725,28.366C908.001,29.756 906.497,31.397 905.262,33.235C903.578,31.96 902.047,30.497 900.697,28.873L900.697,33.133L893.951,33.133L893.951,29.077C892.48,31.079 890.778,32.901 888.879,34.504C887.47,32.805 885.87,31.274 884.112,29.939C886.462,28.527 888.596,26.785 890.451,24.766L885.989,24.766L885.989,18.831L888.727,18.831C887.614,16.769 886.36,14.786 884.974,12.897L890.35,9.651C891.719,11.252 892.925,12.985 893.95,14.825L893.95,9.55L900.8,9.8C901.459,9.8 901.764,9.9 901.764,10.307C901.764,10.764 901.359,11.068 900.699,11.423L900.699,15.734C901.79,13.993 902.691,12.139 903.387,10.206L908.763,12.032L908.763,10.868L932.8,10.868L932.8,17.614L924.38,17.614C923.98,18.476 923.467,19.44 923.316,19.694L931.836,19.694L931.836,46.778L926.46,46.778C928.746,48.643 931.314,50.132 934.068,51.191C932.091,52.838 930.409,54.811 929.097,57.024C925.612,55.276 922.441,52.962 919.714,50.176C917.34,52.704 914.626,54.889 911.65,56.669C910.277,54.951 908.673,53.432 906.882,52.155C905.627,53.312 904.505,54.605 903.534,56.009C901.229,54.347 899.223,52.306 897.6,49.974C895.724,52.865 893.948,54.539 890.5,57.024C888.687,55.051 886.562,53.389 884.211,52.104C887.898,50.474 890.81,47.471 892.326,43.735L885.987,43.735L885.987,37.142L893.34,37.142L893.34,33.642L901.05,34.098C901.862,34.149 902.217,34.149 902.217,34.656C902.217,34.956 901.76,35.214 900.948,35.772L900.948,37.142L908.557,37.142L908.557,43.735L901.404,43.735C903.596,46.119 906.125,48.17 908.911,49.821C910.285,48.925 911.575,47.906 912.766,46.778L909.926,46.778L909.926,19.694L915.151,19.694C915.494,19.019 915.799,18.324 916.063,17.614L908.763,17.614L908.761,14.469ZM893.951,16.9C892.799,17.448 891.695,18.093 890.651,18.827L893.951,18.827L893.951,16.9ZM900.697,18.827L903.997,18.827C902.172,17.914 901.461,17.61 900.697,17.255L900.697,18.827ZM922.76,46.778L917.384,46.778L920.122,48.807L922.76,46.778ZM924.129,25.527L917.536,25.527L917.536,27.556L924.129,27.556L924.129,25.527ZM917.536,34.2L924.129,34.2L924.129,32.07L917.536,32.07L917.536,34.2ZM917.536,40.844L924.129,40.844L924.129,38.663L917.536,38.663L917.536,40.844Z" style="fill:white;fill-rule:nonzero;"/>
        </g>
        <g id="パス_365" transform="matrix(1,0,0,1,-4559,1788.56)">
            <path d="M959.945,11.984C960.452,12.084 960.909,12.238 960.909,12.796C960.909,13.455 960.199,13.607 959.894,13.607C959.387,15.94 959.083,17.259 958.525,19.592C965.017,19.592 970.19,21.976 970.19,34.402C970.19,35.011 970.19,46.322 965.829,52.053C964.459,53.879 962.429,55.299 957.713,55.299C956.09,55.385 954.464,55.214 952.895,54.792C952.914,51.639 952.591,48.493 951.931,45.409C953.449,45.863 955.015,46.135 956.597,46.22C957.653,46.312 958.675,45.801 959.235,44.901C961.162,41.554 961.314,34.96 961.314,34.101C961.314,28.522 959.945,27.964 956.293,28.015C953.748,37.718 949.728,46.972 944.374,55.454C941.825,53.544 939.047,51.96 936.106,50.737C940.746,44.255 944.452,37.152 947.113,29.637C944.57,30.329 942.094,31.246 939.713,32.376L937.075,23.195C940.423,22.637 940.828,22.587 941.69,22.384C942.705,22.184 948.233,20.964 949.4,20.71C950.157,17.157 950.582,13.542 950.668,9.91L959.945,11.984ZM975.161,19.034C973.93,17.233 972.574,15.522 971.103,13.911L975.161,11.325C976.861,13.037 978.374,14.924 979.675,16.955C978.102,17.918 977.443,18.324 975.668,19.592C977.595,21.672 984.138,30.392 984.138,35.772C984.138,39.018 982.617,41.96 975.161,43.38C974.404,40.685 973.313,38.096 971.915,35.671C973.335,35.571 974.806,35.214 974.806,33.743C974.806,31.816 972.828,27.454 968.668,22.331L975.161,19.034ZM980.689,8.534C982.397,10.206 983.896,12.079 985.153,14.113C984.797,14.367 984.645,14.468 983.073,15.534C982.718,15.734 981.653,16.447 980.994,16.954C979.8,14.769 978.315,12.756 976.581,10.969L980.689,8.534Z" style="fill:white;fill-rule:nonzero;"/>
        </g>
        <g id="パス_366" transform="matrix(1,0,0,1,-4559,1788.56)">
            <path d="M989.419,25.476L989.267,25.576C988.463,23.176 987.147,20.978 985.412,19.135C989.658,16.479 993.276,12.93 996.012,8.735L1004.178,9.85C1004.578,9.901 1005.04,10.104 1005.04,10.56C1005.037,10.918 1004.816,11.241 1004.482,11.372C1006.808,13.401 1009.361,15.154 1012.09,16.596C1010.449,18.264 1009.034,20.14 1007.88,22.175L1009.757,22.175L1009.757,24.559C1012.194,19.682 1013.886,14.468 1014.778,9.09L1023,10.463C1023.405,10.514 1023.863,10.563 1023.863,11.122C1023.863,11.782 1023.202,11.985 1022.594,12.137C1022.394,13.151 1022.138,14.267 1021.732,15.837L1032.637,15.837L1035.122,18.373C1034.335,23.617 1033.132,28.79 1031.522,33.843C1029.502,32.728 1027.333,31.908 1025.08,31.408C1025.03,31.966 1025.03,32.372 1024.88,33.488C1026.706,40.335 1030.866,46.067 1035.887,50.936C1033.503,52.664 1031.384,54.732 1029.598,57.073C1026.236,53.575 1023.614,49.434 1021.888,44.9C1019.795,49.576 1016.694,53.733 1012.809,57.073C1011.741,55.708 1010.458,54.525 1009.009,53.573C1007.537,54.037 1006.097,54.597 1004.698,55.247C1004.447,54.217 1004.143,53.202 1003.785,52.204C999.272,53.743 994.662,54.979 989.985,55.904C989.833,56.31 989.529,56.969 989.022,56.969C988.722,56.969 988.412,56.817 988.26,56.158L986.181,48.347C987.271,48.259 988.355,48.107 989.427,47.89L989.419,25.476ZM996.619,22.176L996.619,19.643C994.996,21.165 994.388,21.723 993.83,22.179L996.619,22.176ZM997.025,29.226L1002.299,29.226L1002.299,27.353L997.025,27.353L997.025,29.226ZM1002.3,33.639L997.026,33.639L997.026,35.668L1002.3,35.668L1002.3,33.639ZM997.025,46.826C998.344,46.526 999.815,46.167 1001.336,45.71C1000.796,44.624 1000.186,43.574 999.511,42.566L1002.811,41.146L997.028,41.146L997.025,46.826ZM1002.401,18.981C1001.387,18.017 1000.018,16.597 999.764,16.293C999.358,16.749 998.851,17.358 997.431,18.829L1002.401,18.981ZM1006.51,22.181C1005.498,21.539 1004.532,20.827 1003.619,20.051C1003.493,20.163 1003.357,20.263 1003.213,20.351L1003.213,22.177L1006.51,22.181ZM1009.756,41.151L1006.611,41.151C1008.084,43.288 1009.341,45.566 1010.364,47.951C1013.663,45.031 1015.881,41.08 1016.654,36.742C1017.06,34.815 1017.06,34.104 1017.263,27.815C1016.045,30.351 1015.081,32.025 1014.371,33.242C1012.992,32.058 1011.434,31.1 1009.756,30.402L1009.756,41.151ZM1025.378,25.681C1025.599,25.668 1025.821,25.686 1026.037,25.732C1026.19,25.174 1026.544,23.601 1026.646,23.196L1019.291,23.196C1018.835,24.312 1018.581,24.869 1018.327,25.529L1025.378,25.681Z" style="fill:white;fill-rule:nonzero;"/>
        </g>
        <g id="パス_367" transform="matrix(1,0,0,1,-4559,1788.56)">
            <path d="M1081.584,24.461C1082.142,24.661 1082.396,24.761 1082.396,25.222C1082.396,25.932 1081.533,26.135 1081.279,26.236C1080.799,29.449 1080.07,32.621 1079.099,35.721C1081.476,36.986 1083.734,38.463 1085.845,40.134C1083.98,42.779 1082.285,45.54 1080.773,48.401C1079.152,46.869 1077.404,45.478 1075.548,44.242C1074.433,46.119 1070.477,52.966 1064.593,56.77C1062.416,54.481 1059.964,52.471 1057.293,50.785C1061.093,49.466 1065.865,44.141 1068.148,39.931C1065.585,38.637 1062.922,37.551 1060.184,36.685C1055.975,46.676 1052.119,52.256 1046.49,52.256C1042.077,52.256 1038.02,48.556 1038.02,43.025C1038.02,35.011 1045.526,28.062 1055.163,28.417C1056.228,25.881 1056.329,25.628 1058.105,20.606C1054.578,21.535 1050.982,22.18 1047.352,22.534L1045.576,13.252C1051.359,13.452 1059.018,12.846 1064.8,10.411L1070.379,15.027C1067.61,19.501 1065.298,24.241 1063.479,29.178C1066.124,29.82 1068.705,30.703 1071.189,31.816C1072.019,28.273 1072.478,24.654 1072.558,21.016L1081.584,24.461ZM1045.674,42.974C1045.674,43.43 1045.826,44.293 1046.587,44.293C1048.058,44.293 1051.051,37.953 1051.507,36.634C1049.833,36.685 1045.674,39.322 1045.674,42.974" style="fill:white;fill-rule:nonzero;"/>
        </g>
        <g id="パス_368" transform="matrix(1,0,0,1,-4559,1788.56)">
            <path d="M1133.883,24.056C1133.478,29.179 1132.209,35.113 1127.645,42.924C1130.057,45.618 1132.924,47.867 1136.114,49.568C1133.376,51.8 1131.499,54.082 1130.688,56.821C1127.642,54.915 1124.919,52.535 1122.623,49.771C1119.911,52.435 1116.878,54.753 1113.595,56.671C1112.466,54.608 1110.91,52.809 1109.03,51.396C1107.509,55.454 1104.06,56.164 1098.937,56.417C1098.815,54.279 1098.299,52.181 1097.415,50.23C1096.644,52.346 1095.64,54.37 1094.423,56.265C1092.375,54.309 1089.939,52.806 1087.272,51.853C1092.749,43.788 1093.002,33.796 1093.256,23.399L1088.844,23.399L1088.844,16.099L1095.995,16.099L1095.995,9.449L1104.719,9.749C1105.175,9.749 1105.835,9.749 1105.835,10.51C1105.835,11.118 1105.277,11.423 1104.719,11.676L1104.719,16.089L1112.019,16.089L1112.019,20.857C1113.893,17.125 1115.159,13.119 1115.772,8.988L1124.344,10.966C1124.851,11.066 1125.257,11.266 1125.257,11.727C1125.257,12.386 1124.648,12.539 1123.785,12.792C1123.385,14.111 1123.126,14.922 1122.619,16.343L1135.604,16.343L1135.604,24.052L1133.883,24.056ZM1101.017,34C1100.64,38.69 1099.72,43.321 1098.277,47.8C1098.831,47.888 1099.39,47.939 1099.951,47.952C1101.625,47.952 1102.944,47.242 1103.096,34.004L1101.017,34ZM1101.371,23.4L1101.32,26.646L1108.52,26.646C1109.316,25.612 1110.044,24.528 1110.7,23.4L1101.371,23.4ZM1114.305,32.682C1114.005,33.082 1113.849,33.29 1113.24,34.051C1112.551,33.252 1111.787,32.521 1110.957,31.87C1110.501,43.028 1110.4,46.07 1109.69,49.115C1112.734,47.433 1115.476,45.256 1117.805,42.673C1116.289,39.476 1115.115,36.127 1114.305,32.682M1119.631,24.059C1120.168,27.8 1121.209,31.451 1122.725,34.913C1124.285,31.477 1125.278,27.812 1125.666,24.059L1119.631,24.059Z" style="fill:white;fill-rule:nonzero;"/>
        </g>
        <g id="パス_369" transform="matrix(1,0,0,1,-4559,1788.56)">
            <path d="M1164.118,42.061L1164.118,18.781L1168.633,18.781C1169.14,17.563 1169.191,17.411 1169.394,16.803L1162.494,16.803L1162.494,10.818L1186.384,10.818L1186.384,16.8L1177.051,16.8C1176.9,17.256 1176.443,18.321 1176.239,18.778L1185.166,18.778L1185.166,42.058L1180.957,42.058C1182.841,43.365 1184.887,44.422 1187.043,45.203C1185.816,46.32 1184.726,47.58 1183.797,48.956C1184.761,48.856 1185.572,48.804 1187.702,48.656C1186.942,49.873 1185.927,51.648 1185.268,56.112C1181.568,56.312 1164.268,56.163 1160.618,55.912C1155.445,55.607 1151.133,54.39 1146.873,50.18C1146.301,52.433 1145.555,54.637 1144.641,56.774C1142.596,55.541 1140.395,54.586 1138.098,53.934C1140.554,48.962 1141.706,43.446 1141.446,37.906L1147.989,38.616C1148.395,38.667 1148.952,38.716 1148.952,39.377C1148.952,39.884 1148.344,40.087 1147.836,40.239C1147.736,41.304 1147.685,41.812 1147.636,42.573C1148.207,43.25 1148.835,43.878 1149.512,44.449L1149.512,36.533L1139.521,36.533L1139.521,30.5L1162.801,30.5L1162.801,36.536L1156.714,36.536L1156.714,38.869L1162.294,38.869L1162.294,44.8L1156.714,44.8L1156.714,48.5C1159.461,49.103 1162.271,49.376 1165.083,49.311C1163.835,48.013 1162.419,46.888 1160.873,45.964C1163.023,44.86 1165.061,43.552 1166.96,42.058L1164.118,42.061ZM1161.279,29.077L1140.479,29.077L1140.479,10.818L1161.279,10.818L1161.279,29.077ZM1154.079,16.245L1147.739,16.245L1147.739,18.02L1154.079,18.02L1154.079,16.245ZM1147.74,24.056L1154.08,24.056L1154.08,22.331L1147.74,22.331L1147.74,24.056ZM1173.7,43.989C1173.984,44.134 1174.162,44.43 1174.156,44.749C1174.156,45.358 1173.446,45.358 1172.533,45.358C1170.9,46.786 1169.189,48.124 1167.41,49.365C1170.91,49.416 1177.91,49.213 1180.801,49.111C1178.559,47.75 1176.482,46.133 1174.612,44.293L1177.047,42.061L1171.012,42.061L1173.7,43.989ZM1177.707,23.802L1171.519,23.802L1171.519,25.425L1177.707,25.425L1177.707,23.802ZM1171.519,31.156L1177.707,31.156L1177.707,29.533L1171.519,29.533L1171.519,31.156ZM1171.519,36.888L1177.707,36.888L1177.707,35.265L1171.519,35.265L1171.519,36.888Z" style="fill:white;fill-rule:nonzero;"/>
        </g>
        <g id="パス_370" transform="matrix(1,0,0,1,-4559,1788.56)">
            <path d="M1218.447,11.68L1218.447,23.4L1216.366,38.413L1210.99,38.413L1208.911,23.4L1208.911,11.68L1218.447,11.68ZM1209.012,43.18L1218.345,43.18L1218.345,52.462L1209.012,52.462L1209.012,43.18Z" style="fill:white;fill-rule:nonzero;"/>
        </g>
    </g>
</svg>
