<svg xmlns="http://www.w3.org/2000/svg" width="979" height="171.06" viewBox="0 0 979 171.06">
  <g id="グループ_307" data-name="グループ 307" transform="translate(-470.5 -1343)">
    <path id="パス_551" data-name="パス 551" d="M-.12-37.02a6.834,6.834,0,0,0-5.19,1.98A7.584,7.584,0,0,0-7.2-29.58q0,4.14,1.86,6.24a6.608,6.608,0,0,0,5.22,2.1A6.538,6.538,0,0,0,5.07-23.4a9.1,9.1,0,0,0,1.89-6.18,7.423,7.423,0,0,0-1.98-5.4A6.8,6.8,0,0,0-.12-37.02ZM-2.22-14.4q-7.14,0-10.95-3.84T-16.98-29.4q0-6.9,4.53-10.95T-.12-44.4q8.1,0,12.51,4.86T16.8-25.2Q16.8.6-2.82.6A43.046,43.046,0,0,1-9.54.06a3.72,3.72,0,0,1-2.37-1.41,4.174,4.174,0,0,1-.93-2.67V-5.1a2.37,2.37,0,0,1,1.02-2.01,2.643,2.643,0,0,1,2.28-.45,28.714,28.714,0,0,0,6.36.78A9.754,9.754,0,0,0,3.99-9.36q2.61-2.58,2.85-7.56a.053.053,0,0,0-.06-.06H6.72Q3.36-14.4-2.22-14.4Z" transform="translate(580.5 1420.06)" fill="#000b4d"/>
    <path id="パス_552" data-name="パス 552" d="M-.12-37.02a6.834,6.834,0,0,0-5.19,1.98A7.584,7.584,0,0,0-7.2-29.58q0,4.14,1.86,6.24a6.608,6.608,0,0,0,5.22,2.1A6.538,6.538,0,0,0,5.07-23.4a9.1,9.1,0,0,0,1.89-6.18,7.423,7.423,0,0,0-1.98-5.4A6.8,6.8,0,0,0-.12-37.02ZM-2.22-14.4q-7.14,0-10.95-3.84T-16.98-29.4q0-6.9,4.53-10.95T-.12-44.4q8.1,0,12.51,4.86T16.8-25.2Q16.8.6-2.82.6A43.046,43.046,0,0,1-9.54.06a3.72,3.72,0,0,1-2.37-1.41,4.174,4.174,0,0,1-.93-2.67V-5.1a2.37,2.37,0,0,1,1.02-2.01,2.643,2.643,0,0,1,2.28-.45,28.714,28.714,0,0,0,6.36.78A9.754,9.754,0,0,0,3.99-9.36q2.61-2.58,2.85-7.56a.053.053,0,0,0-.06-.06H6.72Q3.36-14.4-2.22-14.4Z" transform="translate(1086 1420.06)" fill="#000b4d"/>
    <path id="パス_549" data-name="パス 549" d="M-48.672-45.448a2.647,2.647,0,0,1-3.068.312,2.824,2.824,0,0,1-1.612-2.7v-7.592a10.914,10.914,0,0,1,4.784-9.36l10.5-7.7A17.645,17.645,0,0,1-27.352-75.92H-20.8a5.692,5.692,0,0,1,4.16,1.768,5.692,5.692,0,0,1,1.768,4.16V-5.928a5.692,5.692,0,0,1-1.768,4.16A5.692,5.692,0,0,1-20.8,0h-6.552a5.692,5.692,0,0,1-4.16-1.768,5.692,5.692,0,0,1-1.768-4.16V-56.472h-.208ZM12.688-28.6v.1a.092.092,0,0,0,.1.1h17.16q.936,0,.936-.832V-54.392a.092.092,0,0,0-.1-.1q-.208,0-.208.1ZM2.912-14.56A5.524,5.524,0,0,1-1.2-16.328a5.778,5.778,0,0,1-1.716-4.16v-1.976A18.244,18.244,0,0,1,.52-33.176l26.936-37.96a10.818,10.818,0,0,1,9.256-4.784h5.2a5.524,5.524,0,0,1,4.108,1.768,5.778,5.778,0,0,1,1.716,4.16v40.768q0,.832.936.832h4.16a5.692,5.692,0,0,1,4.16,1.768,5.692,5.692,0,0,1,1.768,4.16v1.976a5.692,5.692,0,0,1-1.768,4.16,5.692,5.692,0,0,1-4.16,1.768h-4.16a.827.827,0,0,0-.936.936v7.7a5.778,5.778,0,0,1-1.716,4.16A5.524,5.524,0,0,1,41.912,0h-5.2A5.524,5.524,0,0,1,32.6-1.768a5.778,5.778,0,0,1-1.716-4.16v-7.7a.827.827,0,0,0-.936-.936Z" transform="translate(716 1488)" fill="#000b4d"/>
    <path id="パス_550" data-name="パス 550" d="M-48.672-45.448a2.647,2.647,0,0,1-3.068.312,2.824,2.824,0,0,1-1.612-2.7v-7.592a10.914,10.914,0,0,1,4.784-9.36l10.5-7.7A17.645,17.645,0,0,1-27.352-75.92H-20.8a5.692,5.692,0,0,1,4.16,1.768,5.692,5.692,0,0,1,1.768,4.16V-5.928a5.692,5.692,0,0,1-1.768,4.16A5.692,5.692,0,0,1-20.8,0h-6.552a5.692,5.692,0,0,1-4.16-1.768,5.692,5.692,0,0,1-1.768-4.16V-56.472h-.208ZM29.848-39.1A11.61,11.61,0,0,0,20.9-35.516q-3.328,3.588-3.328,9.828,0,6.552,3.38,10.244a11.484,11.484,0,0,0,8.892,3.692q5.824,0,9.048-3.588T42.12-25.688q0-6.448-3.276-9.932T29.848-39.1Zm0,40.144q-14.04,0-21.684-8.58T.52-33.28q0-21.84,8.84-32.76T34.528-76.96a63.318,63.318,0,0,1,10.608.832,6.376,6.376,0,0,1,4.108,2.5,7.446,7.446,0,0,1,1.612,4.68v1.872a4.012,4.012,0,0,1-1.716,3.432,4.542,4.542,0,0,1-3.9.728,45.989,45.989,0,0,0-10.088-1.248,15.965,15.965,0,0,0-11.8,4.524q-4.524,4.524-5.564,13.052a.092.092,0,0,0,.1.1h.1q5.824-4.472,15.5-4.472,12.272,0,18.928,6.448T59.072-26q0,12.688-7.8,19.864T29.848,1.04Z" transform="translate(1221.5 1488)" fill="#000b4d"/>
    <path id="パス_553" data-name="パス 553" d="M-16.426-31.39a2.354,2.354,0,0,1,1.72.731,2.354,2.354,0,0,1,.731,1.72v1.978a2.354,2.354,0,0,1-.731,1.72,2.354,2.354,0,0,1-1.72.731H-25.2q-.387,0-.387.344v5.289a.342.342,0,0,0,.387.387h7.912a2.354,2.354,0,0,1,1.72.731,2.354,2.354,0,0,1,.731,1.72v1.548a2.354,2.354,0,0,1-.731,1.72,2.354,2.354,0,0,1-1.72.731H-25.2a.342.342,0,0,0-.387.387v9.2a2.354,2.354,0,0,1-.731,1.72A2.354,2.354,0,0,1-28.036,0h-3.7a2.354,2.354,0,0,1-1.72-.731,2.354,2.354,0,0,1-.731-1.72V-28.939a2.354,2.354,0,0,1,.731-1.72,2.354,2.354,0,0,1,1.72-.731ZM4.128-17.2A5.116,5.116,0,0,0,7.59-18.3a3.745,3.745,0,0,0,1.269-2.989q0-4.085-4.73-4.085a14.034,14.034,0,0,0-1.978.129.442.442,0,0,0-.387.473v7.181a.342.342,0,0,0,.387.387ZM15.222-8.6,17.5-2.279a1.616,1.616,0,0,1-.215,1.57A1.659,1.659,0,0,1,15.867,0H11.954A3.4,3.4,0,0,1,9.933-.645a3.071,3.071,0,0,1-1.2-1.677L6.837-8.17a4.713,4.713,0,0,0-1.2-2.15A2.818,2.818,0,0,0,3.7-10.965H2.15a.342.342,0,0,0-.387.387v8.127a2.354,2.354,0,0,1-.731,1.72A2.354,2.354,0,0,1-.688,0H-4.171a2.354,2.354,0,0,1-1.72-.731,2.354,2.354,0,0,1-.731-1.72V-28.724a2.764,2.764,0,0,1,.667-1.828,2.394,2.394,0,0,1,1.7-.881q4.214-.387,8.815-.387,12.9,0,12.9,9.675A8.492,8.492,0,0,1,15.8-17.114,9.068,9.068,0,0,1,11.481-13.8a.038.038,0,0,0-.043.043q0,.086.043.086a6.829,6.829,0,0,1,2.128,1.849A12.882,12.882,0,0,1,15.222-8.6ZM31.3-31.39a2.354,2.354,0,0,1,1.72.731,2.354,2.354,0,0,1,.731,1.72V-2.451a2.354,2.354,0,0,1-.731,1.72A2.354,2.354,0,0,1,31.3,0H26.746a2.354,2.354,0,0,1-1.72-.731,2.354,2.354,0,0,1-.731-1.72V-28.939a2.354,2.354,0,0,1,.731-1.72,2.354,2.354,0,0,1,1.72-.731Z" transform="translate(797 1450) rotate(90)" fill="#000b4d"/>
    <path id="パス_554" data-name="パス 554" d="M-28.741-18.86q5.74,1.681,7.995,4.018A8.6,8.6,0,0,1-18.491-8.61q0,9.02-11.685,9.02A17.856,17.856,0,0,1-36.941-.82a2.962,2.962,0,0,1-1.5-1.312,3.978,3.978,0,0,1-.553-2.05V-6.273a1.227,1.227,0,0,1,.656-1.148,1.4,1.4,0,0,1,1.353-.041,14.994,14.994,0,0,0,6.4,1.517q3.69,0,3.69-2.46a2.489,2.489,0,0,0-.574-1.763,5.025,5.025,0,0,0-2.091-1.107q-5.453-1.681-7.851-4.2a8.721,8.721,0,0,1-2.4-6.253,7.622,7.622,0,0,1,2.891-6.314q2.89-2.3,8.384-2.3a26.047,26.047,0,0,1,7.011.861,2.9,2.9,0,0,1,1.6,1.169,3.329,3.329,0,0,1,.615,1.948v2.009a1.492,1.492,0,0,1-.677,1.292,1.572,1.572,0,0,1-1.5.184,21.628,21.628,0,0,0-6.642-1.189q-3.362,0-3.362,2.337Q-31.488-19.68-28.741-18.86ZM7.093-29.93a2.244,2.244,0,0,1,1.64.7,2.244,2.244,0,0,1,.7,1.64V-11.07q0,5.74-3.034,8.61T-2.46.41q-5.822,0-8.856-2.87t-3.034-8.61V-27.593a2.244,2.244,0,0,1,.7-1.64,2.244,2.244,0,0,1,1.64-.7H-8.4a2.244,2.244,0,0,1,1.64.7,2.244,2.244,0,0,1,.7,1.64v17.138a5.033,5.033,0,0,0,.861,3.342,3.629,3.629,0,0,0,2.829.964A3.629,3.629,0,0,0,.451-7.114a5.033,5.033,0,0,0,.861-3.342V-27.593a2.244,2.244,0,0,1,.7-1.64,2.244,2.244,0,0,1,1.64-.7Zm29.356,0a2.244,2.244,0,0,1,1.64.7,2.244,2.244,0,0,1,.7,1.64V-2.337a2.244,2.244,0,0,1-.7,1.64,2.244,2.244,0,0,1-1.64.7H33.333a3.484,3.484,0,0,1-3.362-2.091L22.878-16.359a.036.036,0,0,0-.041-.041.036.036,0,0,0-.041.041V-2.337A2.244,2.244,0,0,1,22.1-.7a2.244,2.244,0,0,1-1.64.7H17.343A2.244,2.244,0,0,1,15.7-.7a2.244,2.244,0,0,1-.7-1.64V-27.593a2.244,2.244,0,0,1,.7-1.64,2.244,2.244,0,0,1,1.64-.7h3.116a3.484,3.484,0,0,1,3.362,2.091l7.093,14.268a.036.036,0,0,0,.041.041A.036.036,0,0,0,31-13.571V-27.593a2.244,2.244,0,0,1,.7-1.64,2.244,2.244,0,0,1,1.64-.7Z" transform="translate(1298.5 1449) rotate(90)" fill="#000b4d"/>
    <path id="パス_555" data-name="パス 555" d="M67,0,0,88.44" transform="translate(600.5 1369.06)" fill="none" stroke="#000b4d" stroke-linecap="round" stroke-width="6"/>
    <path id="パス_556" data-name="パス 556" d="M67,0,0,88.44" transform="translate(1106 1369.06)" fill="none" stroke="#000b4d" stroke-linecap="round" stroke-width="6"/>
    <path id="パス_557" data-name="パス 557" d="M3127.337-203.27H3057v-4.957h58.89V-221l25.5,17.731Z" transform="translate(-2139.196 1651.269)" fill="#000b4d"/>
    <path id="パス_559" data-name="パス 559" d="M0,0H975" transform="translate(472.5 1345)" fill="none" stroke="#000b4d" stroke-linecap="round" stroke-width="4"/>
    <path id="パス_558" data-name="パス 558" d="M0,0H975" transform="translate(472.5 1512.06)" fill="none" stroke="#000b4d" stroke-linecap="round" stroke-width="4"/>
  </g>
</svg>
