<?xml version="1.0" encoding="UTF-8" standalone="no"?>
<!DOCTYPE svg PUBLIC "-//W3C//DTD SVG 1.1//EN" "http://www.w3.org/Graphics/SVG/1.1/DTD/svg11.dtd">
<svg width="100%" height="100%" viewBox="0 0 526 397" version="1.1" xmlns="http://www.w3.org/2000/svg" xmlns:xlink="http://www.w3.org/1999/xlink" xml:space="preserve" xmlns:serif="http://www.serif.com/" style="fill-rule:evenodd;clip-rule:evenodd;stroke-linejoin:round;stroke-miterlimit:2;">
    <g id="グループ_306" transform="matrix(1,0,0,1,-71.911,-54)">
        <g id="パス_544" transform="matrix(1,0,0,1,72.947,170.698)">
            <path d="M76.866,-31.223C68.325,-21.842 59.366,-21.423 55.724,-21.423C49.346,-21.374 43.166,-23.667 38.363,-27.864C33.532,-32.687 30.811,-39.238 30.802,-46.064C30.727,-53.305 33.672,-60.26 38.923,-65.246C43.403,-69.306 48.723,-71.407 55.723,-71.407C59.783,-71.407 69.023,-70.847 76.865,-61.186L76.865,-90.167C66.784,-94.227 59.504,-94.927 55.023,-94.927C41.795,-94.98 29.082,-89.733 19.742,-80.367C10.773,-71.137 5.705,-58.793 5.6,-45.924C5.708,-33.179 10.784,-20.966 19.742,-11.9C27.442,-4.339 39.624,2.1 55.865,2.1C61.885,2.1 67.206,0.98 76.865,-2.52L76.866,-31.223Z" style="fill:white;fill-rule:nonzero;"/>
        </g>
        <g id="パス_545" transform="matrix(1,0,0,1,152.674,170.698)">
            <path d="M9.8,-93.388L9.8,0L34.023,0L34.023,-35.843L57.265,0L87.365,0L58.1,-38.223C62.911,-39.123 67.375,-41.354 70.981,-44.664C75.601,-49.144 78.402,-56.145 78.402,-64.126C78.402,-71.547 75.742,-79.667 70.421,-85.126C63.565,-92.268 54.6,-93.388 47.6,-93.388L9.8,-93.388ZM34.023,-74.626L38.643,-74.626C43.963,-74.626 48.024,-73.226 50.264,-70.986C52.34,-68.907 53.5,-66.082 53.484,-63.145C53.473,-60.237 52.373,-57.437 50.4,-55.3C47.46,-52.5 42.279,-51.52 38.639,-51.52L34.019,-51.52L34.023,-74.626Z" style="fill:white;fill-rule:nonzero;"/>
        </g>
        <g id="パス_546" transform="matrix(1,0,0,1,242.802,170.698)">
            <path d="M72.526,0L98.426,0L63.285,-93.388L36.823,-93.388L0.98,0L26.6,0L32.9,-15.681L66.785,-15.681L72.526,0ZM39.626,-34.163L49.844,-64.405L60.344,-34.163L39.626,-34.163Z" style="fill:white;fill-rule:nonzero;"/>
        </g>
        <g id="パス_547" transform="matrix(1,0,0,1,338.57,170.698)">
            <path d="M63.285,-93.388L9.8,-93.388L9.8,0L34.023,0L34.023,-36.683L60.623,-36.683L60.623,-57.265L34.023,-57.265L34.023,-72.806L63.285,-72.806L63.285,-93.388Z" style="fill:white;fill-rule:nonzero;"/>
        </g>
        <g id="パス_548" transform="matrix(1,0,0,1,411.836,170.698)">
            <path d="M64.965,-72.806L64.965,-93.388L0.98,-93.388L0.98,-72.806L20.862,-72.806L20.862,0L45.084,0L45.084,-72.806L64.965,-72.806Z" style="fill:white;fill-rule:nonzero;"/>
        </g>
        <g id="パス_542" transform="matrix(1,0,0,1,72.747,293.768)">
            <path d="M48.724,0C60.2,0 69.026,-3.64 74.066,-8.821C77.566,-12.321 80.927,-18.342 80.927,-27.162C80.927,-34.583 78.407,-40.603 74.627,-44.243C71.053,-47.368 66.605,-49.323 61.886,-49.843C65.216,-51.256 67.909,-53.85 69.447,-57.124C71.266,-60.673 72.18,-64.618 72.107,-68.605C72.107,-76.866 69.587,-82.605 66.367,-86.105C60.627,-92.405 52.646,-93.386 45.925,-93.386L9.8,-93.386L9.8,0L48.724,0ZM34.024,-74.766L38.5,-74.766C43.26,-74.766 46.2,-73.506 47.741,-71.966C49.218,-70.203 50.013,-67.966 49.981,-65.666C50.031,-63.406 49.231,-61.207 47.741,-59.506C45.221,-56.846 41.02,-56.566 38.5,-56.566L34.02,-56.566L34.024,-74.766ZM34.024,-38.503L39.064,-38.503C45.084,-38.503 51.105,-38.363 54.045,-35.423C55.681,-33.578 56.535,-31.166 56.425,-28.702C56.515,-26.526 55.819,-24.388 54.465,-22.682C51.8,-19.6 46.2,-18.9 39.483,-18.9L34.023,-18.9L34.024,-38.503Z" style="fill:white;fill-rule:nonzero;"/>
        </g>
        <g id="パス_541" transform="matrix(1,0,0,1,153.733,293.767)">
            <path d="M62.865,-93.388L9.8,-93.388L9.8,0L62.865,0L62.865,-20.582L34.023,-20.582L34.023,-36.682L61.323,-36.682L61.323,-57.265L34.023,-57.265L34.023,-72.806L62.865,-72.806L62.865,-93.388Z" style="fill:white;fill-rule:nonzero;"/>
        </g>
        <g id="パス_535" transform="matrix(1,0,0,1,217.858,293.767)">
            <path d="M62.865,-93.388L9.8,-93.388L9.8,0L62.865,0L62.865,-20.582L34.023,-20.582L34.023,-36.682L61.323,-36.682L61.323,-57.265L34.023,-57.265L34.023,-72.806L62.865,-72.806L62.865,-93.388Z" style="fill:white;fill-rule:nonzero;"/>
        </g>
        <g id="パス_536" transform="matrix(1,0,0,1,281.983,293.767)">
            <path d="M9.8,-93.388L9.8,0L34.023,0L34.023,-35.843L57.265,0L87.365,0L58.1,-38.223C62.911,-39.123 67.375,-41.354 70.981,-44.664C75.601,-49.144 78.402,-56.145 78.402,-64.126C78.402,-71.547 75.742,-79.667 70.421,-85.126C63.565,-92.268 54.6,-93.388 47.6,-93.388L9.8,-93.388ZM34.023,-74.626L38.643,-74.626C43.963,-74.626 48.024,-73.226 50.264,-70.986C52.34,-68.907 53.5,-66.082 53.484,-63.145C53.473,-60.237 52.373,-57.437 50.4,-55.3C47.46,-52.5 42.279,-51.52 38.639,-51.52L34.019,-51.52L34.023,-74.626Z" style="fill:white;fill-rule:nonzero;"/>
        </g>
        <g id="パス_537" transform="matrix(1,0,0,1,383.611,293.767)">
            <path d="M63.285,-93.388L9.8,-93.388L9.8,0L34.023,0L34.023,-36.683L60.623,-36.683L60.623,-57.265L34.023,-57.265L34.023,-72.806L63.285,-72.806L63.285,-93.388Z" style="fill:white;fill-rule:nonzero;"/>
        </g>
        <g id="パス_538" transform="matrix(1,0,0,1,448.876,293.767)">
            <path d="M62.865,-93.388L9.8,-93.388L9.8,0L62.865,0L62.865,-20.582L34.023,-20.582L34.023,-36.682L61.323,-36.682L61.323,-57.265L34.023,-57.265L34.023,-72.806L62.865,-72.806L62.865,-93.388Z" style="fill:white;fill-rule:nonzero;"/>
        </g>
        <g id="パス_539" transform="matrix(1,0,0,1,515.919,293.767)">
            <path d="M5.6,-8.4C9.992,-5.357 14.742,-2.864 19.742,-0.98C25.609,1.187 31.83,2.231 38.083,2.1C48.024,2.1 57.683,0.56 65.665,-7.421C72.386,-14.142 74.486,-22.402 74.486,-30.943C74.486,-37.384 73.226,-42.564 68.466,-47.604C63.566,-52.924 57.405,-55.025 51.525,-56.845L44.1,-59.085C38.36,-60.765 36.679,-62.445 35.979,-63.285C35.066,-64.486 34.618,-65.979 34.719,-67.485C34.77,-69.424 35.634,-71.254 37.099,-72.525C39.313,-74.426 42.163,-75.426 45.08,-75.325C48.3,-75.325 53.761,-74.765 61.041,-69.025L70.702,-87.925C61.881,-92.545 51.102,-95.486 41.86,-95.486C30.519,-95.486 22.678,-91.426 17.918,-86.665C13.858,-82.605 9.377,-75.604 9.377,-64.123C9.377,-59.363 9.937,-52.782 14.697,-47.602C18.477,-43.402 24.218,-41.302 28.138,-40.041L34.438,-38.081C40.458,-36.261 44.099,-35.281 46.479,-33.181C48.153,-31.803 49.128,-29.749 49.139,-27.581C49.15,-25.385 48.294,-23.271 46.759,-21.701C45.219,-20.021 42.279,-18.481 37.378,-18.481C28.978,-18.481 21.137,-23.101 15.956,-28.002L5.6,-8.4Z" style="fill:white;fill-rule:nonzero;"/>
        </g>
        <g id="パス_543" transform="matrix(1,0,0,1,78.907,414.317)">
            <path d="M78.546,-20.582L48.024,-20.582L63.705,-35.143C72.105,-42.984 77.566,-51.104 77.566,-62.865C77.566,-74.906 72.246,-82.047 68.466,-85.827C64.266,-90.027 56.145,-95.488 42.144,-95.488C30.523,-95.488 21.982,-91.708 15.682,-85.407C8.995,-78.449 5.276,-69.151 5.32,-59.5L30.382,-59.5C30.522,-62.72 31.502,-68.041 33.742,-70.981C35.703,-73.445 38.715,-74.847 41.863,-74.761C44.44,-74.832 46.932,-73.815 48.724,-71.961C51.524,-68.881 51.524,-63.98 51.524,-63C51.524,-56.98 49.004,-52.359 46.484,-48.439C42,-41.3 35.7,-33.6 27.3,-24.782L3.64,0L78.546,0L78.546,-20.582Z" style="fill:white;fill-rule:nonzero;"/>
        </g>
        <g id="パス_540" transform="matrix(1,0,0,1,163.274,414.317)">
            <path d="M42,-73.786C44.746,-73.732 47.383,-72.688 49.421,-70.846C54.321,-66.506 57.542,-54.605 57.542,-46.346C57.542,-38.365 54.602,-26.604 49.421,-22.124C47.383,-20.281 44.747,-19.236 42,-19.182C39.254,-19.236 36.617,-20.28 34.579,-22.122C29.119,-26.882 26.458,-39.063 26.458,-46.484C26.458,-55.165 29.538,-66.506 34.579,-70.846C36.617,-72.688 39.254,-73.732 42,-73.786ZM81.627,-46.624C81.627,-63.145 76.167,-76.586 67.766,-84.847C60.905,-91.629 51.647,-95.453 42,-95.488C32.355,-95.451 23.1,-91.628 16.241,-84.847C7.841,-76.586 2.38,-63.145 2.38,-46.624C2.38,-30.243 7.84,-16.802 16.241,-8.541C23.1,-1.76 32.355,2.063 42,2.1C51.647,2.065 60.905,-1.759 67.766,-8.541C76.166,-16.8 81.627,-30.242 81.627,-46.624Z" style="fill:white;fill-rule:nonzero;"/>
        </g>
        <g id="パス_534" transform="matrix(1,0,0,1,250.101,414.317)">
            <path d="M78.546,-20.582L48.024,-20.582L63.705,-35.143C72.105,-42.984 77.566,-51.104 77.566,-62.865C77.566,-74.906 72.246,-82.047 68.466,-85.827C64.266,-90.027 56.145,-95.488 42.144,-95.488C30.523,-95.488 21.982,-91.708 15.682,-85.407C8.995,-78.449 5.276,-69.151 5.32,-59.5L30.382,-59.5C30.522,-62.72 31.502,-68.041 33.742,-70.981C35.703,-73.445 38.715,-74.847 41.863,-74.761C44.44,-74.832 46.932,-73.815 48.724,-71.961C51.524,-68.881 51.524,-63.98 51.524,-63C51.524,-56.98 49.004,-52.359 46.484,-48.439C42,-41.3 35.7,-33.6 27.3,-24.782L3.64,0L78.546,0L78.546,-20.582Z" style="fill:white;fill-rule:nonzero;"/>
        </g>
        <g id="パス_533" transform="matrix(1,0,0,1,333.228,414.317)">
            <path d="M69.306,-93.388L20.722,-93.388L12.6,-43.124C17.948,-45.779 23.851,-47.123 29.821,-47.044C32.901,-47.044 41.582,-46.904 46.621,-42.424C49.514,-39.881 51.152,-36.194 51.1,-32.343C51.131,-28.825 49.83,-25.422 47.46,-22.822C44.66,-19.882 40.179,-18.202 35.279,-18.202C30.439,-18.287 25.67,-19.384 21.279,-21.422C17.188,-23.368 13.413,-25.916 10.079,-28.983L6.441,-6.3C14,-1.54 23.8,2.1 37.943,2.1C46.9,2.1 58.385,0.56 67.065,-8.4C71.545,-13.02 76.026,-20.581 76.026,-31.782C76.026,-42.563 71.686,-49.703 67.485,-53.904C63.145,-58.384 55.304,-63.145 42.843,-63.145C40.309,-63.096 37.782,-62.862 35.282,-62.445L36.962,-72.806L69.306,-72.806L69.306,-93.388Z" style="fill:white;fill-rule:nonzero;"/>
        </g>
        <g id="パス_532" transform="matrix(1,0,0,1,71.911,54)">
            <rect x="0" y="0" width="525.179" height="396.775" style="fill:none;"/>
        </g>
    </g>
</svg>
