<svg xmlns="http://www.w3.org/2000/svg" width="525.179" height="396.775" viewBox="0 0 525.179 396.775">
  <g id="グループ_306" data-name="グループ 306" transform="translate(-71.911 -54)">
    <path id="パス_544" data-name="パス 544" d="M76.866-31.223c-8.541,9.381-17.5,9.8-21.142,9.8a26.078,26.078,0,0,1-17.361-6.441,25.766,25.766,0,0,1-7.561-18.2,26.081,26.081,0,0,1,8.121-19.182c4.48-4.06,9.8-6.161,16.8-6.161,4.06,0,13.3.56,21.142,10.221V-90.167c-10.081-4.06-17.361-4.76-21.842-4.76A49.547,49.547,0,0,0,19.742-80.367,50.008,50.008,0,0,0,5.6-45.924,49,49,0,0,0,19.742-11.9c7.7,7.561,19.882,14,36.123,14,6.02,0,11.341-1.12,21-4.62Z" transform="translate(77.711 170.698)" fill="#fff"/>
    <path id="パス_545" data-name="パス 545" d="M9.8-93.388V0H34.023V-35.843L57.265,0h30.1L58.1-38.223a26.161,26.161,0,0,0,12.881-6.441c4.62-4.48,7.421-11.481,7.421-19.462,0-7.421-2.66-15.541-7.981-21C63.565-92.268,54.6-93.388,47.6-93.388ZM34.023-74.626h4.62c5.32,0,9.381,1.4,11.621,3.64a11.012,11.012,0,0,1,3.22,7.841A11.627,11.627,0,0,1,50.4-55.3c-2.94,2.8-8.121,3.78-11.761,3.78h-4.62Z" transform="translate(161.438 170.698)" fill="#fff"/>
    <path id="パス_546" data-name="パス 546" d="M72.526,0h25.9L63.285-93.388H36.823L.98,0H26.6l6.3-15.681H66.785Zm-32.9-34.163L49.844-64.405l10.5,30.242Z" transform="translate(260.566 170.698)" fill="#fff"/>
    <path id="パス_547" data-name="パス 547" d="M63.285-93.388H9.8V0H34.023V-36.683h26.6V-57.265h-26.6V-72.806H63.285Z" transform="translate(363.334 170.698)" fill="#fff"/>
    <path id="パス_548" data-name="パス 548" d="M64.965-72.806V-93.388H.98v20.582H20.862V0H45.084V-72.806Z" transform="translate(434.6 170.698)" fill="#fff"/>
    <path id="パス_542" data-name="パス 542" d="M48.724,0C60.2,0,69.026-3.64,74.066-8.821c3.5-3.5,6.861-9.521,6.861-18.341,0-7.421-2.52-13.441-6.3-17.081a23.22,23.22,0,0,0-12.741-5.6,14.7,14.7,0,0,0,7.561-7.281,24.2,24.2,0,0,0,2.66-11.481c0-8.261-2.52-14-5.74-17.5-5.74-6.3-13.721-7.281-20.442-7.281H9.8V0Zm-14.7-74.766H38.5c4.76,0,7.7,1.26,9.241,2.8a9.6,9.6,0,0,1,2.24,6.3,9.047,9.047,0,0,1-2.24,6.16c-2.52,2.66-6.721,2.94-9.241,2.94h-4.48Zm0,36.263h5.04c6.02,0,12.041.14,14.981,3.08a9.491,9.491,0,0,1,2.38,6.721,9.085,9.085,0,0,1-1.96,6.02C51.8-19.6,46.2-18.9,39.483-18.9h-5.46Z" transform="translate(71.971 293.768)" fill="#fff"/>
    <path id="パス_541" data-name="パス 541" d="M62.865-93.388H9.8V0H62.865V-20.582H34.023v-16.1h27.3V-57.265h-27.3V-72.806H62.865Z" transform="translate(153.957 293.767)" fill="#fff"/>
    <path id="パス_535" data-name="パス 535" d="M62.865-93.388H9.8V0H62.865V-20.582H34.023v-16.1h27.3V-57.265h-27.3V-72.806H62.865Z" transform="translate(218.082 293.767)" fill="#fff"/>
    <path id="パス_536" data-name="パス 536" d="M9.8-93.388V0H34.023V-35.843L57.265,0h30.1L58.1-38.223a26.161,26.161,0,0,0,12.881-6.441c4.62-4.48,7.421-11.481,7.421-19.462,0-7.421-2.66-15.541-7.981-21C63.565-92.268,54.6-93.388,47.6-93.388ZM34.023-74.626h4.62c5.32,0,9.381,1.4,11.621,3.64a11.012,11.012,0,0,1,3.22,7.841A11.627,11.627,0,0,1,50.4-55.3c-2.94,2.8-8.121,3.78-11.761,3.78h-4.62Z" transform="translate(282.207 293.767)" fill="#fff"/>
    <path id="パス_537" data-name="パス 537" d="M63.285-93.388H9.8V0H34.023V-36.683h26.6V-57.265h-26.6V-72.806H63.285Z" transform="translate(384.835 293.767)" fill="#fff"/>
    <path id="パス_538" data-name="パス 538" d="M62.865-93.388H9.8V0H62.865V-20.582H34.023v-16.1h27.3V-57.265h-27.3V-72.806H62.865Z" transform="translate(449.1 293.767)" fill="#fff"/>
    <path id="パス_539" data-name="パス 539" d="M5.6-8.4A65.2,65.2,0,0,0,19.742-.98,49.916,49.916,0,0,0,38.083,2.1c9.941,0,19.6-1.54,27.582-9.521,6.721-6.721,8.821-14.981,8.821-23.522,0-6.441-1.26-11.621-6.02-16.661-4.9-5.32-11.061-7.421-16.941-9.241L44.1-59.085c-5.74-1.68-7.421-3.36-8.121-4.2a6.247,6.247,0,0,1-1.26-4.2,6.911,6.911,0,0,1,2.38-5.04,11.631,11.631,0,0,1,7.981-2.8c3.22,0,8.681.56,15.961,6.3l9.661-18.9c-8.821-4.62-19.6-7.561-28.842-7.561-11.341,0-19.182,4.06-23.942,8.821-4.06,4.06-8.541,11.061-8.541,22.542,0,4.76.56,11.341,5.32,16.521,3.78,4.2,9.521,6.3,13.441,7.561l6.3,1.96c6.02,1.82,9.661,2.8,12.041,4.9a7.3,7.3,0,0,1,2.66,5.6,8.351,8.351,0,0,1-2.38,5.88c-1.54,1.68-4.48,3.22-9.381,3.22-8.4,0-16.241-4.62-21.422-9.521Z" transform="translate(517.143 293.767)" fill="#fff"/>
    <path id="パス_543" data-name="パス 543" d="M78.546-20.582H48.024L63.705-35.143c8.4-7.841,13.861-15.961,13.861-27.722,0-12.041-5.32-19.182-9.1-22.962-4.2-4.2-12.321-9.661-26.322-9.661-11.621,0-20.162,3.78-26.462,10.081A37.143,37.143,0,0,0,5.32-59.5H30.382c.14-3.22,1.12-8.541,3.36-11.481a10.03,10.03,0,0,1,8.121-3.78,9.189,9.189,0,0,1,6.861,2.8c2.8,3.08,2.8,7.981,2.8,8.961,0,6.02-2.52,10.641-5.04,14.561C42-41.3,35.7-33.6,27.3-24.782L3.64,0H78.546Z" transform="translate(71.907 414.317)" fill="#fff"/>
    <path id="パス_540" data-name="パス 540" d="M42-73.786a11.4,11.4,0,0,1,7.421,2.94c4.9,4.34,8.121,16.241,8.121,24.5,0,7.981-2.94,19.742-8.121,24.222A11.4,11.4,0,0,1,42-19.182a11.4,11.4,0,0,1-7.421-2.94c-5.46-4.76-8.121-16.941-8.121-24.362,0-8.681,3.08-20.022,8.121-24.362A11.4,11.4,0,0,1,42-73.786ZM81.627-46.624c0-16.521-5.46-29.962-13.861-38.223A36.843,36.843,0,0,0,42-95.488,36.843,36.843,0,0,0,16.241-84.847C7.841-76.586,2.38-63.145,2.38-46.624c0,16.381,5.46,29.822,13.861,38.083A36.843,36.843,0,0,0,42,2.1,36.843,36.843,0,0,0,67.766-8.541C76.166-16.8,81.627-30.242,81.627-46.624Z" transform="translate(159.274 414.317)" fill="#fff"/>
    <path id="パス_534" data-name="パス 534" d="M78.546-20.582H48.024L63.705-35.143c8.4-7.841,13.861-15.961,13.861-27.722,0-12.041-5.32-19.182-9.1-22.962-4.2-4.2-12.321-9.661-26.322-9.661-11.621,0-20.162,3.78-26.462,10.081A37.143,37.143,0,0,0,5.32-59.5H30.382c.14-3.22,1.12-8.541,3.36-11.481a10.03,10.03,0,0,1,8.121-3.78,9.189,9.189,0,0,1,6.861,2.8c2.8,3.08,2.8,7.981,2.8,8.961,0,6.02-2.52,10.641-5.04,14.561C42-41.3,35.7-33.6,27.3-24.782L3.64,0H78.546Z" transform="translate(245.101 414.317)" fill="#fff"/>
    <path id="パス_533" data-name="パス 533" d="M69.306-93.388H20.722L12.6-43.124a37.614,37.614,0,0,1,17.221-3.92c3.08,0,11.761.14,16.8,4.62A13.183,13.183,0,0,1,51.1-32.343a13.954,13.954,0,0,1-3.64,9.521c-2.8,2.94-7.281,4.62-12.181,4.62a34.7,34.7,0,0,1-14-3.22,45.251,45.251,0,0,1-11.2-7.561L6.441-6.3C14-1.54,23.8,2.1,37.943,2.1,46.9,2.1,58.385.56,67.065-8.4c4.48-4.62,8.961-12.181,8.961-23.382,0-10.781-4.34-17.921-8.541-22.122-4.34-4.48-12.181-9.241-24.642-9.241a52.024,52.024,0,0,0-7.561.7l1.68-10.361H69.306Z" transform="translate(330.228 414.317)" fill="#fff"/>
    <path id="パス_532" data-name="パス 532" d="M0,0H525.179V396.775H0Z" transform="translate(71.911 54)" fill="none"/>
  </g>
</svg>
