<svg xmlns="http://www.w3.org/2000/svg" width="975" height="161.677" viewBox="0 0 975 161.677">
  <g id="グループ_232" data-name="グループ 232" transform="translate(-473 -1160)">
    <g id="グループ_227" data-name="グループ 227" transform="translate(-74 21)">
      <g id="長方形_216" data-name="長方形 216" transform="translate(547 1139)" fill="#fff" stroke="#000b4d" stroke-linecap="round" stroke-width="4">
        <rect width="975" height="137" stroke="none"/>
        <rect x="2" y="2" width="971" height="133" fill="none"/>
      </g>
      <rect id="長方形_219" data-name="長方形 219" width="941" height="107" transform="translate(564 1154)" fill="none"/>
      <path id="パス_532" data-name="パス 532" d="M-212.31-3.276a2.019,2.019,0,0,1,1.3,1.176,2.153,2.153,0,0,1,0,1.764l-1.008,2.142a2.457,2.457,0,0,1-1.323,1.3,2.3,2.3,0,0,1-1.827,0,59.705,59.705,0,0,1-11.172-5.964.14.14,0,0,0-.189-.021.206.206,0,0,0-.105.189V1.806a2.3,2.3,0,0,1-.714,1.68,2.3,2.3,0,0,1-1.68.714h-3.192a2.3,2.3,0,0,1-1.68-.714,2.3,2.3,0,0,1-.714-1.68V-2.688a.206.206,0,0,0-.1-.189.14.14,0,0,0-.189.021,60.215,60.215,0,0,1-11.172,5.964,2.3,2.3,0,0,1-1.827,0,2.457,2.457,0,0,1-1.323-1.3l-1.008-2.142a2.055,2.055,0,0,1,0-1.722,2.172,2.172,0,0,1,1.3-1.176A65.773,65.773,0,0,0-238.35-7.812a.142.142,0,0,0,.042-.105q0-.063-.084-.063h-6.636a2.3,2.3,0,0,1-1.68-.714,2.3,2.3,0,0,1-.714-1.68V-22.386a2.3,2.3,0,0,1,.714-1.68,2.3,2.3,0,0,1,1.68-.714h10.038a.334.334,0,0,0,.378-.378v-.714a.334.334,0,0,0-.378-.378h-12.558a2.3,2.3,0,0,1-1.68-.714,2.3,2.3,0,0,1-.714-1.68v-1.092a2.3,2.3,0,0,1,.714-1.68,2.3,2.3,0,0,1,1.68-.714h12.6a.3.3,0,0,0,.336-.336,2.3,2.3,0,0,1,.714-1.68,2.3,2.3,0,0,1,1.68-.714h3.192a2.3,2.3,0,0,1,1.68.714,2.3,2.3,0,0,1,.714,1.68q0,.336.378.336H-213.7a2.3,2.3,0,0,1,1.68.714,2.3,2.3,0,0,1,.714,1.68v1.092a2.3,2.3,0,0,1-.714,1.68,2.3,2.3,0,0,1-1.68.714h-12.558a.334.334,0,0,0-.378.378v.714a.334.334,0,0,0,.378.378h10.038a2.3,2.3,0,0,1,1.68.714,2.3,2.3,0,0,1,.714,1.68v12.012a2.3,2.3,0,0,1-.714,1.68,2.3,2.3,0,0,1-1.68.714h-6.636a.1.1,0,0,0-.1.063.1.1,0,0,0,.021.105A64.751,64.751,0,0,0-212.31-3.276Zm-22.3-9.7v-.714a.334.334,0,0,0-.378-.378H-239.9a.334.334,0,0,0-.378.378v.714a.334.334,0,0,0,.378.378h4.914A.334.334,0,0,0-234.612-12.978Zm0-5.67v-.714a.334.334,0,0,0-.378-.378H-239.9a.334.334,0,0,0-.378.378v.714a.334.334,0,0,0,.378.378h4.914A.334.334,0,0,0-234.612-18.648Zm7.98-.714v.714a.334.334,0,0,0,.378.378h4.956q.336,0,.336-.378v-.714q0-.378-.336-.378h-4.956A.334.334,0,0,0-226.632-19.362Zm0,6.384a.334.334,0,0,0,.378.378h4.956q.336,0,.336-.378v-.714q0-.378-.336-.378h-4.956a.334.334,0,0,0-.378.378Zm56.364,9.828a2.5,2.5,0,0,1,.756,1.722,2.275,2.275,0,0,1-.63,1.722l-1.638,1.722a2.39,2.39,0,0,1-1.638.777,2.152,2.152,0,0,1-1.68-.609q-3.234-2.982-6.678-5.628a2.175,2.175,0,0,1-.861-1.533,2.061,2.061,0,0,1,.525-1.659l1.512-1.848a2.382,2.382,0,0,1,1.68-.882,2.586,2.586,0,0,1,1.806.5Q-173.5-6.132-170.268-3.15Zm-35.574-22.89a2.3,2.3,0,0,1-1.68-.714,2.3,2.3,0,0,1-.714-1.68v-1.3a2.3,2.3,0,0,1,.714-1.68,2.3,2.3,0,0,1,1.68-.714h12.6a.3.3,0,0,0,.336-.336,2.3,2.3,0,0,1,.714-1.68,2.3,2.3,0,0,1,1.68-.714h3.192a2.3,2.3,0,0,1,1.68.714,2.3,2.3,0,0,1,.714,1.68.3.3,0,0,0,.336.336h12.6a2.3,2.3,0,0,1,1.68.714,2.3,2.3,0,0,1,.714,1.68v1.3a2.3,2.3,0,0,1-.714,1.68,2.3,2.3,0,0,1-1.68.714Zm32.886,13.986a2.3,2.3,0,0,1-.714,1.68,2.3,2.3,0,0,1-1.68.714h-8.778a.334.334,0,0,0-.378.378V-4.2q0,2.142-.063,3.36a8.93,8.93,0,0,1-.4,2.268,4.182,4.182,0,0,1-.756,1.512,3.369,3.369,0,0,1-1.449.8,8.448,8.448,0,0,1-2.163.4q-1.134.063-3.15.063-1.848,0-3.528-.084a2.465,2.465,0,0,1-1.722-.777,2.762,2.762,0,0,1-.8-1.743l-.084-1.722a2.245,2.245,0,0,1,.168-1.008l-.084-.042h-.042q-2.562,2.268-4.368,3.57a2.529,2.529,0,0,1-1.827.462,2.375,2.375,0,0,1-1.617-.924L-207.774.168a2.3,2.3,0,0,1-.483-1.722,2.015,2.015,0,0,1,.9-1.512,61.262,61.262,0,0,0,6.72-5.712,2.276,2.276,0,0,1,1.659-.714,2.346,2.346,0,0,1,1.659.672l1.47,1.47a2.446,2.446,0,0,1,.735,1.743,2.3,2.3,0,0,1-.693,1.743q-.168.168-.693.714t-.819.84q-.042.042,0,.042h.084a2.645,2.645,0,0,1,.84-.126l2.436.084a2.386,2.386,0,0,0,1.281-.189,2.386,2.386,0,0,0,.189-1.281v-5.5a.334.334,0,0,0-.378-.378h-9.618a2.3,2.3,0,0,1-1.68-.714,2.3,2.3,0,0,1-.714-1.68v-9.912a2.3,2.3,0,0,1,.714-1.68,2.3,2.3,0,0,1,1.68-.714h27.132a2.3,2.3,0,0,1,1.68.714,2.3,2.3,0,0,1,.714,1.68Zm-7.77-3.444v-3.234a.334.334,0,0,0-.378-.378h-15.624a.334.334,0,0,0-.378.378V-15.5a.334.334,0,0,0,.378.378H-181.1A.334.334,0,0,0-180.726-15.5Zm41.58-18.06a2.359,2.359,0,0,1,1.848-.168,2.307,2.307,0,0,1,1.428,1.176q.252.462.714,1.386t.63,1.218a2.315,2.315,0,0,1,.105,1.806,2.23,2.23,0,0,1-1.2,1.344,2.409,2.409,0,0,1-1.869.084,2.467,2.467,0,0,1-1.407-1.218q-.63-1.218-1.3-2.478a2.264,2.264,0,0,1-.189-1.785,2.089,2.089,0,0,1,1.155-1.365Zm10.206-.084q1.386,2.646,1.428,2.73a2.208,2.208,0,0,1,.147,1.806,2.23,2.23,0,0,1-1.2,1.344l-.126.084a2.363,2.363,0,0,1-1.827.1,2.384,2.384,0,0,1-1.407-1.2q-.21-.42-.672-1.3t-.714-1.3a2.308,2.308,0,0,1-.189-1.806,2.093,2.093,0,0,1,1.155-1.386l.126-.042a2.425,2.425,0,0,1,1.848-.189A2.233,2.233,0,0,1-128.94-33.642Zm-3.528,9.87.756,2.6a2.3,2.3,0,0,1-.168,1.827,2.317,2.317,0,0,1-1.386,1.155,164.671,164.671,0,0,1-21.126,4.914.41.41,0,0,0-.378.42V-8.19a3.405,3.405,0,0,0,.588,2.352,3.405,3.405,0,0,0,2.352.588q8.274,0,16.968-.5a2.221,2.221,0,0,1,1.68.63,2.311,2.311,0,0,1,.756,1.638l.042,2.562A2.356,2.356,0,0,1-133.014.8a2.25,2.25,0,0,1-1.638.8q-9.072.5-17.808.5-5.8,0-8.148-2.289T-162.96-8.4V-29.106a2.3,2.3,0,0,1,.714-1.68,2.3,2.3,0,0,1,1.68-.714h3.4a2.3,2.3,0,0,1,1.68.714,2.3,2.3,0,0,1,.714,1.68v7.938q0,.378.378.294a157.009,157.009,0,0,0,18.984-4.452,2.247,2.247,0,0,1,1.806.168A2.332,2.332,0,0,1-132.468-23.772Zm39.438-.714a2.6,2.6,0,0,1,1.7.8,2.24,2.24,0,0,1,.651,1.722q-.378,11.634-4.956,17.01t-14.826,6.72a2.5,2.5,0,0,1-1.827-.462,2.531,2.531,0,0,1-1.029-1.6l-.336-1.68a2.158,2.158,0,0,1,.357-1.68,2.192,2.192,0,0,1,1.491-.924q7.728-1.176,10.878-5.019t3.444-12.7a2.311,2.311,0,0,1,.756-1.638,2.221,2.221,0,0,1,1.68-.63Zm-17.64,9.366a2.274,2.274,0,0,1-.273,1.827,2.228,2.228,0,0,1-1.449,1.071l-1.806.42A2.347,2.347,0,0,1-116-12.117a2.244,2.244,0,0,1-1.05-1.449q-1.092-4.452-1.68-6.636a2.324,2.324,0,0,1,.252-1.827,2.158,2.158,0,0,1,1.428-1.071l1.638-.378a2.218,2.218,0,0,1,1.806.273,2.589,2.589,0,0,1,1.134,1.491Q-111.342-17.682-110.67-15.12Zm4.326-9.366a2.463,2.463,0,0,1,1.827.294,2.311,2.311,0,0,1,1.113,1.428q1.344,5.04,1.806,6.8a2.274,2.274,0,0,1-.273,1.827,2.228,2.228,0,0,1-1.449,1.071l-1.806.42a2.4,2.4,0,0,1-1.806-.294,2.327,2.327,0,0,1-1.092-1.428q-.084-.252-1.806-6.846a2.266,2.266,0,0,1,.252-1.806,2.171,2.171,0,0,1,1.428-1.05Zm56.784-3.528a2.2,2.2,0,0,1,.882,1.848q-.294,13.86-6.51,20.6T-74.844,2.688a2.382,2.382,0,0,1-1.806-.483A2.645,2.645,0,0,1-77.658.588l-.42-2.436a2.16,2.16,0,0,1,.42-1.743,2.212,2.212,0,0,1,1.512-.9q9.24-1.26,13.461-4.935t5.229-11.655q.084-.336-.294-.336h-10.5a.493.493,0,0,0-.5.294,37.692,37.692,0,0,1-6.174,9.114,2.29,2.29,0,0,1-1.68.8,2.554,2.554,0,0,1-1.806-.63l-2.058-1.722a2.243,2.243,0,0,1-.777-1.6,2.361,2.361,0,0,1,.567-1.722,32.229,32.229,0,0,0,6.8-13.524,2.734,2.734,0,0,1,1.008-1.638,2.65,2.65,0,0,1,1.806-.588l2.982.168a2.359,2.359,0,0,1,1.638.8,1.858,1.858,0,0,1,.462,1.638q-.042.294-.21,1.092a.253.253,0,0,0,.063.252.3.3,0,0,0,.231.126h11.97a.2.2,0,0,0,.189-.126.166.166,0,0,0-.021-.21q-.168-.336-.5-.966t-.5-.966a2.08,2.08,0,0,1-.147-1.659,2.119,2.119,0,0,1,1.071-1.281,2.128,2.128,0,0,1,1.7-.126A2.336,2.336,0,0,1-50.82-32.76q.21.378.588,1.113t.588,1.113a1.99,1.99,0,0,1-.042,1.974A.388.388,0,0,0-49.56-28.014Zm5.166-5.376.609,1.218.567,1.134a2.082,2.082,0,0,1,.126,1.68,2.177,2.177,0,0,1-1.134,1.26,2.127,2.127,0,0,1-1.7.126,2.336,2.336,0,0,1-1.323-1.134q-.378-.756-1.218-2.268a2.192,2.192,0,0,1-.147-1.7A2.1,2.1,0,0,1-47.5-34.356a2.267,2.267,0,0,1,1.764-.126A2.2,2.2,0,0,1-44.394-33.39Zm39.48,6.93a2.3,2.3,0,0,1,1.68.714,2.3,2.3,0,0,1,.714,1.68v2.352a2.3,2.3,0,0,1-.714,1.68,2.3,2.3,0,0,1-1.68.714H-8.442a.334.334,0,0,0-.378.378v1.722q0,9.2-4.431,13.755T-27.888,2.268a2.5,2.5,0,0,1-1.827-.462A2.531,2.531,0,0,1-30.744.21l-.5-2.52a2.158,2.158,0,0,1,.357-1.68A2.052,2.052,0,0,1-29.4-4.872a31.024,31.024,0,0,0,6.111-1.26A9.237,9.237,0,0,0-19.53-8.421a8.015,8.015,0,0,0,1.974-3.528,20.913,20.913,0,0,0,.546-5.271v-1.722a.334.334,0,0,0-.378-.378h-7.644a.334.334,0,0,0-.378.378v4.788a2.3,2.3,0,0,1-.714,1.68,2.3,2.3,0,0,1-1.68.714h-2.982a2.3,2.3,0,0,1-1.68-.714,2.3,2.3,0,0,1-.714-1.68v-4.788q0-.378-.336-.378h-3.57a2.3,2.3,0,0,1-1.68-.714,2.3,2.3,0,0,1-.714-1.68v-2.352a2.3,2.3,0,0,1,.714-1.68,2.3,2.3,0,0,1,1.68-.714h3.57q.336,0,.336-.378v-3.948a2.3,2.3,0,0,1,.714-1.68,2.3,2.3,0,0,1,1.68-.714H-27.8a2.3,2.3,0,0,1,1.68.714,2.3,2.3,0,0,1,.714,1.68v3.948a.334.334,0,0,0,.378.378h7.644a.334.334,0,0,0,.378-.378v-3.948a2.3,2.3,0,0,1,.714-1.68,2.3,2.3,0,0,1,1.68-.714h3.4a2.3,2.3,0,0,1,1.68.714,2.3,2.3,0,0,1,.714,1.68v3.948a.334.334,0,0,0,.378.378Zm41.076-3.864,1.722,2.058a2.269,2.269,0,0,1,.588,1.764,2.3,2.3,0,0,1-.84,1.638A58.939,58.939,0,0,1,28.014-18.4a.626.626,0,0,0-.336.546V-.084a2.3,2.3,0,0,1-.714,1.68,2.3,2.3,0,0,1-1.68.714H21.462a2.3,2.3,0,0,1-1.68-.714,2.3,2.3,0,0,1-.714-1.68V-13.9a.247.247,0,0,0-.126-.21.278.278,0,0,0-.252-.042A65.119,65.119,0,0,1,6.93-10.878a2.281,2.281,0,0,1-1.785-.42,2.347,2.347,0,0,1-.987-1.554L3.738-15.5a2.2,2.2,0,0,1,.4-1.743,2.486,2.486,0,0,1,1.533-.987,61.262,61.262,0,0,0,14.6-4.557A55.2,55.2,0,0,0,32.8-30.534a2.47,2.47,0,0,1,1.743-.588A2.136,2.136,0,0,1,36.162-30.324ZM78.834-15.5A2.22,2.22,0,0,1,80.2-14.3a2.346,2.346,0,0,1,.1,1.869L79.3-9.408A2.229,2.229,0,0,1,78.12-8.043a2.292,2.292,0,0,1-1.848.1q-8.442-2.94-17.178-5.208a.176.176,0,0,0-.21.063.361.361,0,0,0-.084.231V.126a2.3,2.3,0,0,1-.714,1.68,2.3,2.3,0,0,1-1.68.714H52.794a2.3,2.3,0,0,1-1.68-.714A2.3,2.3,0,0,1,50.4.126V-30.366a2.3,2.3,0,0,1,.714-1.68,2.3,2.3,0,0,1,1.68-.714h3.612a2.3,2.3,0,0,1,1.68.714,2.3,2.3,0,0,1,.714,1.68V-21.8a.422.422,0,0,0,.336.462Q69.594-18.732,78.834-15.5ZM116.34-17.85q.462.84,1.386,2.6a2.253,2.253,0,0,1,.084,1.806,2.307,2.307,0,0,1-1.218,1.344,2.36,2.36,0,0,1-1.848.084,2.47,2.47,0,0,1-1.386-1.218q-.21-.378-1.344-2.478a2.159,2.159,0,0,1-.168-1.764,2.3,2.3,0,0,1,1.176-1.386h.042a2.359,2.359,0,0,1,1.848-.168A2.307,2.307,0,0,1,116.34-17.85Zm6.72-1.512q1.386,2.646,1.428,2.73a2.208,2.208,0,0,1,.147,1.806,2.23,2.23,0,0,1-1.2,1.344l-.126.084a2.363,2.363,0,0,1-1.827.105,2.384,2.384,0,0,1-1.407-1.2q-.21-.42-.672-1.3t-.714-1.3A2.308,2.308,0,0,1,118.5-18.9a2.093,2.093,0,0,1,1.155-1.386l.126-.042a2.425,2.425,0,0,1,1.848-.189A2.233,2.233,0,0,1,123.06-19.362ZM117.432-2.6l.294,2.562a2.429,2.429,0,0,1-.462,1.806,2.246,2.246,0,0,1-1.6.924,30.5,30.5,0,0,1-3.948.252q-7.728,0-12.369-3.969A13.391,13.391,0,0,1,94.71-11.76a13.284,13.284,0,0,1,1.68-6.3,16.523,16.523,0,0,1,4.578-5.376q.042,0,.042-.084a.037.037,0,0,0-.042-.042q-6.006.168-11.97.252a2.231,2.231,0,0,1-1.659-.714,2.333,2.333,0,0,1-.693-1.68v-2.352a2.333,2.333,0,0,1,.693-1.68A2.231,2.231,0,0,1,89-30.45q16.254-.084,30.324-.714a2.288,2.288,0,0,1,1.7.63A2.279,2.279,0,0,1,121.8-28.9l.042,2.352a2.343,2.343,0,0,1-.63,1.743,2.476,2.476,0,0,1-1.68.819q-8.064.8-12.138,3.822a9.1,9.1,0,0,0-4.074,7.56,7.655,7.655,0,0,0,2.436,6.006A9.2,9.2,0,0,0,112.14-4.41a20.328,20.328,0,0,0,2.6-.168,2.412,2.412,0,0,1,1.785.441A2.169,2.169,0,0,1,117.432-2.6Zm28.518-15.96a2.3,2.3,0,0,1-.714,1.68,2.3,2.3,0,0,1-1.68.714h-7.938a.334.334,0,0,0-.378.378v17.6a2.3,2.3,0,0,1-.714,1.68,2.3,2.3,0,0,1-1.68.714h-2.562a2.3,2.3,0,0,1-1.68-.714,2.3,2.3,0,0,1-.714-1.68V-31.626a2.3,2.3,0,0,1,.714-1.68,2.3,2.3,0,0,1,1.68-.714h13.272a2.3,2.3,0,0,1,1.68.714,2.3,2.3,0,0,1,.714,1.68Zm-5.46-2.6v-1.176q0-.336-.378-.336h-4.494q-.378,0-.378.336v1.176a.334.334,0,0,0,.378.378h4.494A.334.334,0,0,0,140.49-21.168Zm0-6.09v-1.134a.334.334,0,0,0-.378-.378h-4.494a.334.334,0,0,0-.378.378v1.134a.334.334,0,0,0,.378.378h4.494A.334.334,0,0,0,140.49-27.258Zm23.226-6.762a2.3,2.3,0,0,1,1.68.714,2.3,2.3,0,0,1,.714,1.68V-4.2q0,2.142-.063,3.36a8.931,8.931,0,0,1-.4,2.268,4.182,4.182,0,0,1-.756,1.512,3.351,3.351,0,0,1-1.407.8,7.818,7.818,0,0,1-2.079.4q-1.092.063-3.066.063-1.05,0-1.848-.042a2.471,2.471,0,0,1-2.394-1.89.135.135,0,0,0-.126-.084.242.242,0,0,0-.168.084,2.2,2.2,0,0,1-1.848.882h-1.3a2.3,2.3,0,0,1-1.68-.714,2.3,2.3,0,0,1-.714-1.68V-3.192a.334.334,0,0,0-.378-.378h-2.226q-.378,0-.42.294a13.565,13.565,0,0,1-2.9,5.544,2.573,2.573,0,0,1-1.722.924,2.782,2.782,0,0,1-1.932-.462l-1.008-.63a1.755,1.755,0,0,1-.861-1.365A1.949,1.949,0,0,1,137.3-.84a10.451,10.451,0,0,0,1.68-2.394q.168-.336-.168-.336h-.126a2.077,2.077,0,0,1-1.554-.651A2.182,2.182,0,0,1,136.5-5.8a2.112,2.112,0,0,1,.63-1.554,2.111,2.111,0,0,1,1.554-.63h.84q.336,0,.336-.378V-9.744a.3.3,0,0,0-.336-.336h-.378a2.145,2.145,0,0,1-1.575-.651,2.145,2.145,0,0,1-.651-1.575,2.077,2.077,0,0,1,.651-1.554,2.182,2.182,0,0,1,1.575-.63H154.9a2.111,2.111,0,0,1,1.554.63,2.112,2.112,0,0,1,.63,1.554,2.182,2.182,0,0,1-.63,1.575,2.077,2.077,0,0,1-1.554.651h-.168q-.378,0-.378.336v1.386a.334.334,0,0,0,.378.378h.588a2.112,2.112,0,0,1,1.554.63A2.112,2.112,0,0,1,157.5-5.8a2.182,2.182,0,0,1-.63,1.575,2.077,2.077,0,0,1-1.554.651h-.588a.334.334,0,0,0-.378.378v1.428q0,.084.1.126t.147,0a2.012,2.012,0,0,1,1.47-.5q.5.042,1.008.042a3.076,3.076,0,0,0,1.449-.189q.231-.189.231-1.281V-15.792a.334.334,0,0,0-.378-.378h-8.358a2.3,2.3,0,0,1-1.68-.714,2.3,2.3,0,0,1-.714-1.68V-31.626a2.3,2.3,0,0,1,.714-1.68,2.3,2.3,0,0,1,1.68-.714ZM148.26-8.358V-9.744q0-.336-.378-.336h-1.806a.3.3,0,0,0-.336.336v1.386q0,.378.336.378h1.806A.334.334,0,0,0,148.26-8.358Zm10.5-12.81v-1.176q0-.336-.378-.336h-4.914q-.378,0-.378.336v1.176a.334.334,0,0,0,.378.378h4.914A.334.334,0,0,0,158.76-21.168Zm0-6.09v-1.134a.334.334,0,0,0-.378-.378h-4.914a.334.334,0,0,0-.378.378v1.134a.334.334,0,0,0,.378.378h4.914A.334.334,0,0,0,158.76-27.258ZM207.06-3.15a2.3,2.3,0,0,1,1.68.714,2.3,2.3,0,0,1,.714,1.68V.336a2.3,2.3,0,0,1-.714,1.68,2.3,2.3,0,0,1-1.68.714H190.134a.186.186,0,0,0-.21.21,1.221,1.221,0,0,1-1.26,1.26h-4.116a2.3,2.3,0,0,1-1.68-.714,2.3,2.3,0,0,1-.714-1.68V-6.678a.462.462,0,0,0-.336-.462L180.6-7.6l-.5-.252q-.252-.168-.252.126V1.806a2.3,2.3,0,0,1-.714,1.68,2.3,2.3,0,0,1-1.68.714H175.1a2.3,2.3,0,0,1-1.68-.714,2.3,2.3,0,0,1-.714-1.68v-14.07q0-.084-.063-.084a.142.142,0,0,0-.105.042q-.42.672-1.26,1.848a.953.953,0,0,1-1.071.378.937.937,0,0,1-.735-.882l-.672-4.956a6.524,6.524,0,0,1,1.05-4.368A40.569,40.569,0,0,0,174.51-32.34a2.333,2.333,0,0,1,1.05-1.512,2.44,2.44,0,0,1,1.806-.378l2.436.42a2.2,2.2,0,0,1,1.932,1.932q0,.084.063.084a.142.142,0,0,0,.105-.042,2.389,2.389,0,0,1,.861-1.113,2.271,2.271,0,0,1,1.365-.441h1.722a2.3,2.3,0,0,1,1.68.714,2.3,2.3,0,0,1,.714,1.68v1.428q0,.378.336.378h2.436a.334.334,0,0,0,.378-.378v-2.478a2.3,2.3,0,0,1,.714-1.68,2.3,2.3,0,0,1,1.68-.714h2.772a2.3,2.3,0,0,1,1.68.714,2.3,2.3,0,0,1,.714,1.68v2.478q0,.378.336.378h2.436a.334.334,0,0,0,.378-.378V-31a2.3,2.3,0,0,1,.714-1.68,2.3,2.3,0,0,1,1.68-.714h1.722a2.3,2.3,0,0,1,1.68.714,2.3,2.3,0,0,1,.714,1.68v5.082a2.3,2.3,0,0,1-.714,1.68,2.3,2.3,0,0,1-1.68.714h-8.106a.037.037,0,0,0-.042.042.037.037,0,0,0,.042.042l3.738.714a1.229,1.229,0,0,1,.861.546,1.228,1.228,0,0,1,.189,1.008q0,.168.126.168h3.612a2.3,2.3,0,0,1,1.68.714,2.3,2.3,0,0,1,.714,1.68v.672a2.3,2.3,0,0,1-.714,1.68,2.3,2.3,0,0,1-1.68.714h-4.578q-.378,0-.378.336v.756a.334.334,0,0,0,.378.378h3.948a1.91,1.91,0,0,1,1.407.567,1.911,1.911,0,0,1,.567,1.407,1.944,1.944,0,0,1-.588,1.428,1.9,1.9,0,0,1-1.386.588h-3.948q-.378,0-.378.336v.756a.334.334,0,0,0,.378.378h3.948a1.91,1.91,0,0,1,1.407.567,1.911,1.911,0,0,1,.567,1.407,1.944,1.944,0,0,1-.588,1.428,1.9,1.9,0,0,1-1.386.588h-3.948q-.378,0-.378.336v.756a.334.334,0,0,0,.378.378ZM183.666-23.268q.084-.252-.21-.252a1.659,1.659,0,0,1-1.218-.5,1.659,1.659,0,0,1-.5-1.218v-5.376a.121.121,0,0,0-.084-.042,53.11,53.11,0,0,1-1.68,6.342,1.692,1.692,0,0,0-.126.672V-12.18q.042.042.126,0A95.321,95.321,0,0,0,183.666-23.268Zm10.668,19.74v-.756q0-.336-.378-.336H190.3q-.378,0-.378.336v.756a.334.334,0,0,0,.378.378h3.654A.334.334,0,0,0,194.334-3.528Zm0-5.46v-.756q0-.336-.378-.336H190.3q-.378,0-.378.336v.756a.334.334,0,0,0,.378.378h3.654A.334.334,0,0,0,194.334-8.988Zm0-5.46V-15.2q0-.336-.378-.336H190.3q-.378,0-.378.336v.756a.334.334,0,0,0,.378.378h3.654A.334.334,0,0,0,194.334-14.448Zm.672-6.888q.042-.252.189-.882t.231-.966q.084-.336-.294-.336H186.4a.037.037,0,0,0-.042.042.037.037,0,0,0,.042.042l3.906.714a1.1,1.1,0,0,1,.819.546,1.326,1.326,0,0,1,.147,1.008q-.084.168.168.168h3.15A.4.4,0,0,0,195.006-21.336Zm38.682-9.324a2.164,2.164,0,0,1,1.638.714,2.221,2.221,0,0,1,.63,1.68l-1.008,15.792a2.6,2.6,0,0,1-.8,1.7,2.383,2.383,0,0,1-1.722.693h-2.772a2.383,2.383,0,0,1-1.722-.693,2.6,2.6,0,0,1-.8-1.7l-1.008-15.792a2.221,2.221,0,0,1,.63-1.68,2.164,2.164,0,0,1,1.638-.714Zm-.84,23.94a2.3,2.3,0,0,1,1.68.714,2.3,2.3,0,0,1,.714,1.68v1.932a2.3,2.3,0,0,1-.714,1.68,2.3,2.3,0,0,1-1.68.714h-3.612a2.3,2.3,0,0,1-1.68-.714,2.3,2.3,0,0,1-.714-1.68V-4.326a2.3,2.3,0,0,1,.714-1.68,2.3,2.3,0,0,1,1.68-.714Z" transform="translate(1031 1224)" fill="#000b4d"/>
      <g id="パス_377" data-name="パス 377" transform="translate(1468.867 1223.789)" fill="#000b4d">
        <path d="M 35.31280136108398 35.31280136108398 L 2.414222478866577 35.31280136108398 L 35.31280136108398 2.414222478866577 L 35.31280136108398 35.31280136108398 Z" stroke="none"/>
        <path d="M 34.31280136108398 4.828422546386719 L 4.828422546386719 34.31280136108398 L 34.31280136108398 34.31280136108398 L 34.31280136108398 4.828422546386719 M 36.31280136108398 3.814697265625e-06 L 36.31280136108398 36.31280136108398 L 3.814697265625e-06 36.31280136108398 L 36.31280136108398 3.814697265625e-06 Z" stroke="none" fill="#000b4d"/>
      </g>
      <g id="パス_380" data-name="パス 380" transform="translate(600.313 1190.313) rotate(180)" fill="#000b4d">
        <path d="M 35.31280136108398 35.31280136108398 L 2.414222478866577 35.31280136108398 L 35.31280136108398 2.414222478866577 L 35.31280136108398 35.31280136108398 Z" stroke="none"/>
        <path d="M 34.31280136108398 4.828422546386719 L 4.828422546386719 34.31280136108398 L 34.31280136108398 34.31280136108398 L 34.31280136108398 4.828422546386719 M 36.31280136108398 3.814697265625e-06 L 36.31280136108398 36.31280136108398 L 3.814697265625e-06 36.31280136108398 L 36.31280136108398 3.814697265625e-06 Z" stroke="none" fill="#000b4d"/>
      </g>
      <g id="パス_381" data-name="パス 381" transform="translate(600.313 1190.313) rotate(180)" fill="#000b4d">
        <path d="M 35.31280136108398 35.31280136108398 L 2.414222478866577 35.31280136108398 L 35.31280136108398 2.414222478866577 L 35.31280136108398 35.31280136108398 Z" stroke="none"/>
        <path d="M 34.31280136108398 4.828422546386719 L 4.828422546386719 34.31280136108398 L 34.31280136108398 34.31280136108398 L 34.31280136108398 4.828422546386719 M 36.31280136108398 3.814697265625e-06 L 36.31280136108398 36.31280136108398 L 3.814697265625e-06 36.31280136108398 L 36.31280136108398 3.814697265625e-06 Z" stroke="none" fill="#000b4d"/>
      </g>
    </g>
    <g id="パス_382" data-name="パス 382" transform="translate(959.677 1270.323) rotate(45)" fill="#000b4d">
      <path d="M 35.31280136108398 35.31280136108398 L 2.414222478866577 35.31280136108398 L 35.31280136108398 2.414222478866577 L 35.31280136108398 35.31280136108398 Z" stroke="none"/>
      <path d="M 34.31280136108398 4.828422546386719 L 4.828422546386719 34.31280136108398 L 34.31280136108398 34.31280136108398 L 34.31280136108398 4.828422546386719 M 36.31280136108398 3.814697265625e-06 L 36.31280136108398 36.31280136108398 L 3.814697265625e-06 36.31280136108398 L 36.31280136108398 3.814697265625e-06 Z" stroke="none" fill="#000b4d"/>
    </g>
    <path id="パス_383" data-name="パス 383" d="M36.313,0V36.313H0Z" transform="translate(959.677 1264.323) rotate(45)" fill="#fff"/>
  </g>
</svg>
