<?xml version="1.0" encoding="UTF-8" standalone="no"?>
<!DOCTYPE svg PUBLIC "-//W3C//DTD SVG 1.1//EN" "http://www.w3.org/Graphics/SVG/1.1/DTD/svg11.dtd">
<svg width="100%" height="100%" viewBox="0 0 975 162" version="1.1" xmlns="http://www.w3.org/2000/svg" xmlns:xlink="http://www.w3.org/1999/xlink" xml:space="preserve" xmlns:serif="http://www.serif.com/" style="fill-rule:evenodd;clip-rule:evenodd;stroke-linecap:round;">
    <g id="グループ_232" transform="matrix(1,0,0,1,-473,-1160)">
        <g id="グループ_227" transform="matrix(1,0,0,1,-74,21)">
            <g id="長方形_216" transform="matrix(1,0,0,1,547,1139)">
                <rect x="0" y="0" width="975" height="137" style="fill:white;"/>
                <rect x="2" y="2" width="971" height="133" style="fill:none;stroke:rgb(0,11,77);stroke-width:4px;"/>
            </g>
            <g id="長方形_219" transform="matrix(1,0,0,1,564,1154)">
                <rect x="0" y="0" width="941" height="107" style="fill:none;"/>
            </g>
            <g id="パス_532" transform="matrix(1.17476,0,0,1.17476,1042.994895,1227.529599)">
                <path d="M-212.31,-3.276C-211.721,-3.102 -211.242,-2.669 -211.01,-2.1C-210.758,-1.539 -210.758,-0.897 -211.01,-0.336L-212.018,1.806C-212.272,2.395 -212.747,2.862 -213.341,3.106C-213.924,3.358 -214.585,3.358 -215.168,3.106C-219.093,1.52 -222.838,-0.48 -226.34,-2.858C-226.388,-2.913 -226.47,-2.922 -226.529,-2.879C-226.597,-2.841 -226.638,-2.768 -226.634,-2.69L-226.634,1.806C-226.63,2.44 -226.889,3.049 -227.348,3.486C-227.785,3.945 -228.394,4.204 -229.028,4.2L-232.22,4.2C-232.854,4.204 -233.463,3.945 -233.9,3.486C-234.359,3.049 -234.618,2.44 -234.614,1.806L-234.614,-2.688C-234.609,-2.765 -234.648,-2.838 -234.714,-2.877C-234.773,-2.92 -234.855,-2.911 -234.903,-2.856C-238.407,-0.481 -242.152,1.518 -246.075,3.108C-246.658,3.36 -247.319,3.36 -247.902,3.108C-248.496,2.864 -248.971,2.397 -249.225,1.808L-250.233,-0.334C-250.485,-0.88 -250.485,-1.51 -250.233,-2.056C-249.984,-2.613 -249.512,-3.04 -248.933,-3.232C-245.278,-4.446 -241.737,-5.978 -238.35,-7.812C-238.322,-7.84 -238.307,-7.878 -238.308,-7.917C-238.308,-7.959 -238.336,-7.98 -238.392,-7.98L-245.028,-7.98C-245.662,-7.976 -246.271,-8.235 -246.708,-8.694C-247.167,-9.131 -247.426,-9.74 -247.422,-10.374L-247.422,-22.386C-247.426,-23.02 -247.167,-23.629 -246.708,-24.066C-246.271,-24.525 -245.662,-24.784 -245.028,-24.78L-234.99,-24.78C-234.974,-24.778 -234.958,-24.777 -234.943,-24.777C-234.759,-24.777 -234.609,-24.927 -234.609,-25.111C-234.609,-25.126 -234.61,-25.142 -234.612,-25.158L-234.612,-25.872C-234.61,-25.888 -234.609,-25.904 -234.609,-25.919C-234.609,-26.103 -234.759,-26.253 -234.943,-26.253C-234.958,-26.253 -234.974,-26.252 -234.99,-26.25L-247.548,-26.25C-248.182,-26.246 -248.791,-26.505 -249.228,-26.964C-249.687,-27.401 -249.946,-28.01 -249.942,-28.644L-249.942,-29.736C-249.946,-30.37 -249.687,-30.979 -249.228,-31.416C-248.791,-31.875 -248.182,-32.134 -247.548,-32.13L-234.948,-32.13C-234.935,-32.128 -234.922,-32.128 -234.91,-32.128C-234.745,-32.128 -234.61,-32.263 -234.61,-32.428C-234.61,-32.44 -234.61,-32.453 -234.612,-32.466C-234.616,-33.1 -234.357,-33.709 -233.898,-34.146C-233.461,-34.605 -232.852,-34.864 -232.218,-34.86L-229.026,-34.86C-228.392,-34.864 -227.783,-34.605 -227.346,-34.146C-226.887,-33.709 -226.628,-33.1 -226.632,-32.466C-226.632,-32.242 -226.506,-32.13 -226.254,-32.13L-213.7,-32.13C-213.066,-32.134 -212.457,-31.875 -212.02,-31.416C-211.561,-30.979 -211.302,-30.37 -211.306,-29.736L-211.306,-28.644C-211.302,-28.01 -211.561,-27.401 -212.02,-26.964C-212.457,-26.505 -213.066,-26.246 -213.7,-26.25L-226.258,-26.25C-226.274,-26.252 -226.29,-26.253 -226.305,-26.253C-226.489,-26.253 -226.639,-26.103 -226.639,-25.919C-226.639,-25.904 -226.638,-25.888 -226.636,-25.872L-226.636,-25.158C-226.638,-25.142 -226.639,-25.126 -226.639,-25.111C-226.639,-24.927 -226.489,-24.777 -226.305,-24.777C-226.29,-24.777 -226.274,-24.778 -226.258,-24.78L-216.22,-24.78C-215.586,-24.784 -214.977,-24.525 -214.54,-24.066C-214.081,-23.629 -213.822,-23.02 -213.826,-22.386L-213.826,-10.374C-213.822,-9.74 -214.081,-9.131 -214.54,-8.694C-214.977,-8.235 -215.586,-7.976 -216.22,-7.98L-222.856,-7.98C-222.899,-7.983 -222.94,-7.957 -222.956,-7.917C-222.97,-7.881 -222.962,-7.84 -222.935,-7.812C-219.536,-5.986 -215.98,-4.468 -212.31,-3.276ZM-234.61,-12.976L-234.61,-13.69C-234.608,-13.706 -234.607,-13.722 -234.607,-13.737C-234.607,-13.921 -234.757,-14.071 -234.941,-14.071C-234.956,-14.071 -234.972,-14.07 -234.988,-14.068L-239.9,-14.068C-239.916,-14.07 -239.932,-14.071 -239.947,-14.071C-240.131,-14.071 -240.281,-13.921 -240.281,-13.737C-240.281,-13.722 -240.28,-13.706 -240.278,-13.69L-240.278,-12.976C-240.28,-12.96 -240.281,-12.944 -240.281,-12.929C-240.281,-12.745 -240.131,-12.595 -239.947,-12.595C-239.932,-12.595 -239.916,-12.596 -239.9,-12.598L-234.986,-12.598C-234.972,-12.596 -234.957,-12.595 -234.942,-12.595C-234.759,-12.595 -234.608,-12.746 -234.608,-12.929C-234.608,-12.945 -234.61,-12.962 -234.612,-12.978L-234.61,-12.976ZM-234.61,-18.646L-234.61,-19.36C-234.608,-19.376 -234.607,-19.392 -234.607,-19.407C-234.607,-19.591 -234.757,-19.741 -234.941,-19.741C-234.956,-19.741 -234.972,-19.74 -234.988,-19.738L-239.9,-19.738C-239.916,-19.74 -239.932,-19.741 -239.947,-19.741C-240.131,-19.741 -240.281,-19.591 -240.281,-19.407C-240.281,-19.392 -240.28,-19.376 -240.278,-19.36L-240.278,-18.646C-240.28,-18.63 -240.281,-18.614 -240.281,-18.599C-240.281,-18.415 -240.131,-18.265 -239.947,-18.265C-239.932,-18.265 -239.916,-18.266 -239.9,-18.268L-234.986,-18.268C-234.972,-18.266 -234.957,-18.265 -234.942,-18.265C-234.759,-18.265 -234.608,-18.416 -234.608,-18.599C-234.608,-18.615 -234.61,-18.632 -234.612,-18.648L-234.61,-18.646ZM-226.63,-19.36L-226.63,-18.646C-226.632,-18.63 -226.633,-18.614 -226.633,-18.599C-226.633,-18.415 -226.483,-18.265 -226.299,-18.265C-226.284,-18.265 -226.268,-18.266 -226.252,-18.268L-221.296,-18.268C-221.072,-18.268 -220.96,-18.394 -220.96,-18.646L-220.96,-19.36C-220.96,-19.612 -221.072,-19.738 -221.296,-19.738L-226.252,-19.738C-226.268,-19.74 -226.285,-19.742 -226.301,-19.742C-226.484,-19.742 -226.635,-19.591 -226.635,-19.408C-226.635,-19.392 -226.634,-19.377 -226.632,-19.362L-226.63,-19.36ZM-226.63,-12.976C-226.632,-12.96 -226.633,-12.944 -226.633,-12.929C-226.633,-12.745 -226.483,-12.595 -226.299,-12.595C-226.284,-12.595 -226.268,-12.596 -226.252,-12.598L-221.296,-12.598C-221.072,-12.598 -220.96,-12.724 -220.96,-12.976L-220.96,-13.69C-220.96,-13.942 -221.072,-14.068 -221.296,-14.068L-226.252,-14.068C-226.268,-14.07 -226.284,-14.071 -226.299,-14.071C-226.483,-14.071 -226.633,-13.921 -226.633,-13.737C-226.633,-13.722 -226.632,-13.706 -226.63,-13.69L-226.63,-12.976ZM-170.266,-3.148C-169.8,-2.694 -169.528,-2.076 -169.51,-1.426C-169.469,-0.789 -169.698,-0.164 -170.14,0.296L-171.778,2.018C-172.201,2.482 -172.789,2.761 -173.416,2.795C-174.037,2.845 -174.651,2.623 -175.096,2.186C-177.252,0.198 -179.478,-1.678 -181.774,-3.442C-182.264,-3.809 -182.577,-4.366 -182.635,-4.975C-182.713,-5.578 -182.521,-6.186 -182.11,-6.634L-180.598,-8.482C-180.185,-8.996 -179.576,-9.315 -178.918,-9.364C-178.275,-9.429 -177.63,-9.25 -177.112,-8.864C-174.704,-7.043 -172.423,-5.138 -170.268,-3.15L-170.266,-3.148ZM-205.84,-26.038C-206.474,-26.034 -207.083,-26.293 -207.52,-26.752C-207.979,-27.189 -208.238,-27.798 -208.234,-28.432L-208.234,-29.732C-208.238,-30.366 -207.979,-30.975 -207.52,-31.412C-207.083,-31.871 -206.474,-32.13 -205.84,-32.126L-193.24,-32.126C-193.227,-32.124 -193.214,-32.124 -193.202,-32.124C-193.037,-32.124 -192.902,-32.259 -192.902,-32.424C-192.902,-32.436 -192.902,-32.449 -192.904,-32.462C-192.908,-33.096 -192.649,-33.705 -192.19,-34.142C-191.753,-34.601 -191.144,-34.86 -190.51,-34.856L-187.318,-34.856C-186.684,-34.86 -186.075,-34.601 -185.638,-34.142C-185.179,-33.705 -184.92,-33.096 -184.924,-32.462C-184.926,-32.449 -184.926,-32.436 -184.926,-32.424C-184.926,-32.259 -184.791,-32.124 -184.626,-32.124C-184.614,-32.124 -184.601,-32.124 -184.588,-32.126L-171.988,-32.126C-171.354,-32.13 -170.745,-31.871 -170.308,-31.412C-169.849,-30.975 -169.59,-30.366 -169.594,-29.732L-169.594,-28.432C-169.59,-27.798 -169.849,-27.189 -170.308,-26.752C-170.745,-26.293 -171.354,-26.034 -171.988,-26.038L-205.84,-26.038ZM-172.954,-12.052C-172.95,-11.418 -173.209,-10.809 -173.668,-10.372C-174.105,-9.913 -174.714,-9.654 -175.348,-9.658L-184.126,-9.658C-184.142,-9.66 -184.158,-9.661 -184.173,-9.661C-184.357,-9.661 -184.507,-9.511 -184.507,-9.327C-184.507,-9.312 -184.506,-9.296 -184.504,-9.28L-184.504,-4.2C-184.504,-2.772 -184.525,-1.652 -184.567,-0.84C-184.602,-0.07 -184.736,0.692 -184.967,1.428C-185.113,1.978 -185.371,2.493 -185.723,2.94C-186.132,3.323 -186.63,3.598 -187.172,3.74C-187.872,3.967 -188.6,4.102 -189.335,4.14C-190.091,4.182 -191.141,4.203 -192.485,4.203C-193.717,4.203 -194.893,4.175 -196.013,4.119C-196.667,4.099 -197.287,3.819 -197.735,3.342C-198.201,2.875 -198.485,2.257 -198.535,1.599L-198.619,-0.123C-198.641,-0.467 -198.584,-0.812 -198.451,-1.131L-198.535,-1.173L-198.577,-1.173C-200.285,0.339 -201.741,1.529 -202.945,2.397C-203.472,2.78 -204.126,2.946 -204.772,2.859C-205.414,2.784 -205.998,2.45 -206.389,1.935L-207.774,0.168C-208.161,-0.317 -208.335,-0.939 -208.257,-1.554C-208.205,-2.169 -207.872,-2.727 -207.357,-3.066C-204.983,-4.806 -202.737,-6.715 -200.637,-8.778C-200.206,-9.234 -199.606,-9.493 -198.978,-9.492C-198.358,-9.496 -197.761,-9.254 -197.319,-8.82L-195.849,-7.35C-195.38,-6.891 -195.115,-6.263 -195.114,-5.607C-195.087,-4.954 -195.339,-4.32 -195.807,-3.864C-195.919,-3.752 -196.15,-3.514 -196.5,-3.15C-196.85,-2.786 -197.123,-2.506 -197.319,-2.31C-197.347,-2.282 -197.347,-2.268 -197.319,-2.268L-197.235,-2.268C-196.964,-2.355 -196.68,-2.398 -196.395,-2.394L-193.959,-2.31C-193.523,-2.254 -193.079,-2.319 -192.678,-2.499C-192.498,-2.9 -192.433,-3.344 -192.489,-3.78L-192.489,-9.28C-192.487,-9.296 -192.486,-9.312 -192.486,-9.327C-192.486,-9.511 -192.636,-9.661 -192.82,-9.661C-192.835,-9.661 -192.851,-9.66 -192.867,-9.658L-202.485,-9.658C-203.119,-9.654 -203.728,-9.913 -204.165,-10.372C-204.624,-10.809 -204.883,-11.418 -204.879,-12.052L-204.879,-21.964C-204.883,-22.598 -204.624,-23.207 -204.165,-23.644C-203.728,-24.103 -203.119,-24.362 -202.485,-24.358L-175.353,-24.358C-174.719,-24.362 -174.11,-24.103 -173.673,-23.644C-173.214,-23.207 -172.955,-22.598 -172.959,-21.964L-172.954,-12.052ZM-180.724,-15.496L-180.724,-18.73C-180.722,-18.746 -180.721,-18.762 -180.721,-18.777C-180.721,-18.961 -180.871,-19.111 -181.055,-19.111C-181.07,-19.111 -181.086,-19.11 -181.102,-19.108L-196.726,-19.108C-196.742,-19.11 -196.758,-19.111 -196.773,-19.111C-196.957,-19.111 -197.107,-18.961 -197.107,-18.777C-197.107,-18.762 -197.106,-18.746 -197.104,-18.73L-197.104,-15.5C-197.106,-15.484 -197.107,-15.468 -197.107,-15.453C-197.107,-15.269 -196.957,-15.119 -196.773,-15.119C-196.758,-15.119 -196.742,-15.12 -196.726,-15.122L-181.1,-15.122C-181.086,-15.12 -181.071,-15.119 -181.057,-15.119C-180.873,-15.119 -180.723,-15.27 -180.723,-15.453C-180.723,-15.469 -180.724,-15.484 -180.726,-15.5L-180.724,-15.496ZM-139.144,-33.556C-138.577,-33.862 -137.909,-33.923 -137.296,-33.724C-136.677,-33.548 -136.159,-33.122 -135.868,-32.548C-135.7,-32.24 -135.462,-31.778 -135.154,-31.162C-134.846,-30.546 -134.636,-30.14 -134.524,-29.944C-134.246,-29.381 -134.208,-28.729 -134.419,-28.138C-134.612,-27.541 -135.048,-27.053 -135.619,-26.794C-136.205,-26.515 -136.879,-26.485 -137.488,-26.71C-138.098,-26.917 -138.603,-27.354 -138.895,-27.928C-139.315,-28.74 -139.748,-29.566 -140.195,-30.406C-140.501,-30.949 -140.57,-31.596 -140.384,-32.191C-140.223,-32.796 -139.799,-33.297 -139.229,-33.556L-139.144,-33.556ZM-128.938,-33.64C-128.014,-31.876 -127.538,-30.966 -127.51,-30.91C-127.205,-30.357 -127.151,-29.699 -127.363,-29.104C-127.556,-28.507 -127.992,-28.019 -128.563,-27.76L-128.689,-27.676C-129.26,-27.399 -129.919,-27.363 -130.516,-27.576C-131.127,-27.77 -131.635,-28.203 -131.923,-28.776C-132.063,-29.056 -132.287,-29.489 -132.595,-30.076C-132.903,-30.663 -133.141,-31.096 -133.309,-31.376C-133.616,-31.927 -133.684,-32.58 -133.498,-33.182C-133.342,-33.794 -132.917,-34.304 -132.343,-34.568L-132.217,-34.61C-131.651,-34.916 -130.985,-34.984 -130.369,-34.799C-129.749,-34.637 -129.228,-34.215 -128.94,-33.642L-128.938,-33.64ZM-132.466,-23.77L-131.71,-21.17C-131.51,-20.564 -131.571,-19.902 -131.878,-19.343C-132.165,-18.787 -132.665,-18.37 -133.264,-18.188C-140.19,-16.088 -147.248,-14.446 -154.39,-13.274C-154.606,-13.257 -154.774,-13.071 -154.768,-12.854L-154.768,-8.19C-154.867,-7.361 -154.658,-6.523 -154.18,-5.838C-153.495,-5.36 -152.657,-5.151 -151.828,-5.25C-146.312,-5.25 -140.656,-5.417 -134.86,-5.75C-134.237,-5.786 -133.626,-5.557 -133.18,-5.12C-132.717,-4.699 -132.444,-4.108 -132.424,-3.482L-132.382,-0.92C-132.352,-0.285 -132.58,0.336 -133.014,0.8C-133.422,1.286 -134.018,1.576 -134.652,1.6C-140.7,1.933 -146.636,2.1 -152.46,2.1C-156.327,2.1 -159.043,1.337 -160.608,-0.189C-162.173,-1.715 -162.957,-4.452 -162.96,-8.4L-162.96,-29.106C-162.964,-29.74 -162.705,-30.349 -162.246,-30.786C-161.809,-31.245 -161.2,-31.504 -160.566,-31.5L-157.166,-31.5C-156.532,-31.504 -155.923,-31.245 -155.486,-30.786C-155.027,-30.349 -154.768,-29.74 -154.772,-29.106L-154.772,-21.168C-154.772,-20.916 -154.646,-20.818 -154.394,-20.874C-147.98,-21.963 -141.64,-23.45 -135.41,-25.326C-134.811,-25.526 -134.155,-25.465 -133.604,-25.158C-133.056,-24.866 -132.647,-24.367 -132.468,-23.772L-132.466,-23.77ZM-93.028,-24.484C-92.382,-24.439 -91.775,-24.153 -91.328,-23.684C-90.874,-23.23 -90.637,-22.602 -90.677,-21.962C-90.929,-14.206 -92.581,-8.536 -95.633,-4.952C-98.685,-1.368 -103.627,0.872 -110.459,1.768C-111.105,1.858 -111.761,1.692 -112.286,1.306C-112.824,0.927 -113.193,0.353 -113.315,-0.294L-113.651,-1.974C-113.77,-2.559 -113.64,-3.168 -113.294,-3.654C-112.947,-4.156 -112.407,-4.491 -111.803,-4.578C-106.651,-5.362 -103.025,-7.035 -100.925,-9.597C-98.825,-12.159 -97.677,-16.392 -97.481,-22.297C-97.461,-22.923 -97.188,-23.514 -96.725,-23.935C-96.279,-24.372 -95.668,-24.601 -95.045,-24.565L-93.028,-24.484ZM-110.668,-15.118C-110.496,-14.498 -110.596,-13.834 -110.941,-13.291C-111.252,-12.746 -111.778,-12.357 -112.39,-12.22L-114.196,-11.8C-114.815,-11.657 -115.467,-11.772 -116,-12.117C-116.536,-12.433 -116.916,-12.959 -117.05,-13.566C-117.778,-16.534 -118.338,-18.746 -118.73,-20.202C-118.902,-20.819 -118.81,-21.481 -118.478,-22.029C-118.179,-22.575 -117.658,-22.966 -117.05,-23.1L-115.412,-23.478C-114.799,-23.651 -114.141,-23.551 -113.606,-23.205C-113.055,-22.867 -112.651,-22.335 -112.472,-21.714C-111.719,-19.026 -111.118,-16.828 -110.67,-15.12L-110.668,-15.118ZM-106.342,-24.484C-105.718,-24.627 -105.062,-24.522 -104.515,-24.19C-103.965,-23.885 -103.563,-23.369 -103.402,-22.762C-102.506,-19.402 -101.904,-17.135 -101.596,-15.962C-101.424,-15.342 -101.524,-14.678 -101.869,-14.135C-102.18,-13.59 -102.706,-13.201 -103.318,-13.064L-105.124,-12.644C-105.741,-12.5 -106.391,-12.605 -106.93,-12.938C-107.47,-13.248 -107.864,-13.763 -108.022,-14.366C-108.078,-14.534 -108.68,-16.816 -109.828,-21.212C-110.001,-21.822 -109.909,-22.478 -109.576,-23.018C-109.271,-23.555 -108.751,-23.937 -108.148,-24.068L-106.342,-24.484ZM-49.558,-28.012C-48.978,-27.579 -48.648,-26.887 -48.676,-26.164C-48.872,-16.924 -51.042,-10.057 -55.186,-5.564C-59.33,-1.071 -65.883,1.68 -74.844,2.688C-75.486,2.78 -76.139,2.605 -76.65,2.205C-77.175,1.81 -77.535,1.233 -77.658,0.588L-78.078,-1.848C-78.197,-2.462 -78.044,-3.099 -77.658,-3.591C-77.3,-4.087 -76.752,-4.413 -76.146,-4.491C-69.986,-5.331 -65.499,-6.976 -62.685,-9.426C-59.871,-11.876 -58.128,-15.761 -57.456,-21.081C-57.4,-21.305 -57.498,-21.417 -57.75,-21.417L-68.25,-21.417C-68.462,-21.438 -68.665,-21.319 -68.75,-21.123C-70.351,-17.799 -72.431,-14.728 -74.924,-12.009C-75.345,-11.517 -75.956,-11.226 -76.604,-11.209C-77.265,-11.177 -77.913,-11.403 -78.41,-11.839L-80.468,-13.561C-80.936,-13.964 -81.218,-14.544 -81.245,-15.161C-81.293,-15.787 -81.088,-16.408 -80.678,-16.883C-77.37,-20.787 -75.039,-25.423 -73.878,-30.407C-73.752,-31.057 -73.393,-31.639 -72.87,-32.045C-72.361,-32.457 -71.718,-32.667 -71.064,-32.633L-68.082,-32.465C-67.451,-32.429 -66.861,-32.14 -66.444,-31.665C-66.035,-31.226 -65.862,-30.615 -65.982,-30.027C-66.01,-29.831 -66.08,-29.467 -66.192,-28.935C-66.219,-28.846 -66.195,-28.749 -66.129,-28.683C-66.076,-28.608 -65.99,-28.561 -65.898,-28.557L-53.928,-28.557C-53.845,-28.556 -53.77,-28.606 -53.739,-28.683C-53.695,-28.749 -53.704,-28.837 -53.76,-28.893C-53.872,-29.117 -54.039,-29.439 -54.26,-29.859C-54.481,-30.279 -54.648,-30.601 -54.76,-30.825C-55.038,-31.333 -55.091,-31.935 -54.907,-32.484C-54.74,-33.039 -54.353,-33.503 -53.836,-33.765C-53.312,-34.042 -52.695,-34.088 -52.136,-33.891C-51.569,-33.697 -51.097,-33.292 -50.82,-32.76C-50.68,-32.508 -50.484,-32.137 -50.232,-31.647C-49.98,-31.157 -49.784,-30.786 -49.644,-30.534C-49.308,-29.916 -49.324,-29.163 -49.686,-28.56C-49.727,-28.497 -49.749,-28.423 -49.749,-28.347C-49.749,-28.211 -49.677,-28.084 -49.56,-28.014L-49.558,-28.012ZM-44.392,-33.388L-43.216,-31.036C-42.939,-30.519 -42.894,-29.908 -43.09,-29.356C-43.282,-28.8 -43.692,-28.345 -44.224,-28.096C-44.748,-27.819 -45.365,-27.773 -45.924,-27.97C-46.495,-28.163 -46.969,-28.57 -47.247,-29.104C-47.499,-29.608 -47.905,-30.364 -48.465,-31.372C-48.741,-31.895 -48.795,-32.509 -48.612,-33.072C-48.439,-33.637 -48.035,-34.104 -47.5,-34.356C-46.954,-34.635 -46.317,-34.68 -45.736,-34.482C-45.159,-34.317 -44.673,-33.922 -44.394,-33.39L-44.392,-33.388ZM-4.912,-26.458C-4.278,-26.462 -3.669,-26.203 -3.232,-25.744C-2.773,-25.307 -2.514,-24.698 -2.518,-24.064L-2.518,-21.712C-2.514,-21.078 -2.773,-20.469 -3.232,-20.032C-3.669,-19.573 -4.278,-19.314 -4.912,-19.318L-8.442,-19.318C-8.458,-19.32 -8.474,-19.321 -8.489,-19.321C-8.673,-19.321 -8.823,-19.171 -8.823,-18.987C-8.823,-18.972 -8.822,-18.956 -8.82,-18.94L-8.82,-17.218C-8.82,-11.085 -10.297,-6.5 -13.251,-3.463C-16.205,-0.426 -21.084,1.484 -27.888,2.268C-28.534,2.358 -29.19,2.192 -29.715,1.806C-30.252,1.428 -30.621,0.855 -30.744,0.21L-31.244,-2.31C-31.363,-2.895 -31.233,-3.504 -30.887,-3.99C-30.546,-4.488 -30.001,-4.811 -29.4,-4.872C-27.326,-5.086 -25.278,-5.508 -23.289,-6.132C-21.87,-6.581 -20.58,-7.366 -19.53,-8.421C-18.581,-9.409 -17.902,-10.624 -17.556,-11.949C-17.151,-13.676 -16.968,-15.447 -17.01,-17.22L-17.01,-18.942C-17.008,-18.958 -17.007,-18.974 -17.007,-18.989C-17.007,-19.173 -17.157,-19.323 -17.341,-19.323C-17.356,-19.323 -17.372,-19.322 -17.388,-19.32L-25.032,-19.32C-25.048,-19.322 -25.064,-19.323 -25.079,-19.323C-25.263,-19.323 -25.413,-19.173 -25.413,-18.989C-25.413,-18.974 -25.412,-18.958 -25.41,-18.942L-25.41,-14.154C-25.406,-13.52 -25.665,-12.911 -26.124,-12.474C-26.561,-12.015 -27.17,-11.756 -27.804,-11.76L-30.786,-11.76C-31.42,-11.756 -32.029,-12.015 -32.466,-12.474C-32.925,-12.911 -33.184,-13.52 -33.18,-14.154L-33.18,-18.942C-33.18,-19.194 -33.292,-19.32 -33.516,-19.32L-37.086,-19.32C-37.72,-19.316 -38.329,-19.575 -38.766,-20.034C-39.225,-20.471 -39.484,-21.08 -39.48,-21.714L-39.48,-24.066C-39.484,-24.7 -39.225,-25.309 -38.766,-25.746C-38.329,-26.205 -37.72,-26.464 -37.086,-26.46L-33.516,-26.46C-33.292,-26.46 -33.18,-26.586 -33.18,-26.838L-33.18,-30.786C-33.184,-31.42 -32.925,-32.029 -32.466,-32.466C-32.029,-32.925 -31.42,-33.184 -30.786,-33.18L-27.8,-33.18C-27.166,-33.184 -26.557,-32.925 -26.12,-32.466C-25.661,-32.029 -25.402,-31.42 -25.406,-30.786L-25.406,-26.838C-25.408,-26.822 -25.409,-26.806 -25.409,-26.791C-25.409,-26.607 -25.259,-26.457 -25.075,-26.457C-25.06,-26.457 -25.044,-26.458 -25.028,-26.46L-17.384,-26.46C-17.368,-26.458 -17.352,-26.457 -17.337,-26.457C-17.153,-26.457 -17.003,-26.607 -17.003,-26.791C-17.003,-26.806 -17.004,-26.822 -17.006,-26.838L-17.006,-30.786C-17.01,-31.42 -16.751,-32.029 -16.292,-32.466C-15.855,-32.925 -15.246,-33.184 -14.612,-33.18L-11.212,-33.18C-10.578,-33.184 -9.969,-32.925 -9.532,-32.466C-9.073,-32.029 -8.814,-31.42 -8.818,-30.786L-8.818,-26.838C-8.82,-26.822 -8.821,-26.806 -8.821,-26.791C-8.821,-26.607 -8.671,-26.457 -8.487,-26.457C-8.472,-26.457 -8.456,-26.458 -8.44,-26.46L-4.912,-26.458ZM36.164,-30.322L37.886,-28.264C38.325,-27.787 38.539,-27.145 38.474,-26.5C38.434,-25.861 38.13,-25.267 37.634,-24.862C34.647,-22.397 31.425,-20.233 28.014,-18.4C27.811,-18.294 27.681,-18.084 27.678,-17.854L27.678,-0.084C27.682,0.55 27.423,1.159 26.964,1.596C26.527,2.055 25.918,2.314 25.284,2.31L21.462,2.31C20.828,2.314 20.219,2.055 19.782,1.596C19.323,1.159 19.064,0.55 19.068,-0.084L19.068,-13.9C19.066,-13.987 19.018,-14.067 18.942,-14.11C18.87,-14.164 18.776,-14.18 18.69,-14.152C14.881,-12.695 10.944,-11.599 6.93,-10.878C6.303,-10.762 5.655,-10.915 5.145,-11.298C4.618,-11.66 4.262,-12.221 4.158,-12.852L3.738,-15.5C3.619,-16.111 3.764,-16.745 4.138,-17.243C4.505,-17.754 5.054,-18.107 5.671,-18.23C10.709,-19.133 15.614,-20.664 20.271,-22.787C24.775,-24.798 28.989,-27.404 32.8,-30.534C33.283,-30.947 33.908,-31.158 34.543,-31.122C35.174,-31.108 35.767,-30.816 36.162,-30.324L36.164,-30.322ZM78.834,-15.5C79.439,-15.313 79.937,-14.876 80.2,-14.3C80.491,-13.718 80.527,-13.041 80.3,-12.431L79.3,-9.408C79.117,-8.807 78.688,-8.311 78.12,-8.043C77.546,-7.752 76.874,-7.715 76.272,-7.943C70.644,-9.903 64.918,-11.639 59.094,-13.151C59.018,-13.181 58.931,-13.155 58.884,-13.088C58.83,-13.023 58.8,-12.941 58.8,-12.857L58.8,0.126C58.804,0.76 58.545,1.369 58.086,1.806C57.649,2.265 57.04,2.524 56.406,2.52L52.794,2.52C52.16,2.524 51.551,2.265 51.114,1.806C50.655,1.369 50.396,0.76 50.4,0.126L50.4,-30.366C50.396,-31 50.655,-31.609 51.114,-32.046C51.551,-32.505 52.16,-32.764 52.794,-32.76L56.406,-32.76C57.04,-32.764 57.649,-32.505 58.086,-32.046C58.545,-31.609 58.804,-31 58.8,-30.366L58.8,-21.8C58.775,-21.583 58.922,-21.381 59.136,-21.338C66.108,-19.601 72.674,-17.655 78.834,-15.5ZM116.34,-17.85C116.648,-17.29 117.11,-16.423 117.726,-15.25C118.005,-14.686 118.035,-14.031 117.81,-13.444C117.605,-12.849 117.164,-12.363 116.592,-12.1C116.013,-11.822 115.346,-11.791 114.744,-12.016C114.142,-12.228 113.645,-12.664 113.358,-13.234C113.218,-13.486 112.77,-14.312 112.014,-15.712C111.708,-16.249 111.647,-16.891 111.846,-17.476C112.031,-18.08 112.457,-18.581 113.022,-18.862L113.064,-18.862C113.631,-19.168 114.299,-19.229 114.912,-19.03C115.532,-18.854 116.05,-18.425 116.34,-17.85ZM123.06,-19.362C123.984,-17.598 124.46,-16.688 124.488,-16.632C124.793,-16.079 124.847,-15.421 124.635,-14.826C124.442,-14.229 124.006,-13.741 123.435,-13.482L123.309,-13.398C122.739,-13.119 122.08,-13.081 121.482,-13.293C120.871,-13.487 120.363,-13.92 120.075,-14.493C119.935,-14.773 119.711,-15.206 119.403,-15.793C119.095,-16.38 118.857,-16.813 118.689,-17.093C118.382,-17.644 118.313,-18.297 118.5,-18.9C118.656,-19.512 119.081,-20.022 119.655,-20.286L119.781,-20.328C120.347,-20.634 121.013,-20.702 121.629,-20.517C122.249,-20.355 122.771,-19.934 123.06,-19.362ZM117.432,-2.6L117.726,-0.038C117.818,0.601 117.652,1.252 117.264,1.768C116.888,2.291 116.305,2.628 115.664,2.692C114.355,2.861 113.036,2.946 111.716,2.944C106.564,2.944 102.441,1.621 99.347,-1.025C96.24,-3.702 94.529,-7.663 94.71,-11.76C94.738,-13.967 95.315,-16.132 96.39,-18.06C97.511,-20.161 99.073,-21.995 100.968,-23.436C100.996,-23.436 101.01,-23.464 101.01,-23.52C101.01,-23.522 101.01,-23.524 101.01,-23.525C101.01,-23.546 100.994,-23.562 100.973,-23.562C100.972,-23.562 100.97,-23.562 100.968,-23.562C96.964,-23.45 92.974,-23.366 88.998,-23.31C88.369,-23.304 87.766,-23.563 87.339,-24.024C86.891,-24.467 86.64,-25.074 86.646,-25.704L86.646,-28.056C86.64,-28.686 86.891,-29.293 87.339,-29.736C87.767,-30.198 88.371,-30.457 89,-30.45C99.836,-30.506 109.944,-30.744 119.324,-31.164C119.953,-31.197 120.568,-30.969 121.024,-30.534C121.497,-30.12 121.778,-29.528 121.8,-28.9L121.842,-26.548C121.88,-25.905 121.652,-25.275 121.212,-24.805C120.781,-24.323 120.177,-24.029 119.532,-23.986C114.156,-23.453 110.11,-22.179 107.394,-20.164C104.86,-18.485 103.329,-15.644 103.32,-12.604C103.203,-10.341 104.096,-8.14 105.756,-6.598C107.529,-5.087 109.812,-4.304 112.14,-4.41C113.009,-4.41 113.878,-4.466 114.74,-4.578C115.37,-4.672 116.012,-4.514 116.525,-4.137C117.034,-3.779 117.364,-3.218 117.432,-2.6ZM145.95,-18.56C145.954,-17.926 145.695,-17.317 145.236,-16.88C144.799,-16.421 144.19,-16.162 143.556,-16.166L135.618,-16.166C135.602,-16.168 135.586,-16.169 135.571,-16.169C135.387,-16.169 135.237,-16.019 135.237,-15.835C135.237,-15.82 135.238,-15.804 135.24,-15.788L135.24,1.812C135.244,2.446 134.985,3.055 134.526,3.492C134.089,3.951 133.48,4.21 132.846,4.206L130.284,4.206C129.65,4.21 129.041,3.951 128.604,3.492C128.145,3.055 127.886,2.446 127.89,1.812L127.89,-31.626C127.886,-32.26 128.145,-32.869 128.604,-33.306C129.041,-33.765 129.65,-34.024 130.284,-34.02L143.556,-34.02C144.19,-34.024 144.799,-33.765 145.236,-33.306C145.695,-32.869 145.954,-32.26 145.95,-31.626L145.95,-18.56ZM140.49,-21.16L140.49,-22.336C140.49,-22.56 140.364,-22.672 140.112,-22.672L135.618,-22.672C135.366,-22.672 135.24,-22.56 135.24,-22.336L135.24,-21.16C135.238,-21.144 135.237,-21.128 135.237,-21.113C135.237,-20.929 135.387,-20.779 135.571,-20.779C135.586,-20.779 135.602,-20.78 135.618,-20.782L140.112,-20.782C140.128,-20.78 140.144,-20.778 140.161,-20.778C140.344,-20.778 140.495,-20.929 140.495,-21.112C140.495,-21.131 140.493,-21.15 140.49,-21.168L140.49,-21.16ZM140.49,-27.25L140.49,-28.384C140.492,-28.4 140.493,-28.416 140.493,-28.431C140.493,-28.615 140.343,-28.765 140.159,-28.765C140.144,-28.765 140.128,-28.764 140.112,-28.762L135.618,-28.762C135.602,-28.764 135.586,-28.765 135.571,-28.765C135.387,-28.765 135.237,-28.615 135.237,-28.431C135.237,-28.416 135.238,-28.4 135.24,-28.384L135.24,-27.25C135.238,-27.234 135.237,-27.218 135.237,-27.203C135.237,-27.019 135.387,-26.869 135.571,-26.869C135.586,-26.869 135.602,-26.87 135.618,-26.872L140.112,-26.872C140.128,-26.87 140.144,-26.868 140.161,-26.868C140.344,-26.868 140.495,-27.019 140.495,-27.202C140.495,-27.221 140.493,-27.24 140.49,-27.258L140.49,-27.25ZM163.716,-34.012C164.35,-34.016 164.959,-33.757 165.396,-33.298C165.855,-32.861 166.114,-32.252 166.11,-31.618L166.11,-4.2C166.11,-2.772 166.089,-1.652 166.047,-0.84C166.012,-0.07 165.878,0.692 165.647,1.428C165.501,1.978 165.243,2.493 164.891,2.94C164.494,3.318 164.011,3.592 163.484,3.74C162.812,3.967 162.113,4.102 161.405,4.14C160.677,4.182 159.655,4.203 158.339,4.203C157.639,4.203 157.023,4.189 156.491,4.161C155.357,4.157 154.364,3.373 154.097,2.271C154.076,2.22 154.026,2.187 153.971,2.187C153.906,2.191 153.845,2.222 153.803,2.271C153.37,2.851 152.678,3.181 151.955,3.153L150.655,3.153C150.021,3.157 149.412,2.898 148.975,2.439C148.516,2.002 148.257,1.393 148.261,0.759L148.261,-3.192C148.263,-3.208 148.264,-3.224 148.264,-3.239C148.264,-3.423 148.114,-3.573 147.93,-3.573C147.915,-3.573 147.899,-3.572 147.883,-3.57L145.657,-3.57C145.405,-3.57 145.265,-3.472 145.237,-3.276C144.716,-1.227 143.722,0.671 142.337,2.268C141.907,2.79 141.288,3.122 140.615,3.192C139.936,3.281 139.248,3.116 138.683,2.73L137.675,2.1C137.184,1.812 136.862,1.302 136.814,0.735C136.735,0.164 136.913,-0.413 137.3,-0.84C137.969,-1.555 138.535,-2.361 138.98,-3.234C139.092,-3.458 139.036,-3.57 138.812,-3.57L138.686,-3.57C138.1,-3.558 137.535,-3.794 137.132,-4.221C136.717,-4.64 136.488,-5.21 136.5,-5.8C136.487,-6.382 136.715,-6.945 137.13,-7.354C137.539,-7.769 138.101,-7.998 138.684,-7.984L139.524,-7.984C139.748,-7.984 139.86,-8.11 139.86,-8.362L139.86,-9.744C139.862,-9.757 139.862,-9.77 139.862,-9.782C139.862,-9.947 139.727,-10.082 139.562,-10.082C139.55,-10.082 139.537,-10.082 139.524,-10.08L139.146,-10.08C138.554,-10.07 137.983,-10.306 137.571,-10.731C137.146,-11.143 136.91,-11.714 136.92,-12.306C136.908,-12.892 137.144,-13.457 137.571,-13.86C137.989,-14.274 138.558,-14.501 139.146,-14.49L154.9,-14.49C155.483,-14.504 156.045,-14.275 156.454,-13.86C156.869,-13.451 157.097,-12.888 157.084,-12.306C157.095,-11.718 156.868,-11.149 156.454,-10.731C156.051,-10.304 155.486,-10.068 154.9,-10.08L154.732,-10.08C154.48,-10.08 154.354,-9.968 154.354,-9.744L154.354,-8.358C154.352,-8.342 154.351,-8.326 154.351,-8.311C154.351,-8.127 154.501,-7.977 154.685,-7.977C154.7,-7.977 154.716,-7.978 154.732,-7.98L155.32,-7.98C155.902,-7.993 156.465,-7.765 156.874,-7.35C157.287,-6.942 157.513,-6.381 157.5,-5.8C157.511,-5.212 157.284,-4.643 156.87,-4.225C156.467,-3.798 155.902,-3.562 155.316,-3.574L154.728,-3.574C154.712,-3.576 154.696,-3.577 154.681,-3.577C154.497,-3.577 154.347,-3.427 154.347,-3.243C154.347,-3.228 154.348,-3.212 154.35,-3.196L154.35,-1.768C154.35,-1.712 154.383,-1.67 154.45,-1.642C154.517,-1.614 154.566,-1.614 154.597,-1.642C155,-1.998 155.53,-2.179 156.067,-2.142C156.4,-2.114 156.736,-2.1 157.075,-2.1C157.566,-2.046 158.063,-2.111 158.524,-2.289C158.678,-2.415 158.755,-2.842 158.755,-3.57L158.755,-15.792C158.757,-15.808 158.758,-15.824 158.758,-15.839C158.758,-16.023 158.608,-16.173 158.424,-16.173C158.409,-16.173 158.393,-16.172 158.377,-16.17L150.019,-16.17C149.385,-16.166 148.776,-16.425 148.339,-16.884C147.88,-17.321 147.621,-17.93 147.625,-18.564L147.625,-31.626C147.621,-32.26 147.88,-32.869 148.339,-33.306C148.776,-33.765 149.385,-34.024 150.019,-34.02L163.716,-34.012ZM148.26,-8.358L148.26,-9.744C148.26,-9.968 148.134,-10.08 147.882,-10.08L146.076,-10.08C146.063,-10.082 146.05,-10.082 146.038,-10.082C145.873,-10.082 145.738,-9.947 145.738,-9.782C145.738,-9.77 145.738,-9.757 145.74,-9.744L145.74,-8.358C145.74,-8.106 145.852,-7.98 146.076,-7.98L147.882,-7.98C147.898,-7.978 147.914,-7.977 147.929,-7.977C148.113,-7.977 148.263,-8.127 148.263,-8.311C148.263,-8.326 148.262,-8.342 148.26,-8.358ZM158.76,-21.168L158.76,-22.344C158.76,-22.568 158.634,-22.68 158.382,-22.68L153.468,-22.68C153.216,-22.68 153.09,-22.568 153.09,-22.344L153.09,-21.168C153.088,-21.152 153.087,-21.136 153.087,-21.121C153.087,-20.937 153.237,-20.787 153.421,-20.787C153.436,-20.787 153.452,-20.788 153.468,-20.79L158.382,-20.79C158.398,-20.788 158.414,-20.787 158.429,-20.787C158.613,-20.787 158.763,-20.937 158.763,-21.121C158.763,-21.136 158.762,-21.152 158.76,-21.168ZM158.76,-27.258L158.76,-28.392C158.762,-28.408 158.763,-28.424 158.763,-28.439C158.763,-28.623 158.613,-28.773 158.429,-28.773C158.414,-28.773 158.398,-28.772 158.382,-28.77L153.468,-28.77C153.452,-28.772 153.436,-28.773 153.421,-28.773C153.237,-28.773 153.087,-28.623 153.087,-28.439C153.087,-28.424 153.088,-28.408 153.09,-28.392L153.09,-27.258C153.088,-27.242 153.087,-27.226 153.087,-27.211C153.087,-27.027 153.237,-26.877 153.421,-26.877C153.436,-26.877 153.452,-26.878 153.468,-26.88L158.382,-26.88C158.398,-26.878 158.414,-26.877 158.429,-26.877C158.613,-26.877 158.763,-27.027 158.763,-27.211C158.763,-27.226 158.762,-27.242 158.76,-27.258ZM207.06,-3.15C207.694,-3.154 208.303,-2.895 208.74,-2.436C209.199,-1.999 209.458,-1.39 209.454,-0.756L209.454,0.336C209.458,0.97 209.199,1.579 208.74,2.016C208.303,2.475 207.694,2.734 207.06,2.73L190.134,2.73C190.125,2.729 190.117,2.728 190.108,2.728C190.006,2.728 189.922,2.812 189.922,2.914C189.922,2.923 189.923,2.931 189.924,2.94C189.924,2.953 189.925,2.966 189.925,2.98C189.925,3.649 189.373,4.201 188.704,4.201C188.69,4.201 188.677,4.2 188.664,4.2L184.548,4.2C183.914,4.204 183.305,3.945 182.868,3.486C182.409,3.049 182.15,2.44 182.154,1.806L182.154,-6.678C182.162,-6.89 182.023,-7.082 181.818,-7.14L180.6,-7.6L180.1,-7.852C179.932,-7.964 179.848,-7.922 179.848,-7.726L179.848,1.806C179.852,2.44 179.593,3.049 179.134,3.486C178.697,3.945 178.088,4.204 177.454,4.2L175.1,4.2C174.466,4.204 173.857,3.945 173.42,3.486C172.961,3.049 172.702,2.44 172.706,1.806L172.706,-12.264C172.706,-12.32 172.685,-12.348 172.643,-12.348C172.604,-12.349 172.566,-12.334 172.538,-12.306C172.258,-11.858 171.838,-11.242 171.278,-10.458C171.044,-10.111 170.607,-9.957 170.207,-10.08C169.791,-10.172 169.487,-10.536 169.472,-10.962L168.8,-15.918C168.622,-17.452 168.994,-19.001 169.85,-20.286C172.037,-24.029 173.611,-28.099 174.51,-32.34C174.638,-32.966 175.018,-33.513 175.56,-33.852C176.089,-34.209 176.738,-34.345 177.366,-34.23L179.802,-33.81C180.813,-33.693 181.617,-32.889 181.734,-31.878C181.734,-31.822 181.755,-31.794 181.797,-31.794C181.836,-31.793 181.874,-31.808 181.902,-31.836C182.071,-32.285 182.371,-32.673 182.763,-32.949C183.158,-33.24 183.637,-33.394 184.128,-33.39L185.85,-33.39C186.484,-33.394 187.093,-33.135 187.53,-32.676C187.989,-32.239 188.248,-31.63 188.244,-30.996L188.244,-29.568C188.244,-29.316 188.356,-29.19 188.58,-29.19L191.016,-29.19C191.032,-29.188 191.048,-29.187 191.063,-29.187C191.247,-29.187 191.397,-29.337 191.397,-29.521C191.397,-29.536 191.396,-29.552 191.394,-29.568L191.394,-32.046C191.39,-32.68 191.649,-33.289 192.108,-33.726C192.545,-34.185 193.154,-34.444 193.788,-34.44L196.56,-34.44C197.194,-34.444 197.803,-34.185 198.24,-33.726C198.699,-33.289 198.958,-32.68 198.954,-32.046L198.954,-29.568C198.954,-29.316 199.066,-29.19 199.29,-29.19L201.726,-29.19C201.742,-29.188 201.758,-29.187 201.773,-29.187C201.957,-29.187 202.107,-29.337 202.107,-29.521C202.107,-29.536 202.106,-29.552 202.104,-29.568L202.104,-31C202.1,-31.634 202.359,-32.243 202.818,-32.68C203.255,-33.139 203.864,-33.398 204.498,-33.394L206.22,-33.394C206.854,-33.398 207.463,-33.139 207.9,-32.68C208.359,-32.243 208.618,-31.634 208.614,-31L208.614,-25.918C208.618,-25.284 208.359,-24.675 207.9,-24.238C207.463,-23.779 206.854,-23.52 206.22,-23.524L198.114,-23.524C198.112,-23.524 198.11,-23.524 198.109,-23.524C198.088,-23.524 198.072,-23.508 198.072,-23.487C198.072,-23.486 198.072,-23.484 198.072,-23.482C198.072,-23.48 198.072,-23.478 198.072,-23.477C198.072,-23.456 198.088,-23.44 198.109,-23.44C198.11,-23.44 198.112,-23.44 198.114,-23.44L201.852,-22.726C202.204,-22.677 202.519,-22.478 202.713,-22.18C202.92,-21.888 202.989,-21.519 202.902,-21.172C202.902,-21.06 202.944,-21.004 203.028,-21.004L206.64,-21.004C207.274,-21.008 207.883,-20.749 208.32,-20.29C208.779,-19.853 209.038,-19.244 209.034,-18.61L209.034,-17.938C209.038,-17.304 208.779,-16.695 208.32,-16.258C207.883,-15.799 207.274,-15.54 206.64,-15.544L202.062,-15.544C201.81,-15.544 201.684,-15.432 201.684,-15.208L201.684,-14.452C201.682,-14.436 201.681,-14.42 201.681,-14.405C201.681,-14.221 201.831,-14.071 202.015,-14.071C202.03,-14.071 202.046,-14.072 202.062,-14.074L206.01,-14.074C206.537,-14.087 207.047,-13.882 207.417,-13.507C207.792,-13.136 207.997,-12.627 207.984,-12.1C207.994,-11.563 207.781,-11.046 207.396,-10.672C207.035,-10.294 206.533,-10.081 206.01,-10.084L202.062,-10.084C201.81,-10.084 201.684,-9.972 201.684,-9.748L201.684,-8.992C201.682,-8.976 201.681,-8.96 201.681,-8.945C201.681,-8.761 201.831,-8.611 202.015,-8.611C202.03,-8.611 202.046,-8.612 202.062,-8.614L206.01,-8.614C206.537,-8.627 207.047,-8.422 207.417,-8.047C207.792,-7.676 207.997,-7.167 207.984,-6.64C207.994,-6.103 207.781,-5.586 207.396,-5.212C207.035,-4.834 206.533,-4.621 206.01,-4.624L202.062,-4.624C201.81,-4.624 201.684,-4.512 201.684,-4.288L201.684,-3.532C201.682,-3.516 201.681,-3.5 201.681,-3.485C201.681,-3.301 201.831,-3.151 202.015,-3.151C202.03,-3.151 202.046,-3.152 202.062,-3.154L207.06,-3.15ZM183.666,-23.268C183.722,-23.436 183.652,-23.52 183.456,-23.52C182.999,-23.512 182.558,-23.693 182.238,-24.02C181.911,-24.34 181.73,-24.781 181.738,-25.238L181.738,-30.614C181.717,-30.639 181.686,-30.654 181.654,-30.656C181.225,-28.509 180.664,-26.391 179.974,-24.314C179.887,-24.101 179.844,-23.872 179.848,-23.642L179.848,-12.18C179.876,-12.152 179.918,-12.152 179.974,-12.18C181.43,-15.797 182.663,-19.5 183.666,-23.268ZM194.334,-3.528L194.334,-4.284C194.334,-4.508 194.208,-4.62 193.956,-4.62L190.3,-4.62C190.048,-4.62 189.922,-4.508 189.922,-4.284L189.922,-3.528C189.92,-3.512 189.919,-3.496 189.919,-3.481C189.919,-3.297 190.069,-3.147 190.253,-3.147C190.268,-3.147 190.284,-3.148 190.3,-3.15L193.954,-3.15C193.97,-3.148 193.987,-3.146 194.003,-3.146C194.187,-3.146 194.337,-3.297 194.337,-3.48C194.337,-3.496 194.336,-3.512 194.334,-3.528ZM194.334,-8.988L194.334,-9.744C194.334,-9.968 194.208,-10.08 193.956,-10.08L190.3,-10.08C190.048,-10.08 189.922,-9.968 189.922,-9.744L189.922,-8.988C189.92,-8.972 189.919,-8.956 189.919,-8.941C189.919,-8.757 190.069,-8.607 190.253,-8.607C190.268,-8.607 190.284,-8.608 190.3,-8.61L193.954,-8.61C193.97,-8.608 193.987,-8.606 194.003,-8.606C194.187,-8.606 194.337,-8.757 194.337,-8.94C194.337,-8.956 194.336,-8.972 194.334,-8.988ZM194.334,-14.448L194.334,-15.2C194.334,-15.424 194.208,-15.536 193.956,-15.536L190.3,-15.536C190.048,-15.536 189.922,-15.424 189.922,-15.2L189.922,-14.444C189.92,-14.428 189.919,-14.412 189.919,-14.397C189.919,-14.213 190.069,-14.063 190.253,-14.063C190.268,-14.063 190.284,-14.064 190.3,-14.066L193.954,-14.066C193.971,-14.063 193.987,-14.062 194.004,-14.062C194.187,-14.062 194.338,-14.213 194.338,-14.396C194.338,-14.414 194.337,-14.431 194.334,-14.448ZM195.006,-21.336C195.034,-21.504 195.097,-21.798 195.195,-22.218C195.293,-22.638 195.37,-22.96 195.426,-23.184C195.482,-23.408 195.384,-23.52 195.132,-23.52L186.4,-23.52C186.398,-23.52 186.396,-23.52 186.395,-23.52C186.374,-23.52 186.358,-23.504 186.358,-23.483C186.358,-23.482 186.358,-23.48 186.358,-23.478C186.358,-23.476 186.358,-23.474 186.358,-23.473C186.358,-23.452 186.374,-23.436 186.395,-23.436C186.396,-23.436 186.398,-23.436 186.4,-23.436L190.306,-22.722C190.649,-22.679 190.953,-22.477 191.125,-22.176C191.306,-21.873 191.359,-21.51 191.272,-21.168C191.216,-21.056 191.272,-21 191.44,-21L194.59,-21C194.793,-20.989 194.974,-21.135 195.006,-21.336ZM233.688,-30.66C234.311,-30.669 234.909,-30.409 235.326,-29.946C235.763,-29.5 235.992,-28.889 235.956,-28.266L234.948,-12.474C234.903,-11.828 234.617,-11.221 234.148,-10.774C233.691,-10.32 233.07,-10.07 232.426,-10.081L229.654,-10.081C229.01,-10.07 228.389,-10.32 227.932,-10.774C227.463,-11.221 227.177,-11.828 227.132,-12.474L226.124,-28.266C226.088,-28.889 226.317,-29.5 226.754,-29.946C227.171,-30.409 227.769,-30.669 228.392,-30.66L233.688,-30.66ZM232.848,-6.72C233.482,-6.724 234.091,-6.465 234.528,-6.006C234.987,-5.569 235.246,-4.96 235.242,-4.326L235.242,-2.394C235.246,-1.76 234.987,-1.151 234.528,-0.714C234.091,-0.255 233.482,0.004 232.848,-0L229.236,-0C228.602,0.004 227.993,-0.255 227.556,-0.714C227.097,-1.151 226.838,-1.76 226.842,-2.394L226.842,-4.326C226.838,-4.96 227.097,-5.569 227.556,-6.006C227.993,-6.465 228.602,-6.724 229.236,-6.72L232.848,-6.72Z" style="fill:rgb(0,11,77);fill-rule:nonzero;"/>
            </g>
            <g id="パス_377" transform="matrix(1,0,0,1,1468.867,1223.789)">
                <path d="M35.313,35.313L2.414,35.313L35.313,2.414L35.313,35.313Z" style="fill:rgb(0,11,77);fill-rule:nonzero;"/>
                <path d="M34.313,4.828L4.828,34.313L34.313,34.313L34.313,4.828M36.313,0L36.313,36.313L0,36.313L36.313,0Z" style="fill:rgb(0,11,77);fill-rule:nonzero;"/>
            </g>
            <g id="パス_380" transform="matrix(-1,-0,0,-1,600.313,1190.313)">
                <path d="M35.313,35.313L2.414,35.313L35.313,2.414L35.313,35.313Z" style="fill:rgb(0,11,77);fill-rule:nonzero;"/>
                <path d="M34.313,4.828L4.828,34.313L34.313,34.313L34.313,4.828M36.313,0L36.313,36.313L0,36.313L36.313,0Z" style="fill:rgb(0,11,77);fill-rule:nonzero;"/>
            </g>
            <g id="パス_381" transform="matrix(-1,-0,0,-1,600.313,1190.313)">
                <path d="M35.313,35.313L2.414,35.313L35.313,2.414L35.313,35.313Z" style="fill:rgb(0,11,77);fill-rule:nonzero;"/>
                <path d="M34.313,4.828L4.828,34.313L34.313,34.313L34.313,4.828M36.313,0L36.313,36.313L0,36.313L36.313,0Z" style="fill:rgb(0,11,77);fill-rule:nonzero;"/>
            </g>
        </g>
        <g id="パス_382" transform="matrix(0.707107,0.707107,-0.707107,0.707107,959.677,1270.323)">
            <path d="M35.313,35.313L2.414,35.313L35.313,2.414L35.313,35.313Z" style="fill:rgb(0,11,77);fill-rule:nonzero;"/>
            <path d="M34.313,4.828L4.828,34.313L34.313,34.313L34.313,4.828M36.313,0L36.313,36.313L0,36.313L36.313,0Z" style="fill:rgb(0,11,77);fill-rule:nonzero;"/>
        </g>
        <g id="パス_383" transform="matrix(0.707107,0.707107,-0.707107,0.707107,959.677,1264.323)">
            <path d="M36.313,0L36.313,36.313L0,36.313L36.313,0Z" style="fill:white;fill-rule:nonzero;"/>
        </g>
    </g>
</svg>
