<svg xmlns="http://www.w3.org/2000/svg" width="644.682" height="124.738" viewBox="0 0 644.682 124.738">
  <g id="グループ_338" data-name="グループ 338" transform="translate(-634 -1622.262)">
    <rect id="長方形_233" data-name="長方形 233" width="453" height="28" transform="translate(634 1719)" fill="#ffc106"/>
    <path id="パス_539" data-name="パス 539" d="M-287.92-4a2.979,2.979,0,0,1,1.18,1.5,2.874,2.874,0,0,1,.06,1.86l-.84,2.48A1.8,1.8,0,0,1-288.6,3a1.553,1.553,0,0,1-1.52-.16A25.143,25.143,0,0,1-297.2-5.4q-.16-.24-.32,0a22.215,22.215,0,0,1-6.36,8.2,1.587,1.587,0,0,1-1.16.32,1.853,1.853,0,0,1-1.08-.56.468.468,0,0,0-.56-.16h-.04l-.04.04-1.44.4a1.979,1.979,0,0,1-1.58-.18A2.191,2.191,0,0,1-310.8,1.4q-.08-.28-.4-.2-5.32,1.36-10.72,2.24a2.172,2.172,0,0,1-1.7-.4,2.091,2.091,0,0,1-.9-1.48l-.2-1.48a2.02,2.02,0,0,1,.4-1.56,2.19,2.19,0,0,1,1.4-.84.357.357,0,0,0,.32-.36V-19.92a.128.128,0,0,0-.08-.12.17.17,0,0,0-.16,0,1.116,1.116,0,0,1-1.16.14,1.181,1.181,0,0,1-.72-.94l-.52-3.12a3.441,3.441,0,0,1,.26-1.96,3.705,3.705,0,0,1,1.26-1.56,42.317,42.317,0,0,0,4.36-3.72,5.413,5.413,0,0,1,3.84-1.6h2.84a7.923,7.923,0,0,1,4.16,1.24q1.08.64,1.92,1.12a2.3,2.3,0,0,1,1.1,1.34,2.25,2.25,0,0,1-.1,1.74l-.8,1.52a1.868,1.868,0,0,1-1.26,1.02,1.811,1.811,0,0,1-1.58-.3q-.12-.08-.36-.26t-.36-.26q-.24-.16-.24.12v1.76a.318.318,0,0,0,.36.36h2.16a2.267,2.267,0,0,1,1.28.4q.28.2.36-.12a52.979,52.979,0,0,0,2.4-7.84,2.519,2.519,0,0,1,.96-1.54,2.413,2.413,0,0,1,1.72-.5l1.92.2a2.019,2.019,0,0,1,1.48.8,1.893,1.893,0,0,1,.36,1.64q-.08.48-.32,1.44-.08.32.28.32h8.36a2.189,2.189,0,0,1,1.6.68,2.189,2.189,0,0,1,.68,1.6v3.92a57.649,57.649,0,0,1-1.76,9.44,1.861,1.861,0,0,1-1.08,1.26,2.107,2.107,0,0,1-1.68.06l-2.8-1.12a.18.18,0,0,0-.18.02q-.1.06-.06.14a12.635,12.635,0,0,0,2.08,4.76A16.242,16.242,0,0,0-287.92-4Zm-27.36-22.68q-.08.04-.04.16t.12.12h3.92a.128.128,0,0,0,.12-.08q.04-.08,0-.12-.72-.56-2.16-1.76a.3.3,0,0,0-.48,0Q-314.76-27.24-315.28-26.68Zm-.32,7.84v.92q0,.32.36.32h3.52a.283.283,0,0,0,.32-.32v-.92q0-.36-.32-.36h-3.52A.318.318,0,0,0-315.6-18.84Zm0,5.2v.92q0,.32.36.32h3.52a.283.283,0,0,0,.32-.32v-.92q0-.36-.32-.36h-3.52A.318.318,0,0,0-315.6-13.64Zm-.8-10.12v-1.4q0-.08-.1-.12a.155.155,0,0,0-.18.04q-.56.56-1.68,1.6-.08.04-.02.14a.169.169,0,0,0,.14.1h1.48A.318.318,0,0,0-316.4-23.76Zm7.28,16.24a.035.035,0,0,0,.04-.04.035.035,0,0,0-.04-.04h-6.12q-.36,0-.36.32V-4q0,.32.32.24.36-.08,1.16-.24t1.16-.24a.257.257,0,0,0,.2-.36,1.819,1.819,0,0,1,.1-1.42,1.511,1.511,0,0,1,1.1-.86Zm7.92-9.68v-.84q0-.04-.06-.04a.136.136,0,0,0-.1.04,14.59,14.59,0,0,1-.88,1.72,1.685,1.685,0,0,1-1.32.9,1.774,1.774,0,0,1-1.56-.46l-.04-.04a.111.111,0,0,0-.16-.02.173.173,0,0,0-.08.14v6a2.123,2.123,0,0,1-.64,1.56,2.123,2.123,0,0,1-1.56.64q-.28,0-.2.32.2.56.6,1.62t.56,1.5q.08.32.4.12a10.6,10.6,0,0,0,3.96-4.88A24.429,24.429,0,0,0-301.2-17.2Zm6.68,2.24q0,.08.06.08t.1-.08a54.006,54.006,0,0,0,1.72-7.08q.08-.36-.28-.36h-6.24a.466.466,0,0,0-.48.32q-.28.8-.52,1.36-.16.32.2.32h3.08a2.189,2.189,0,0,1,1.6.68,2.189,2.189,0,0,1,.68,1.6v.92Q-294.6-15.68-294.52-14.96Zm44.68,3.16a2.209,2.209,0,0,1,1.4,1.06,2.018,2.018,0,0,1,.2,1.7q-1.84,6.36-4.02,8.7A7.288,7.288,0,0,1-257.84,2a7.512,7.512,0,0,1-5.74-2.1q-1.98-2.1-2.7-7.14a10.449,10.449,0,0,0-.64-2.84q-.36-.72-.92-.72-1.4,0-3.14,2.48A57.16,57.16,0,0,0-275.56.72a2.423,2.423,0,0,1-1.26,1.26,2.252,2.252,0,0,1-1.74.06l-2.56-.88A1.981,1.981,0,0,1-282.38.02a2.252,2.252,0,0,1-.06-1.74q6.16-16.08,11.16-28.6a2.413,2.413,0,0,1,1.24-1.3,2.413,2.413,0,0,1,1.8-.14l2.6.72a1.922,1.922,0,0,1,1.28,1.08,2.056,2.056,0,0,1,.08,1.68q-4.04,10.32-4.16,10.6v.08h.12a8.569,8.569,0,0,1,3.08-.8,4.818,4.818,0,0,1,4.16,1.92q1.4,1.92,1.88,6.8a12.666,12.666,0,0,0,.6,3.26q.36.82.96.82,1.28,0,2.8-5.2a2.285,2.285,0,0,1,1.1-1.38,2.181,2.181,0,0,1,1.7-.22Zm34.68-5.2q.44.8,1.32,2.48a2.146,2.146,0,0,1,.08,1.72,2.2,2.2,0,0,1-1.16,1.28,2.248,2.248,0,0,1-1.76.08A2.352,2.352,0,0,1-218-12.6q-.2-.36-1.28-2.36a2.056,2.056,0,0,1-.16-1.68,2.194,2.194,0,0,1,1.12-1.32h.04a2.247,2.247,0,0,1,1.76-.16A2.2,2.2,0,0,1-215.16-17Zm6.4-1.44q1.32,2.52,1.36,2.6a2.1,2.1,0,0,1,.14,1.72,2.124,2.124,0,0,1-1.14,1.28l-.12.08a2.25,2.25,0,0,1-1.74.1,2.27,2.27,0,0,1-1.34-1.14q-.2-.4-.64-1.24t-.68-1.24A2.2,2.2,0,0,1-213.1-18a1.993,1.993,0,0,1,1.1-1.32l.12-.04a2.309,2.309,0,0,1,1.76-.18A2.126,2.126,0,0,1-208.76-18.44Zm-5.36,15.96.28,2.44a2.313,2.313,0,0,1-.44,1.72,2.139,2.139,0,0,1-1.52.88,29.045,29.045,0,0,1-3.76.24q-7.36,0-11.78-3.78a12.754,12.754,0,0,1-4.42-10.22,12.651,12.651,0,0,1,1.6-6,15.736,15.736,0,0,1,4.36-5.12q.04,0,.04-.08a.035.035,0,0,0-.04-.04q-5.72.16-11.4.24a2.125,2.125,0,0,1-1.58-.68,2.222,2.222,0,0,1-.66-1.6v-2.24a2.222,2.222,0,0,1,.66-1.6A2.125,2.125,0,0,1-241.2-29q15.48-.08,28.88-.68a2.179,2.179,0,0,1,1.62.6,2.17,2.17,0,0,1,.74,1.56l.04,2.24a2.231,2.231,0,0,1-.6,1.66,2.358,2.358,0,0,1-1.6.78q-7.68.76-11.56,3.64a8.664,8.664,0,0,0-3.88,7.2,7.291,7.291,0,0,0,2.32,5.72,8.764,8.764,0,0,0,6.08,2.08,19.36,19.36,0,0,0,2.48-.16,2.3,2.3,0,0,1,1.7.42A2.065,2.065,0,0,1-214.12-2.48Zm30.28-16.32a2.189,2.189,0,0,1,1.6.68,2.189,2.189,0,0,1,.68,1.6v4.24a2.189,2.189,0,0,1-.68,1.6,2.189,2.189,0,0,1-1.6.68h-4.24a2.189,2.189,0,0,1-1.6-.68,2.189,2.189,0,0,1-.68-1.6v-4.24a2.189,2.189,0,0,1,.68-1.6,2.189,2.189,0,0,1,1.6-.68Zm55.8-8.52a2.348,2.348,0,0,1,1.36,1.16,2.377,2.377,0,0,1,.2,1.76l-.48,1.8A2.014,2.014,0,0,1-128-21.26a2.106,2.106,0,0,1-1.68.14,8.981,8.981,0,0,1-.86-.32,8.98,8.98,0,0,0-.86-.32q-.32-.08-.32.2V-10a.767.767,0,0,0,.24.56l2.04,1.76a2.028,2.028,0,0,1,.72,1.48,1.943,1.943,0,0,1-.6,1.52q-.6.56-1.88,1.68a.19.19,0,0,0-.06.18.187.187,0,0,0,.1.14q1.36.48,2.08.68a1.621,1.621,0,0,1,1.1,1.02,1.621,1.621,0,0,1-.14,1.5l-1,1.56a3.254,3.254,0,0,1-1.5,1.28,2.75,2.75,0,0,1-1.9.12A29.575,29.575,0,0,1-143.32-2q-.2-.2-.2.12l.16,1.64a2.35,2.35,0,0,1-.5,1.68,2.179,2.179,0,0,1-1.5.88q-7.88,1.04-15.72,1.4a2.337,2.337,0,0,1-1.68-.58,2.255,2.255,0,0,1-.8-1.58l-.12-1.32a2.053,2.053,0,0,1,.52-1.6,2.027,2.027,0,0,1,1.48-.72q.4,0,1.2-.08a.318.318,0,0,0,.36-.36V-21.4q0-.28-.32-.2-.24.08-.68.24t-.68.24a2.054,2.054,0,0,1-1.66-.14,2.027,2.027,0,0,1-1.02-1.34l-.48-1.8a2.377,2.377,0,0,1,.2-1.76,2.348,2.348,0,0,1,1.36-1.16,88.011,88.011,0,0,0,11.08-4.8,9.182,9.182,0,0,1,4.28-1.08h4.64a9.182,9.182,0,0,1,4.28,1.08A88.011,88.011,0,0,0-128.04-27.32ZM-145.32-3.4a.169.169,0,0,0,.14-.1.134.134,0,0,0-.02-.18,26.384,26.384,0,0,1-3.24-3.84A.649.649,0,0,0-149-7.8h-3.36a.318.318,0,0,0-.36.36V-3q0,.28.36.28Q-147.64-3.12-145.32-3.4Zm-7.04-9.2h12.88a.318.318,0,0,0,.36-.36v-.72q0-.32-.36-.32h-12.88q-.36,0-.36.32v.72A.318.318,0,0,0-152.36-12.6Zm-.36-5.96a.318.318,0,0,0,.36.36h12.88a.318.318,0,0,0,.36-.36v-.72q0-.32-.36-.32h-12.88q-.36,0-.36.32Zm17.52,11q.08-.04.04-.14t-.12-.1h-4.96a.135.135,0,0,0-.12.06.132.132,0,0,0,0,.14,18.87,18.87,0,0,0,2.44,1.84.435.435,0,0,0,.6,0Q-135.88-6.96-135.2-7.56Zm-6.76-16.84h4q.08,0,.08-.06t-.08-.1a71.567,71.567,0,0,1-7.44-4.04.55.55,0,0,0-.6-.04,74.635,74.635,0,0,1-7.48,4.08q-.08.04-.08.1t.08.06h4a.318.318,0,0,0,.36-.36v-.36a2.189,2.189,0,0,1,.68-1.6,2.189,2.189,0,0,1,1.6-.68h2.24a2.189,2.189,0,0,1,1.6.68,2.189,2.189,0,0,1,.68,1.6v.36A.318.318,0,0,0-141.96-24.4Zm41.24-5.36a2.247,2.247,0,0,1,1.76-.16A2.2,2.2,0,0,1-97.6-28.8q.76,1.32,1.6,3.04a2.1,2.1,0,0,1,.14,1.72A2.124,2.124,0,0,1-97-22.76l-.4.2a2.145,2.145,0,0,1-1.74.14,2.27,2.27,0,0,1-1.34-1.14q-.28-.52-.8-1.52t-.8-1.48a2.156,2.156,0,0,1-.18-1.7,1.989,1.989,0,0,1,1.1-1.3Zm7-1.6a2.247,2.247,0,0,1,1.76-.16A2.2,2.2,0,0,1-90.6-30.4q1.12,2.08,1.68,3.16a2.1,2.1,0,0,1,.14,1.72,2.124,2.124,0,0,1-1.14,1.28l-.52.28a2.25,2.25,0,0,1-1.74.1A2.27,2.27,0,0,1-93.52-25l-1.68-3.12a2.056,2.056,0,0,1-.16-1.68,2.194,2.194,0,0,1,1.12-1.32ZM-96.8-16.32q7.72,7.32,8.88,8.4a2.221,2.221,0,0,1,.72,1.58,2.352,2.352,0,0,1-.56,1.66L-90-2.12a2.228,2.228,0,0,1-1.54.76,2.015,2.015,0,0,1-1.62-.56q-4.56-4.2-11.56-10.96-2.72-2.64-3.54-3.28a2.47,2.47,0,0,0-1.42-.64,2,2,0,0,0-1.34.6,25.156,25.156,0,0,0-2.42,3q-3.2,4.36-5,6.64a1.973,1.973,0,0,1-1.5.78,2.076,2.076,0,0,1-1.62-.58l-2.24-2.08a2.531,2.531,0,0,1-.76-1.62,2.336,2.336,0,0,1,.52-1.7q1.28-1.56,4.08-5.16a65.648,65.648,0,0,1,4.52-5.46,8.324,8.324,0,0,1,2.64-1.96,9.37,9.37,0,0,1,3.32-.46,8.518,8.518,0,0,1,3.08.46,13.142,13.142,0,0,1,3.12,2.08Q-101.32-20.64-96.8-16.32Zm45.28-13.36a2.179,2.179,0,0,1,1.62.6,2.17,2.17,0,0,1,.74,1.56l.04,2.24a2.231,2.231,0,0,1-.6,1.66,2.358,2.358,0,0,1-1.6.78q-7.64.76-11.54,3.58t-3.9,6.86a6.752,6.752,0,0,0,2.34,5.38A8.943,8.943,0,0,0-58.36-5a19.36,19.36,0,0,0,2.48-.16,2.3,2.3,0,0,1,1.7.42,2.065,2.065,0,0,1,.86,1.46l.28,2.44A2.313,2.313,0,0,1-53.48.88,2.139,2.139,0,0,1-55,1.76,29.045,29.045,0,0,1-58.76,2q-7.36,0-11.78-3.72a12.268,12.268,0,0,1-4.42-9.88,11.729,11.729,0,0,1,1.62-5.66A16.4,16.4,0,0,1-69-22.32q.04,0,.04-.08a.035.035,0,0,0-.04-.04q-5.72.16-11.4.24a2.125,2.125,0,0,1-1.58-.68,2.222,2.222,0,0,1-.66-1.6v-2.24a2.222,2.222,0,0,1,.66-1.6A2.125,2.125,0,0,1-80.4-29Q-64.92-29.08-51.52-29.68ZM-23.84-18.8a2.189,2.189,0,0,1,1.6.68,2.189,2.189,0,0,1,.68,1.6v4.24a2.189,2.189,0,0,1-.68,1.6,2.189,2.189,0,0,1-1.6.68h-4.24a2.189,2.189,0,0,1-1.6-.68,2.189,2.189,0,0,1-.68-1.6v-4.24a2.189,2.189,0,0,1,.68-1.6,2.189,2.189,0,0,1,1.6-.68Zm54,7.4a2.189,2.189,0,0,1,1.6.68,2.189,2.189,0,0,1,.68,1.6v1.64a2.189,2.189,0,0,1-.68,1.6,2.189,2.189,0,0,1-1.6.68H19.2q-.36,0-.36.32v3.2q0,1.48-.06,2.28a4.873,4.873,0,0,1-.36,1.52,2.4,2.4,0,0,1-.7,1.02,4.019,4.019,0,0,1-1.38.54,10.234,10.234,0,0,1-2.06.28Q13.2,4,11.24,4,9.96,4,6.68,3.88a2.383,2.383,0,0,1-1.64-.72,2.55,2.55,0,0,1-.76-1.64L4.2.08A1.931,1.931,0,0,1,4.76-1.5a1.916,1.916,0,0,1,1.52-.62Q9-2,9.84-2a3.285,3.285,0,0,0,1.22-.12q.18-.12.18-.88V-4.88q0-.32-.36-.32H-2.08a2.189,2.189,0,0,1-1.6-.68,2.189,2.189,0,0,1-.68-1.6V-9.12a2.189,2.189,0,0,1,.68-1.6,2.189,2.189,0,0,1,1.6-.68H10.96a.247.247,0,0,0,.28-.28,1.852,1.852,0,0,1,.56-1.36,1.852,1.852,0,0,1,1.36-.56H14.4a1.267,1.267,0,0,0,.64-.16q1.8-1.04,2.08-1.24a.163.163,0,0,0,.04-.12.071.071,0,0,0-.08-.08H3.92a2.152,2.152,0,0,1-1.46-.54,2.341,2.341,0,0,1-.78-1.34.357.357,0,0,0-.36-.32h-2.6a2.189,2.189,0,0,1-1.6-.68,2.189,2.189,0,0,1-.68-1.6v-6.04a2.189,2.189,0,0,1,.68-1.6A2.189,2.189,0,0,1-1.28-28H.6q.36,0,.2-.32-.08-.16-.24-.46t-.24-.46A1.782,1.782,0,0,1,.24-30.8,1.8,1.8,0,0,1,1.4-31.88l2.08-.64a2.682,2.682,0,0,1,1.88.04,2.653,2.653,0,0,1,1.4,1.24q1.12,2.12,1.44,2.88a.515.515,0,0,0,.48.36H10.4q.36,0,.2-.32-.12-.24-.34-.64t-.34-.64a1.874,1.874,0,0,1-.08-1.6A1.8,1.8,0,0,1,11-32.28l2.08-.64a2.842,2.842,0,0,1,1.88.08,2.653,2.653,0,0,1,1.4,1.24q.96,1.8,1.64,3.32a.439.439,0,0,0,.44.28H19.6a.5.5,0,0,0,.52-.28q.28-.48,1.4-2.84a2.971,2.971,0,0,1,1.3-1.38,2.877,2.877,0,0,1,1.86-.3l2.12.4a1.754,1.754,0,0,1,1.26.92,1.582,1.582,0,0,1,.06,1.52q-.12.28-.8,1.64-.16.32.2.32h1.84a2.189,2.189,0,0,1,1.6.68,2.189,2.189,0,0,1,.68,1.6v6.04a2.189,2.189,0,0,1-.68,1.6,2.189,2.189,0,0,1-1.6.68h-2.6a.283.283,0,0,0-.32.32,4.543,4.543,0,0,1-1.8,3.28q-1.28.96-3.12,2.2a.1.1,0,0,0-.06.12.1.1,0,0,0,.1.08ZM3.96-21H24.12a.283.283,0,0,0,.32-.32v-.92q0-.36-.32-.36H3.96q-.32,0-.32.36v.92A.283.283,0,0,0,3.96-21Zm66.2,9.2a2.209,2.209,0,0,1,1.4,1.06,2.018,2.018,0,0,1,.2,1.7q-1.84,6.36-4.02,8.7A7.288,7.288,0,0,1,62.16,2,7.512,7.512,0,0,1,56.42-.1q-1.98-2.1-2.7-7.14a10.448,10.448,0,0,0-.64-2.84q-.36-.72-.92-.72-1.4,0-3.14,2.48A57.16,57.16,0,0,0,44.44.72a2.423,2.423,0,0,1-1.26,1.26,2.252,2.252,0,0,1-1.74.06l-2.56-.88A1.981,1.981,0,0,1,37.62.02a2.252,2.252,0,0,1-.06-1.74q6.16-16.08,11.16-28.6a2.413,2.413,0,0,1,1.24-1.3,2.413,2.413,0,0,1,1.8-.14l2.6.72a1.922,1.922,0,0,1,1.28,1.08,2.056,2.056,0,0,1,.08,1.68q-4.04,10.32-4.16,10.6v.08h.12a8.569,8.569,0,0,1,3.08-.8,4.818,4.818,0,0,1,4.16,1.92q1.4,1.92,1.88,6.8a12.665,12.665,0,0,0,.6,3.26q.36.82.96.82,1.28,0,2.8-5.2a2.285,2.285,0,0,1,1.1-1.38,2.181,2.181,0,0,1,1.7-.22ZM104.84-17q.44.8,1.32,2.48a2.146,2.146,0,0,1,.08,1.72,2.2,2.2,0,0,1-1.16,1.28,2.248,2.248,0,0,1-1.76.08A2.352,2.352,0,0,1,102-12.6q-.2-.36-1.28-2.36a2.056,2.056,0,0,1-.16-1.68,2.194,2.194,0,0,1,1.12-1.32h.04a2.247,2.247,0,0,1,1.76-.16A2.2,2.2,0,0,1,104.84-17Zm6.4-1.44q1.32,2.52,1.36,2.6a2.1,2.1,0,0,1,.14,1.72,2.124,2.124,0,0,1-1.14,1.28l-.12.08a2.25,2.25,0,0,1-1.74.1,2.27,2.27,0,0,1-1.34-1.14q-.2-.4-.64-1.24t-.68-1.24A2.2,2.2,0,0,1,106.9-18a1.993,1.993,0,0,1,1.1-1.32l.12-.04a2.309,2.309,0,0,1,1.76-.18A2.126,2.126,0,0,1,111.24-18.44ZM105.88-2.48l.28,2.44a2.313,2.313,0,0,1-.44,1.72,2.139,2.139,0,0,1-1.52.88,29.045,29.045,0,0,1-3.76.24q-7.36,0-11.78-3.78A12.754,12.754,0,0,1,84.24-11.2a12.651,12.651,0,0,1,1.6-6,15.736,15.736,0,0,1,4.36-5.12q.04,0,.04-.08a.035.035,0,0,0-.04-.04q-5.72.16-11.4.24a2.125,2.125,0,0,1-1.58-.68,2.222,2.222,0,0,1-.66-1.6v-2.24a2.222,2.222,0,0,1,.66-1.6A2.125,2.125,0,0,1,78.8-29q15.48-.08,28.88-.68a2.179,2.179,0,0,1,1.62.6,2.17,2.17,0,0,1,.74,1.56l.04,2.24a2.231,2.231,0,0,1-.6,1.66,2.358,2.358,0,0,1-1.6.78q-7.68.76-11.56,3.64A8.664,8.664,0,0,0,92.44-12a7.291,7.291,0,0,0,2.32,5.72,8.764,8.764,0,0,0,6.08,2.08,19.36,19.36,0,0,0,2.48-.16,2.3,2.3,0,0,1,1.7.42A2.065,2.065,0,0,1,105.88-2.48ZM129.2-30.04a2.4,2.4,0,0,1,1.54-.86,2.132,2.132,0,0,1,1.7.46q1.84,1.44,3.12,2.56a2.118,2.118,0,0,1,.78,1.56,2.306,2.306,0,0,1-.54,1.68l-.92,1.08a2.082,2.082,0,0,1-1.52.78,2.248,2.248,0,0,1-1.64-.54q-1.2-1.04-3.08-2.52a2.157,2.157,0,0,1-.84-1.48,2.047,2.047,0,0,1,.48-1.64Zm1.44,16.36a2.266,2.266,0,0,1-1.74-.14,2.117,2.117,0,0,1-1.14-1.34l-.44-1.48a2.14,2.14,0,0,1,.16-1.72,2.221,2.221,0,0,1,1.32-1.08q3.36-1.04,4.32-1.4a2.213,2.213,0,0,1,1.7.12,2.062,2.062,0,0,1,1.1,1.28l.44,1.28a2.233,2.233,0,0,1-.12,1.8,2.328,2.328,0,0,1-1.32,1.2Q133-14.44,130.64-13.68Zm32.52-16.44.96,1.04a2.141,2.141,0,0,1,.6,1.62,2.162,2.162,0,0,1-.76,1.58q-1.76,1.56-3.12,2.56a2.287,2.287,0,0,1-1.72.48,2.62,2.62,0,0,1-1.6-.84l-.96-1.04a1.93,1.93,0,0,1-.54-1.6,2.087,2.087,0,0,1,.82-1.48q1.44-1.08,3.12-2.52a2.248,2.248,0,0,1,1.64-.54A2.277,2.277,0,0,1,163.16-30.12Zm.6,10.52A2.048,2.048,0,0,1,165-18.42a2.312,2.312,0,0,1,.04,1.74l-.6,1.56a2.053,2.053,0,0,1-1.16,1.24,2.259,2.259,0,0,1-1.72.04q-1.64-.64-4.36-1.52a1.968,1.968,0,0,1-1.2-.96q-.04-.08-.1-.08t-.06.08v.64a2.189,2.189,0,0,1-.68,1.6,2.189,2.189,0,0,1-1.6.68h-3.2a.283.283,0,0,0-.32.32v.72q0,.36.32.36h11.6a2.189,2.189,0,0,1,1.6.68,2.189,2.189,0,0,1,.68,1.6v1.44a2.189,2.189,0,0,1-.68,1.6,2.189,2.189,0,0,1-1.6.68h-8.12q-.08,0-.08.04a.115.115,0,0,0,.04.08,67.9,67.9,0,0,0,9.84,3.16,1.747,1.747,0,0,1,1.22.98,1.7,1.7,0,0,1-.02,1.58l-.8,1.72a2.575,2.575,0,0,1-1.34,1.26,2.455,2.455,0,0,1-1.82.06A59.281,59.281,0,0,1,150.32-2a.134.134,0,0,0-.18-.02.2.2,0,0,0-.1.18V1.72a2.189,2.189,0,0,1-.68,1.6,2.189,2.189,0,0,1-1.6.68h-3.04a2.189,2.189,0,0,1-1.6-.68,2.189,2.189,0,0,1-.68-1.6V-1.84a.2.2,0,0,0-.1-.18.134.134,0,0,0-.18.02A59.281,59.281,0,0,1,131.6,2.88a2.455,2.455,0,0,1-1.82-.06,2.575,2.575,0,0,1-1.34-1.26l-.8-1.72a1.621,1.621,0,0,1,0-1.56,1.8,1.8,0,0,1,1.24-1,66.121,66.121,0,0,0,9.8-3.16.115.115,0,0,0,.04-.08q0-.04-.08-.04h-8.12a2.189,2.189,0,0,1-1.6-.68,2.189,2.189,0,0,1-.68-1.6V-9.72a2.189,2.189,0,0,1,.68-1.6,2.189,2.189,0,0,1,1.6-.68h11.56a.318.318,0,0,0,.36-.36v-.72q0-.32-.36-.32h-3.16a2.189,2.189,0,0,1-1.6-.68,2.189,2.189,0,0,1-.68-1.6V-28.52a2.189,2.189,0,0,1,.68-1.6,2.189,2.189,0,0,1,1.6-.68h2.4q.36,0,.4-.28a.232.232,0,0,0,.04-.16.232.232,0,0,1,.04-.16,2.571,2.571,0,0,1,.98-1.56,2.433,2.433,0,0,1,1.74-.52l3.2.16a1.827,1.827,0,0,1,1.34.74,1.816,1.816,0,0,1,.34,1.5q-.08.28.28.28h3.88a2.189,2.189,0,0,1,1.6.68,2.189,2.189,0,0,1,.68,1.6v10.16q.04.04.12,0l.44-1.12a2.482,2.482,0,0,1,1.24-1.36,2.356,2.356,0,0,1,1.8-.16Q161.4-20.44,163.76-19.6Zm-14.92,1.44v-1.12q0-.32-.36-.32H144q-.36,0-.36.32v1.12a.318.318,0,0,0,.36.36h4.48A.318.318,0,0,0,148.84-18.16Zm0-6v-1.12q0-.32-.36-.32H144q-.36,0-.36.32v1.12a.318.318,0,0,0,.36.36h4.48A.318.318,0,0,0,148.84-24.16Zm51.8,10.56a2.124,2.124,0,0,1,1.26,1.16,2.09,2.09,0,0,1,.02,1.72q-2.92,6.88-7.08,10a15.69,15.69,0,0,1-9.68,3.12,16.714,16.714,0,0,1-7.6-1.4,8.427,8.427,0,0,1-3.94-4.84,29.569,29.569,0,0,1-1.26-9.76q0-7.4.44-15.32a2.433,2.433,0,0,1,.78-1.62,2.2,2.2,0,0,1,1.66-.62l3.24.12a2.133,2.133,0,0,1,1.54.72,2.15,2.15,0,0,1,.58,1.6q-.44,7.6-.44,15.12a23.184,23.184,0,0,0,.5,5.54,4.217,4.217,0,0,0,1.54,2.58,5.4,5.4,0,0,0,2.96.68,8.211,8.211,0,0,0,5.32-1.96,18.647,18.647,0,0,0,4.56-6.56,2.505,2.505,0,0,1,1.3-1.24,2.311,2.311,0,0,1,1.74-.04Zm42.56,3.44a20.651,20.651,0,0,1,.36,3.36q0,5.04-3.14,7.32T229.96,2.8q-7.16,0-9.98-2.46T217.16-8.4q0-2.2.04-3.48a.283.283,0,0,0-.32-.32h-5.44a2.189,2.189,0,0,1-1.6-.68,2.189,2.189,0,0,1-.68-1.6v-1.84a2.189,2.189,0,0,1,.68-1.6,2.189,2.189,0,0,1,1.6-.68h5.72a.283.283,0,0,0,.32-.32q0-.36.06-1.16t.1-1.2a.283.283,0,0,0-.32-.32h-4.68a2.189,2.189,0,0,1-1.6-.68,2.189,2.189,0,0,1-.68-1.6v-1.84a2.189,2.189,0,0,1,.68-1.6,2.189,2.189,0,0,1,1.6-.68h5.08q.36,0,.36-.32l.12-1.44a2.181,2.181,0,0,1,.76-1.6,2.3,2.3,0,0,1,1.68-.6l3.04.12a2.133,2.133,0,0,1,1.54.72,2.15,2.15,0,0,1,.58,1.6l-.12,1.2A.283.283,0,0,0,226-28h10.08a2.189,2.189,0,0,1,1.6.68,2.189,2.189,0,0,1,.68,1.6v1.84a2.189,2.189,0,0,1-.68,1.6,2.189,2.189,0,0,1-1.6.68H225.6q-.36,0-.36.32-.04.8-.12,2.32,0,.36.32.36h7.44a2.189,2.189,0,0,1,1.6.68,2.189,2.189,0,0,1,.68,1.6v1.84a2.189,2.189,0,0,1-.68,1.6,2.189,2.189,0,0,1-1.6.68h-7.72q-.36,0-.36.32-.04,1.28-.04,3.48,0,2.88.9,3.64t4.3.76a20.939,20.939,0,0,0,4.2-.3,2.76,2.76,0,0,0,1.76-.96,3.975,3.975,0,0,0,.44-2.14,8.846,8.846,0,0,0-.12-1.16,2.512,2.512,0,0,1,.32-1.76,2.082,2.082,0,0,1,1.4-1l2.6-.56a2.177,2.177,0,0,1,1.7.3A2.03,2.03,0,0,1,243.2-10.16ZM268.96-21.2q6.24,0,9.52,2.44A7.954,7.954,0,0,1,281.76-12q0,12.12-20.92,14.2a2.345,2.345,0,0,1-1.7-.5,2.384,2.384,0,0,1-.9-1.54l-.36-2.12a2.02,2.02,0,0,1,.42-1.66,2.2,2.2,0,0,1,1.5-.86q7.72-1,11.04-2.78t3.32-4.34a2.257,2.257,0,0,0-1.28-2.1,9.638,9.638,0,0,0-4.32-.7q-4.72,0-14.6,2.12a2.235,2.235,0,0,1-1.72-.3,2.151,2.151,0,0,1-1-1.42l-.56-2.2a2.346,2.346,0,0,1,.28-1.74,2.068,2.068,0,0,1,1.4-1.02A73.073,73.073,0,0,1,268.96-21.2ZM258.84-31.36q7.84.8,15.08.92a2.27,2.27,0,0,1,1.58.72,2.222,2.222,0,0,1,.66,1.6v2.24a2.14,2.14,0,0,1-.7,1.62,2.145,2.145,0,0,1-1.62.62q-7.8-.2-15.8-1.08a2.1,2.1,0,0,1-1.52-.84,2.165,2.165,0,0,1-.48-1.68l.24-2.12a2.179,2.179,0,0,1,.88-1.5A2.35,2.35,0,0,1,258.84-31.36Zm49.68,2.16a2.061,2.061,0,0,1,1.56.68,2.115,2.115,0,0,1,.6,1.6l-.96,15.04a2.471,2.471,0,0,1-.76,1.62,2.27,2.27,0,0,1-1.64.66h-2.64a2.27,2.27,0,0,1-1.64-.66,2.471,2.471,0,0,1-.76-1.62l-.96-15.04a2.115,2.115,0,0,1,.6-1.6,2.061,2.061,0,0,1,1.56-.68Zm-.8,22.8a2.189,2.189,0,0,1,1.6.68,2.189,2.189,0,0,1,.68,1.6v1.84a2.189,2.189,0,0,1-.68,1.6,2.189,2.189,0,0,1-1.6.68h-3.44a2.189,2.189,0,0,1-1.6-.68,2.189,2.189,0,0,1-.68-1.6V-4.12a2.189,2.189,0,0,1,.68-1.6,2.189,2.189,0,0,1,1.6-.68Z" transform="translate(968 1734)" fill="#000b4d"/>
    <path id="パス_540" data-name="パス 540" d="M-205.72-31.96a2.247,2.247,0,0,1,1.76-.16A2.2,2.2,0,0,1-202.6-31q.24.44.68,1.32t.6,1.16a2.2,2.2,0,0,1,.1,1.72,2.124,2.124,0,0,1-1.14,1.28,2.294,2.294,0,0,1-1.78.08,2.349,2.349,0,0,1-1.34-1.16q-.6-1.16-1.24-2.36a2.156,2.156,0,0,1-.18-1.7,1.989,1.989,0,0,1,1.1-1.3Zm9.72-.08q1.32,2.52,1.36,2.6a2.1,2.1,0,0,1,.14,1.72,2.124,2.124,0,0,1-1.14,1.28l-.12.08a2.25,2.25,0,0,1-1.74.1,2.27,2.27,0,0,1-1.34-1.14q-.2-.4-.64-1.24t-.68-1.24a2.2,2.2,0,0,1-.18-1.72,1.993,1.993,0,0,1,1.1-1.32l.12-.04a2.309,2.309,0,0,1,1.76-.18A2.126,2.126,0,0,1-196-32.04Zm-3.36,9.4.72,2.48a2.193,2.193,0,0,1-.16,1.74,2.206,2.206,0,0,1-1.32,1.1,156.828,156.828,0,0,1-20.12,4.68.391.391,0,0,0-.36.4V-7.8a3.243,3.243,0,0,0,.56,2.24A3.243,3.243,0,0,0-217.8-5q7.88,0,16.16-.48a2.115,2.115,0,0,1,1.6.6,2.2,2.2,0,0,1,.72,1.56l.04,2.44a2.244,2.244,0,0,1-.6,1.64,2.143,2.143,0,0,1-1.56.76Q-210.08,2-218.4,2q-5.52,0-7.76-2.18T-228.4-8V-27.72a2.189,2.189,0,0,1,.68-1.6,2.189,2.189,0,0,1,1.6-.68h3.24a2.189,2.189,0,0,1,1.6.68,2.189,2.189,0,0,1,.68,1.6v7.56q0,.36.36.28a149.532,149.532,0,0,0,18.08-4.24,2.14,2.14,0,0,1,1.72.16A2.22,2.22,0,0,1-199.36-22.64Zm40.68,4.44a2.189,2.189,0,0,1,1.6.68,2.189,2.189,0,0,1,.68,1.6v3.04a2.189,2.189,0,0,1-.68,1.6,2.189,2.189,0,0,1-1.6.68h-29.04a2.189,2.189,0,0,1-1.6-.68,2.189,2.189,0,0,1-.68-1.6v-3.04a2.189,2.189,0,0,1,.68-1.6,2.189,2.189,0,0,1,1.6-.68Zm42.64,1.08a2.274,2.274,0,0,1,1.52.86,2.106,2.106,0,0,1,.48,1.66q-1.16,8.48-5.44,12.34T-131.96,1.8a2,2,0,0,1-1.58-.64,2.269,2.269,0,0,1-.66-1.64V-28.52a2.189,2.189,0,0,1,.68-1.6,2.189,2.189,0,0,1,1.6-.68h3.24a2.189,2.189,0,0,1,1.6.68,2.189,2.189,0,0,1,.68,1.6V-6.64q0,.36.32.2a6.71,6.71,0,0,0,3.14-3.06,19.22,19.22,0,0,0,1.66-6.02,2.2,2.2,0,0,1,.86-1.5,2.143,2.143,0,0,1,1.66-.46ZM-139.68-30.8a2.189,2.189,0,0,1,1.6.68,2.189,2.189,0,0,1,.68,1.6v6.12a77.183,77.183,0,0,1-.74,12.08,18.558,18.558,0,0,1-2.46,7.08,14.626,14.626,0,0,1-5,4.56,2.269,2.269,0,0,1-1.76.24A2.543,2.543,0,0,1-148.84.52l-1.72-2.64a1.948,1.948,0,0,1-.3-1.64,2.14,2.14,0,0,1,1.02-1.36,11.135,11.135,0,0,0,2.54-2.1,8.094,8.094,0,0,0,1.46-3.1,22.137,22.137,0,0,0,.7-4.66q.14-2.62.14-7.42v-6.12a2.189,2.189,0,0,1,.68-1.6,2.189,2.189,0,0,1,1.6-.68ZM-75.72-17a2.189,2.189,0,0,1,1.6.68,2.189,2.189,0,0,1,.68,1.6v1.84a2.189,2.189,0,0,1-.68,1.6,2.189,2.189,0,0,1-1.6.68h-3.76a.318.318,0,0,0-.36.36V-4.2q0,2.04-.06,3.2a8.5,8.5,0,0,1-.38,2.16A3.983,3.983,0,0,1-81,2.6a3.208,3.208,0,0,1-1.38.76,8.045,8.045,0,0,1-2.06.38q-1.08.06-3,.06-1.8,0-3.32-.08a2.419,2.419,0,0,1-1.66-.74,2.588,2.588,0,0,1-.78-1.66l-.08-1.64a2.034,2.034,0,0,1,.58-1.54,1.9,1.9,0,0,1,1.54-.62q1.28.08,2.52.08,1.04,0,1.22-.2a2.28,2.28,0,0,0,.18-1.2v-6.44a.318.318,0,0,0-.36-.36h-5.16a2.189,2.189,0,0,1-1.6-.68,2.189,2.189,0,0,1-.68-1.6v-1.84a2.189,2.189,0,0,1,.68-1.6,2.189,2.189,0,0,1,1.6-.68h5.16a.318.318,0,0,0,.36-.36V-20a1.343,1.343,0,0,1,.42-.98,1.343,1.343,0,0,1,.98-.42.421.421,0,0,0,.36-.16q1.44-1.92,2.56-3.76a.134.134,0,0,0,.02-.18.2.2,0,0,0-.18-.1h-8.28a2.189,2.189,0,0,1-1.6-.68,2.189,2.189,0,0,1-.68-1.6v-1.64a2.189,2.189,0,0,1,.68-1.6,2.189,2.189,0,0,1,1.6-.68h14.04a2.189,2.189,0,0,1,1.6.68,2.189,2.189,0,0,1,.68,1.6v1.64a8.179,8.179,0,0,1-1.16,4.24q-1.92,3.12-3.44,5.28a1.013,1.013,0,0,0-.2.6v.4a.318.318,0,0,0,.36.36ZM-97-9.12a44.424,44.424,0,0,1,2.96,3.36,2.336,2.336,0,0,1,.52,1.7,2.531,2.531,0,0,1-.76,1.62L-95.8-.96a1.962,1.962,0,0,1-1.58.56,2,2,0,0,1-1.46-.8q-.24-.28-.64-.8t-.6-.76a.326.326,0,0,0-.24-.08.185.185,0,0,0-.2.12,27.677,27.677,0,0,1-5.52,6.12,2.108,2.108,0,0,1-1.68.48A2.139,2.139,0,0,1-109.24,3l-1.2-1.6a2.247,2.247,0,0,1-.44-1.68,2.457,2.457,0,0,1,.84-1.56,24.2,24.2,0,0,0,4.8-5.76q.16-.32-.08-.48-.64-.56-1.04-.88a.209.209,0,0,0-.22-.04.245.245,0,0,0-.18.16l-.24.72a1.3,1.3,0,0,1-1.04.86,1.287,1.287,0,0,1-1.28-.46l-1.64-1.96a4.068,4.068,0,0,1-.84-3.92q.96-3.64,1.56-7.32.08-.28-.24-.28a1.693,1.693,0,0,1-1.24-.52,1.693,1.693,0,0,1-.52-1.24v-1.96a2.189,2.189,0,0,1,.68-1.6,2.189,2.189,0,0,1,1.6-.68h.12q.4,0,.4-.36.12-1.44.24-3a2.117,2.117,0,0,1,.76-1.58,2.337,2.337,0,0,1,1.68-.58l1.84.04a2.2,2.2,0,0,1,1.56.72,2.115,2.115,0,0,1,.6,1.6q-.16,1.92-.24,2.84,0,.32.28.32h5.6a2.189,2.189,0,0,1,1.6.68,2.054,2.054,0,0,1,.64,1.6,53.109,53.109,0,0,1-2.28,15.2A.534.534,0,0,0-97-9.12Zm-5.36-5.32a35.585,35.585,0,0,0,1.08-6.4q0-.36-.32-.36h-1.84a.378.378,0,0,0-.4.32q-.52,3.08-.88,4.72a.513.513,0,0,0,.24.56q1.2.88,1.76,1.32Q-102.44-14.08-102.36-14.44Zm63.2-7.24a2.179,2.179,0,0,1,1.62.6,2.17,2.17,0,0,1,.74,1.56l.04,1.44a2.244,2.244,0,0,1-.6,1.64,2.143,2.143,0,0,1-1.56.76q-1.44.08-4.32.16-.36,0-.2.32.96,1.96,1.8,3.32a1.984,1.984,0,0,1,.2,1.6,1.684,1.684,0,0,1-1.04,1.16l-3.44,1.44a5.976,5.976,0,0,1-4.2.16A16.3,16.3,0,0,0-55.2-8.4q-4.8,0-4.8,2,0,1.36,1.8,1.98a23.4,23.4,0,0,0,6.6.62,67.817,67.817,0,0,0,7.32-.52,2.2,2.2,0,0,1,1.68.46,2.179,2.179,0,0,1,.88,1.5l.24,1.72a2.2,2.2,0,0,1-.46,1.68,2.179,2.179,0,0,1-1.5.88,71.164,71.164,0,0,1-8.16.48q-8.28,0-12.14-2.22A7.146,7.146,0,0,1-67.6-6.4a6.311,6.311,0,0,1,3.16-5.56Q-61.28-14-55.2-14a25.549,25.549,0,0,1,4.72.4h.08v-.08a5.229,5.229,0,0,0-.28-.64,5.229,5.229,0,0,1-.28-.64.488.488,0,0,0-.44-.32q-7.12.2-16,.28a2.17,2.17,0,0,1-1.62-.68,2.222,2.222,0,0,1-.66-1.6v-1.44a2.222,2.222,0,0,1,.66-1.6A2.125,2.125,0,0,1-67.44-21q6.2,0,14-.2.32,0,.24-.36-.04-.16-.12-.5t-.12-.5a.4.4,0,0,0-.44-.32q-9.6.2-11.48.2A2.269,2.269,0,0,1-67-23.34a2.17,2.17,0,0,1-.68-1.62V-26.4A2.189,2.189,0,0,1-67-28a2.189,2.189,0,0,1,1.6-.68q3.48,0,10.52-.16.4,0,.32-.32a2.807,2.807,0,0,0-.04-.38,2.806,2.806,0,0,1-.04-.38,2.079,2.079,0,0,1,.54-1.62,2.286,2.286,0,0,1,1.58-.78l2.64-.16a2.215,2.215,0,0,1,1.62.58,2.286,2.286,0,0,1,.78,1.58,2.013,2.013,0,0,1,.04.46,2.013,2.013,0,0,0,.04.46q0,.32.36.32,4.48-.16,6.68-.28a2.179,2.179,0,0,1,1.62.6A2.17,2.17,0,0,1-38-27.2l.04,1.44a2.244,2.244,0,0,1-.6,1.64,2.143,2.143,0,0,1-1.56.76l-5.84.24q-.32,0-.24.36.04.2.14.54t.14.46a.378.378,0,0,0,.4.32ZM-23.12-8.06Q-22.24-6-21.6-6t1.44-1.5a27.939,27.939,0,0,0,1.82-5.4q1.02-3.9,1.94-9.66a.2.2,0,0,0-.06-.22.2.2,0,0,0-.22-.06,10.419,10.419,0,0,0-5.4,3.88A11.082,11.082,0,0,0-24-12.4,10.933,10.933,0,0,0-23.12-8.06ZM-11.6-30.4A16.219,16.219,0,0,1,.14-25.9,15.292,15.292,0,0,1,4.8-14.4,17.815,17.815,0,0,1,1.74-3.64,13.38,13.38,0,0,1-6.6,1.68a2.105,2.105,0,0,1-1.72-.36,2.386,2.386,0,0,1-1-1.52l-.56-2.4a2.046,2.046,0,0,1,.3-1.64A2.716,2.716,0,0,1-8.2-5.32q5.8-1.96,5.8-9.08a9.248,9.248,0,0,0-1.64-5.48,8.557,8.557,0,0,0-4.4-3.24q-.32-.12-.4.24a104.636,104.636,0,0,1-2.4,12.08A28.234,28.234,0,0,1-14.2-3.4,10.554,10.554,0,0,1-17.56.2a7.9,7.9,0,0,1-4.04,1q-3.56,0-6.58-3.98A15.452,15.452,0,0,1-31.2-12.4a16.9,16.9,0,0,1,5.4-13Q-20.4-30.4-11.6-30.4Zm52.16,10a2.27,2.27,0,0,1,1.64.66,2.17,2.17,0,0,1,.68,1.62v1.64a2.222,2.222,0,0,1-.66,1.6,2.125,2.125,0,0,1-1.58.68q-5.16.04-11.88.6a2.14,2.14,0,0,1-1.64-.54,2.22,2.22,0,0,1-.8-1.54l-.08-1.64A2.2,2.2,0,0,1,26.78-19a2.255,2.255,0,0,1,1.58-.8Q35.28-20.36,40.56-20.4Zm2.8,17.44.24,1.92a2.207,2.207,0,0,1-.46,1.7,2.36,2.36,0,0,1-1.5.9A45.243,45.243,0,0,1,35.48,2Q29.56,2,26.12-.2T22.68-5.8a6.805,6.805,0,0,1,1.96-4.44A3.183,3.183,0,0,1,28.4-11l1.56.6a1.359,1.359,0,0,1,.92,1.06,1.534,1.534,0,0,1-.36,1.38,2.115,2.115,0,0,0-.64,1.36q0,.96,1.42,1.58a10.9,10.9,0,0,0,4.18.62,33.712,33.712,0,0,0,5.36-.4,2.057,2.057,0,0,1,1.66.4A2.107,2.107,0,0,1,43.36-2.96ZM35.2-22H23.24a.391.391,0,0,0-.4.36A226.394,226.394,0,0,1,17.36.44a2.346,2.346,0,0,1-1.12,1.4,2.407,2.407,0,0,1-1.76.28l-2.8-.64A1.978,1.978,0,0,1,10.32.52a1.955,1.955,0,0,1-.16-1.64q3-9.6,5.28-20.56.08-.32-.28-.32h-2.2a2.189,2.189,0,0,1-1.6-.68,2.189,2.189,0,0,1-.68-1.6v-1.84a2.189,2.189,0,0,1,.68-1.6,2.189,2.189,0,0,1,1.6-.68H16.4a.378.378,0,0,0,.4-.32q.04-.32.16-.92t.16-.88a2.462,2.462,0,0,1,.9-1.56,2.3,2.3,0,0,1,1.7-.52l2.72.2a2,2,0,0,1,1.48.82,1.992,1.992,0,0,1,.4,1.62q-.04.2-.1.6t-.1.6q-.08.36.28.36H35.2a2.189,2.189,0,0,1,1.6.68,2.189,2.189,0,0,1,.68,1.6v1.84a2.189,2.189,0,0,1-.68,1.6A2.189,2.189,0,0,1,35.2-22Zm32.28,1.92q.16-.32-.2-.32a17.365,17.365,0,0,0-3.84.52.326.326,0,0,0-.28.44q.08.32.66,2.2t.9,2.88a.143.143,0,0,0,.14.08.143.143,0,0,0,.14-.08A60.386,60.386,0,0,0,67.48-20.08ZM55.6-10q0,4.2,2,4.2a3.582,3.582,0,0,0,2.2-1.08.468.468,0,0,0,.16-.56q-1.56-4.28-2.68-7.76a.187.187,0,0,0-.14-.1.19.19,0,0,0-.18.06A10.031,10.031,0,0,0,55.6-10ZM76.92-25.56a14.074,14.074,0,0,1,5.82,5.2A14.042,14.042,0,0,1,84.8-12.8Q84.8-.44,73.84,2.36a2.135,2.135,0,0,1-1.76-.3A2.416,2.416,0,0,1,71,.6l-.6-2.2a1.95,1.95,0,0,1,.24-1.62A2.4,2.4,0,0,1,72-4.28a7.675,7.675,0,0,0,4.24-2.96A9.914,9.914,0,0,0,77.6-12.8a6.635,6.635,0,0,0-2.92-5.64q-.24-.2-.4.12-3.56,9.64-8.2,14.58T56.8,1.2a6.932,6.932,0,0,1-5.78-2.92Q48.8-4.64,48.8-10a17.261,17.261,0,0,1,1.54-7.28,16.84,16.84,0,0,1,4.3-5.76.556.556,0,0,0,.16-.56q-.56-2.04-1.08-4.2a2.177,2.177,0,0,1,.3-1.7,2.03,2.03,0,0,1,1.42-.94l2.32-.52a2.246,2.246,0,0,1,1.74.32,2.2,2.2,0,0,1,1.02,1.44q.08.32.26,1.08t.3,1.16q.08.28.4.2a21.487,21.487,0,0,1,6.12-.84q.68,0,1.96.08.4,0,.44-.28.12-.52.36-1.52t.32-1.24a2.222,2.222,0,0,1,1-1.44,2.188,2.188,0,0,1,1.72-.32l2.4.48a1.94,1.94,0,0,1,1.4.98,2.346,2.346,0,0,1,.28,1.74q-.4,1.76-.76,3.08A.37.37,0,0,0,76.92-25.56ZM96.88-8.06Q97.76-6,98.4-6t1.44-1.5a27.939,27.939,0,0,0,1.82-5.4q1.02-3.9,1.94-9.66a.2.2,0,0,0-.06-.22.2.2,0,0,0-.22-.06,10.419,10.419,0,0,0-5.4,3.88A11.082,11.082,0,0,0,96-12.4,10.933,10.933,0,0,0,96.88-8.06ZM108.4-30.4a16.219,16.219,0,0,1,11.74,4.5,15.292,15.292,0,0,1,4.66,11.5,17.815,17.815,0,0,1-3.06,10.76,13.38,13.38,0,0,1-8.34,5.32,2.105,2.105,0,0,1-1.72-.36,2.386,2.386,0,0,1-1-1.52l-.56-2.4a2.046,2.046,0,0,1,.3-1.64,2.717,2.717,0,0,1,1.38-1.08q5.8-1.96,5.8-9.08a9.248,9.248,0,0,0-1.64-5.48,8.557,8.557,0,0,0-4.4-3.24q-.32-.12-.4.24a104.635,104.635,0,0,1-2.4,12.08,28.234,28.234,0,0,1-2.96,7.4A10.554,10.554,0,0,1,102.44.2a7.9,7.9,0,0,1-4.04,1q-3.56,0-6.58-3.98A15.452,15.452,0,0,1,88.8-12.4a16.9,16.9,0,0,1,5.4-13Q99.6-30.4,108.4-30.4Zm34.4,13.2a7.015,7.015,0,0,1,5.34,2.18A8.127,8.127,0,0,1,150.2-9.2q0,4.68-2.88,7.14T139,.4a31.331,31.331,0,0,1-6.96-.8,2.611,2.611,0,0,1-1.62-1.02,3,3,0,0,1-.62-1.86V-5.52a1.479,1.479,0,0,1,.68-1.3,1.665,1.665,0,0,1,1.48-.22,20.906,20.906,0,0,0,6.24,1.12,5.088,5.088,0,0,0,3.12-.82A2.681,2.681,0,0,0,142.4-9a2.354,2.354,0,0,0-1.3-2.32,14.124,14.124,0,0,0-5.22-.68,2.189,2.189,0,0,1-1.6-.68,2.189,2.189,0,0,1-.68-1.6v-.64a4.586,4.586,0,0,1,1.76-3.72l5-4.04a.115.115,0,0,0,.04-.08.035.035,0,0,0-.04-.04h-8.48a2.189,2.189,0,0,1-1.6-.68,2.189,2.189,0,0,1-.68-1.6v-1.84a2.189,2.189,0,0,1,.68-1.6,2.189,2.189,0,0,1,1.6-.68h15.64a2.189,2.189,0,0,1,1.6.68,2.189,2.189,0,0,1,.68,1.6v1.84a4.265,4.265,0,0,1-1.8,3.64l-5.56,4.12a.115.115,0,0,0-.04.08.035.035,0,0,0,.04.04ZM186.52-32a2.189,2.189,0,0,1,1.6.68,2.19,2.19,0,0,1,.68,1.6V1.32a2.19,2.19,0,0,1-.68,1.6,2.189,2.189,0,0,1-1.6.68h-3.4a1.66,1.66,0,0,1-1.22-.5,1.66,1.66,0,0,1-.5-1.22.247.247,0,0,0-.28-.28H165.28a.247.247,0,0,0-.28.28,1.66,1.66,0,0,1-.5,1.22,1.66,1.66,0,0,1-1.22.5h-3.4a2.189,2.189,0,0,1-1.6-.68,2.189,2.189,0,0,1-.68-1.6V-29.72a2.189,2.189,0,0,1,.68-1.6,2.189,2.189,0,0,1,1.6-.68ZM181.4-4.76v-7.32q0-.32-.36-.32H165.36q-.36,0-.36.32v7.32a.318.318,0,0,0,.36.36h15.68A.318.318,0,0,0,181.4-4.76Zm0-14v-6.68a.318.318,0,0,0-.36-.36H165.36a.318.318,0,0,0-.36.36v6.68a.318.318,0,0,0,.36.36h15.68A.318.318,0,0,0,181.4-18.76Zm30.8,1.08a2.189,2.189,0,0,1-.68,1.6,2.189,2.189,0,0,1-1.6.68h-7.6q-.32,0-.32.36V1.72a2.189,2.189,0,0,1-.68,1.6,2.189,2.189,0,0,1-1.6.68h-2.44a2.189,2.189,0,0,1-1.6-.68,2.189,2.189,0,0,1-.68-1.6V-30.12a2.189,2.189,0,0,1,.68-1.6,2.189,2.189,0,0,1,1.6-.68h12.64a2.189,2.189,0,0,1,1.6.68,2.189,2.189,0,0,1,.68,1.6ZM207-20.16v-1.12q0-.32-.36-.32h-4.32a.283.283,0,0,0-.32.32v1.12q0,.36.32.36h4.32A.318.318,0,0,0,207-20.16Zm0-5.8v-1.08a.318.318,0,0,0-.36-.36h-4.32q-.32,0-.32.36v1.08q0,.36.32.36h4.32A.318.318,0,0,0,207-25.96Zm22.12-6.44a2.189,2.189,0,0,1,1.6.68,2.189,2.189,0,0,1,.68,1.6V-4q0,2.04-.06,3.2a8.5,8.5,0,0,1-.38,2.16,3.983,3.983,0,0,1-.72,1.44,3.191,3.191,0,0,1-1.34.76,7.446,7.446,0,0,1-1.98.38Q225.88,4,224,4q-1.76,0-3.32-.08a2.42,2.42,0,0,1-1.56-.66,2.617,2.617,0,0,1-.84-1.5q-.08-.36-.36-.36H210.2a.177.177,0,0,0-.2.2,1.343,1.343,0,0,1-.42.98,1.343,1.343,0,0,1-.98.42h-2.12a2.189,2.189,0,0,1-1.6-.68,2.189,2.189,0,0,1-.68-1.6V-11.52a2.189,2.189,0,0,1,.68-1.6,2.189,2.189,0,0,1,1.6-.68h13.44a2.189,2.189,0,0,1,1.6.68,2.189,2.189,0,0,1,.68,1.6v9.16q0,.36.32.36h.28a2.929,2.929,0,0,0,1.38-.18q.22-.18.22-1.22V-15.04a.318.318,0,0,0-.36-.36h-7.96a2.189,2.189,0,0,1-1.6-.68,2.189,2.189,0,0,1-.68-1.6V-30.12a2.189,2.189,0,0,1,.68-1.6,2.189,2.189,0,0,1,1.6-.68ZM216.4-2.96v-.88a.318.318,0,0,0-.36-.36h-5.72q-.32,0-.32.36v.88q0,.36.32.36h5.72A.318.318,0,0,0,216.4-2.96Zm0-5.4v-.92q0-.32-.36-.32h-5.72a.283.283,0,0,0-.32.32v.92q0,.36.32.36h5.72A.318.318,0,0,0,216.4-8.36Zm8-11.8v-1.12q0-.32-.36-.32h-4.68q-.36,0-.36.32v1.12a.318.318,0,0,0,.36.36h4.68A.318.318,0,0,0,224.4-20.16Zm0-5.8v-1.08a.318.318,0,0,0-.36-.36h-4.68a.318.318,0,0,0-.36.36v1.08a.318.318,0,0,0,.36.36h4.68A.318.318,0,0,0,224.4-25.96Z" transform="translate(968 1656)" fill="#000b4d" stroke="rgba(0,0,0,0)" stroke-width="1"/>
  </g>
</svg>
