<svg xmlns="http://www.w3.org/2000/svg" width="163.049" height="38.8" viewBox="0 0 163.049 38.8">
  <path id="パス_539" data-name="パス 539" d="M12.52-14.8a5.972,5.972,0,0,0,4-1.2,4.234,4.234,0,0,0,1.4-3.4q0-4.2-5.4-4.2a8.988,8.988,0,0,0-1.48.12.4.4,0,0,0-.32.44v7.76a.378.378,0,0,0,.32.4Q12-14.8,12.52-14.8Zm-.8-14.8q13.6,0,13.6,9.8,0,5.32-3.06,8.06T13.32-9q-.88,0-2.24-.08-.36,0-.36.32v6.48a2.189,2.189,0,0,1-.68,1.6A2.189,2.189,0,0,1,8.44,0H5.2A2.189,2.189,0,0,1,3.6-.68a2.189,2.189,0,0,1-.68-1.6V-26.72a2.6,2.6,0,0,1,.64-1.72,2.268,2.268,0,0,1,1.6-.84Q8.56-29.6,11.72-29.6Zm23.56,8.8a2.189,2.189,0,0,1,1.6.68,2.189,2.189,0,0,1,.68,1.6V-2.28a2.189,2.189,0,0,1-.68,1.6,2.189,2.189,0,0,1-1.6.68H31.84a2.189,2.189,0,0,1-1.6-.68,2.189,2.189,0,0,1-.68-1.6V-18.52a2.189,2.189,0,0,1,.68-1.6,2.189,2.189,0,0,1,1.6-.68Zm0-9.2a2.189,2.189,0,0,1,1.6.68,2.189,2.189,0,0,1,.68,1.6v1.04a2.189,2.189,0,0,1-.68,1.6,2.189,2.189,0,0,1-1.6.68H31.84a2.189,2.189,0,0,1-1.6-.68,2.189,2.189,0,0,1-.68-1.6v-1.04a2.189,2.189,0,0,1,.68-1.6,2.189,2.189,0,0,1,1.6-.68ZM57.76-5.48a1.9,1.9,0,0,1,1.56.36A1.671,1.671,0,0,1,60-3.72v1.04a2.7,2.7,0,0,1-.62,1.76A2.535,2.535,0,0,1,57.76,0,34.509,34.509,0,0,1,53,.4q-5.32,0-8.16-2.72T42-10.4q0-5.24,2.74-8.02T52.6-21.2a34.51,34.51,0,0,1,4.76.4,2.535,2.535,0,0,1,1.62.92,2.7,2.7,0,0,1,.62,1.76v1.04a1.671,1.671,0,0,1-.68,1.4,1.9,1.9,0,0,1-1.56.36A19.931,19.931,0,0,0,54-15.6a3.614,3.614,0,0,0-3.02,1.24A6.4,6.4,0,0,0,50-10.4a6.026,6.026,0,0,0,1.06,3.98A4.2,4.2,0,0,0,54.4-5.2,19.931,19.931,0,0,0,57.76-5.48Zm21.08-5.04,6.44,8.68a1.09,1.09,0,0,1,.08,1.2,1.053,1.053,0,0,1-1,.64H80.32a4.134,4.134,0,0,1-3.6-1.84L72.76-7.56q0-.04-.08-.04a.035.035,0,0,0-.04.04v5.28a2.189,2.189,0,0,1-.68,1.6,2.189,2.189,0,0,1-1.6.68H67.32a2.189,2.189,0,0,1-1.6-.68,2.189,2.189,0,0,1-.68-1.6V-27.72a2.189,2.189,0,0,1,.68-1.6,2.189,2.189,0,0,1,1.6-.68h3.04a2.189,2.189,0,0,1,1.6.68,2.189,2.189,0,0,1,.68,1.6v14.08a.035.035,0,0,0,.04.04l.08-.04,3.92-5.32a4.235,4.235,0,0,1,3.64-1.84h4.04a1.059,1.059,0,0,1,1,.6.989.989,0,0,1-.12,1.16l-6.4,7.96A.442.442,0,0,0,78.84-10.52ZM122.2-29.2a2.189,2.189,0,0,1,1.6.68,2.189,2.189,0,0,1,.68,1.6V-10.8q0,5.6-2.96,8.4T112.88.4q-5.68,0-8.64-2.8t-2.96-8.4V-26.92a2.189,2.189,0,0,1,.68-1.6,2.189,2.189,0,0,1,1.6-.68h3.52a2.189,2.189,0,0,1,1.6.68,2.189,2.189,0,0,1,.68,1.6V-10.2a4.91,4.91,0,0,0,.84,3.26,3.541,3.541,0,0,0,2.76.94,3.541,3.541,0,0,0,2.76-.94,4.91,4.91,0,0,0,.84-3.26V-26.92a2.189,2.189,0,0,1,.68-1.6,2.189,2.189,0,0,1,1.6-.68Zm18.12,24a2.887,2.887,0,0,0,2.48-1.3,6.763,6.763,0,0,0,.92-3.9q0-5.2-3.4-5.2a3.41,3.41,0,0,0-2.34.96,2.761,2.761,0,0,0-1.06,2.04v4.4a2.761,2.761,0,0,0,1.06,2.04A3.41,3.41,0,0,0,140.32-5.2Zm2.8-16a7.006,7.006,0,0,1,5.84,2.78q2.16,2.78,2.16,8.02,0,5.12-2.26,7.96A7.029,7.029,0,0,1,143.12.4,8.731,8.731,0,0,1,137.24-2a.115.115,0,0,0-.08-.04.035.035,0,0,0-.04.04V6.52a2.189,2.189,0,0,1-.68,1.6,2.189,2.189,0,0,1-1.6.68H131.8a2.189,2.189,0,0,1-1.6-.68,2.189,2.189,0,0,1-.68-1.6V-18.52a2.189,2.189,0,0,1,.68-1.6,2.189,2.189,0,0,1,1.6-.68h2.72a2.269,2.269,0,0,1,1.64.66,2.312,2.312,0,0,1,.72,1.62v.32a.035.035,0,0,0,.04.04.115.115,0,0,0,.08-.04A7.646,7.646,0,0,1,143.12-21.2Zm20.68-8a2.125,2.125,0,0,1,1.58.68,1.96,1.96,0,0,1,.58,1.6L165-11.88a2.278,2.278,0,0,1-.74,1.62,2.338,2.338,0,0,1-1.66.66h-2.64a2.269,2.269,0,0,1-1.64-.66,2.471,2.471,0,0,1-.76-1.62l-.96-15.04a2.115,2.115,0,0,1,.6-1.6,2.061,2.061,0,0,1,1.56-.68ZM163-6.4a2.189,2.189,0,0,1,1.6.68,2.189,2.189,0,0,1,.68,1.6v1.84a2.189,2.189,0,0,1-.68,1.6A2.189,2.189,0,0,1,163,0h-3.44a2.189,2.189,0,0,1-1.6-.68,2.189,2.189,0,0,1-.68-1.6V-4.12a2.189,2.189,0,0,1,.68-1.6,2.189,2.189,0,0,1,1.6-.68Z" transform="translate(-2.92 30)" fill="#000b4d"/>
</svg>
